<svg width="24" height="24" viewBox="0 0 24 24" fill="none" xmlns="http://www.w3.org/2000/svg">
<path fill-rule="evenodd" clip-rule="evenodd" d="M3.7842 1.69446C3.99131 1.33574 4.45 1.21284 4.80872 1.41994L9.41773 4.08095C9.68165 4.01502 9.94353 3.96338 10.1952 3.92229C11.4767 3.71304 12.7942 3.73739 13.3221 3.74715L13.3221 3.74715C13.3996 3.74858 13.46 3.7497 13.5009 3.74972C14.191 3.75006 14.7503 4.3096 14.7503 4.99972C14.7503 5.89518 14.904 6.72854 15.2207 7.43132L19.2295 9.74576C19.3179 9.74855 19.4082 9.74997 19.5003 9.74997C20.0443 9.74997 20.5071 10.0975 20.6789 10.5826L22.8747 11.8504C23.2335 12.0575 23.3564 12.5162 23.1493 12.8749C22.9421 13.2336 22.4835 13.3565 22.1247 13.1494L20.1982 12.0371C19.9989 12.1715 19.7588 12.25 19.5003 12.25C16.9496 12.25 15.0691 11.385 13.8525 9.925C13.3173 9.28275 12.9385 8.55871 12.6841 7.80229C11.8712 7.89987 10.918 8.13587 9.90823 8.52305C10.0941 8.6593 10.2968 8.80053 10.5143 8.94804C10.6447 9.03643 10.7823 9.12826 10.9237 9.22262L10.9237 9.22262L10.9238 9.22264C11.4359 9.56429 11.9974 9.93892 12.441 10.3024C12.7316 10.5405 13.0356 10.8234 13.2743 11.1502C13.5123 11.4759 13.7503 11.9348 13.7503 12.499C13.7503 13.6831 12.7705 14.3247 12.2104 14.6114C11.6886 14.8785 11.072 15.0758 10.4802 15.2238C10.7939 15.6199 10.8473 16.1844 10.572 16.6432C10.3613 16.9944 10.0054 17.2048 9.62708 17.2437L16.8267 21.4004C17.1854 21.6075 17.6441 21.4846 17.8512 21.1259C18.0583 20.7672 18.517 20.6443 18.8757 20.8514C19.2344 21.0585 19.3573 21.5172 19.1502 21.8759C18.5289 22.9521 17.1528 23.3208 16.0767 22.6995L1.78723 14.4495C1.42852 14.2423 1.30561 13.7837 1.51272 13.4249C1.71982 13.0662 2.17852 12.9433 2.53723 13.1504L5.89865 15.0911C5.75691 14.8268 5.71114 14.5135 5.78488 14.2074C5.91277 13.6765 6.3705 13.2901 6.91532 13.253L6.91561 13.253L6.91668 13.2529L6.92546 13.2523L6.96514 13.2493C7.00109 13.2465 7.05552 13.2421 7.12575 13.2358C7.26638 13.2233 7.46953 13.2036 7.71413 13.1749C8.20683 13.1172 8.85172 13.0253 9.48653 12.8883C10.1241 12.7508 10.6747 12.5835 11.0449 12.3993C10.992 12.3505 10.9297 12.2961 10.8565 12.2361C10.5171 11.958 10.1001 11.6795 9.61049 11.3525L9.61047 11.3524L9.61023 11.3523C9.45148 11.2462 9.2851 11.1351 9.11125 11.0172C8.45876 10.5748 7.70065 10.0357 7.1423 9.41657C6.58534 8.79896 6.02599 7.87197 6.28007 6.72878C6.47973 5.83036 7.0467 5.21329 7.67026 4.80411L4.05872 2.71898C3.7 2.51187 3.57709 2.05318 3.7842 1.69446ZM19.2501 2.75013C17.8694 2.7501 16.7501 3.86939 16.7501 5.25013C16.7502 6.63082 17.8694 7.7501 19.2501 7.75013C20.6309 7.75015 21.7502 6.63085 21.7501 5.25013C21.7501 3.86944 20.6308 2.75015 19.2501 2.75013ZM11.2795 12.6609L11.2813 12.6643C11.2813 12.6643 11.2812 12.664 11.2809 12.6633C11.2806 12.6627 11.2801 12.6619 11.2795 12.6609ZM11.3238 12.2289C11.3326 12.2173 11.3389 12.2117 11.3398 12.2119C11.3407 12.212 11.3363 12.2178 11.3238 12.2289Z" fill="#26272B"/>
</svg>
