<svg width="24" height="24" viewBox="0 0 24 24" fill="none" xmlns="http://www.w3.org/2000/svg">
<path fill-rule="evenodd" clip-rule="evenodd" d="M15.871 1.67779C16.1672 1.05422 16.9129 0.788857 17.5364 1.08508C19.9523 2.23272 21.7244 4.52247 22.1512 7.25933C22.7703 7.33393 23.2501 7.86108 23.2501 8.50029C23.2501 9.13524 22.7766 9.65962 22.1635 9.7397C21.7597 12.5128 19.9764 14.8369 17.5364 15.996C16.9129 16.2922 16.1672 16.0268 15.871 15.4033C15.5748 14.7797 15.8401 14.034 16.4637 13.7378C18.057 12.9809 19.2448 11.5151 19.6226 9.75029H14.2716C14.395 13.3329 15.0347 16.4429 15.7827 20.0796C15.8617 20.4635 15.9419 20.8534 16.0228 21.2503H17.0001C17.6904 21.2503 18.2501 21.8099 18.2501 22.5003C18.2501 23.1906 17.6904 23.7503 17.0001 23.7503H15.0001C14.4041 23.7503 13.891 23.3296 13.7743 22.7452C13.6298 22.0218 13.4842 21.3154 13.3409 20.6203C12.7989 17.9904 12.2903 15.5226 12.0001 12.911C11.7098 15.5226 11.2012 17.9904 10.6592 20.6203C10.5159 21.3154 10.3704 22.0218 10.2258 22.7452C10.1091 23.3296 9.59601 23.7503 9.00006 23.7503H7.00006C6.3097 23.7503 5.75006 23.1906 5.75006 22.5003C5.75006 21.8099 6.3097 21.2503 7.00006 21.2503H7.97731C8.05822 20.8534 8.1384 20.4636 8.21738 20.0796C8.96539 16.4429 9.60507 13.3329 9.72856 9.75029H5.94945C4.74348 9.75029 3.55051 9.50591 2.89852 8.61175C2.17707 7.62232 2.55647 6.5119 2.93343 5.86844C3.3424 5.17033 3.99287 4.54059 4.67572 4.08528C5.34218 3.6409 6.20901 3.25029 7.08954 3.25029C7.77989 3.25029 8.33954 3.80994 8.33954 4.50029C8.33954 5.19065 7.77989 5.75029 7.08954 5.75029C6.90001 5.75029 6.52097 5.85969 6.06263 6.1653C5.62067 6.45999 5.26738 6.83025 5.09052 7.13214C5.08417 7.14299 5.07821 7.1534 5.07261 7.16339C5.24969 7.2097 5.53045 7.25029 5.94945 7.25029H19.6048C19.2085 5.52145 18.0327 4.08861 16.4637 3.34324C15.8401 3.04701 15.5748 2.30137 15.871 1.67779ZM9.50004 3.75037C9.50006 2.36968 10.6193 1.2504 12 1.25037C13.3808 1.25034 14.5001 2.36964 14.5 3.75037C14.5 5.13106 13.3807 6.25034 12 6.25037C10.6193 6.2504 9.50001 5.1311 9.50004 3.75037Z" fill="#26272B"/>
</svg>
