<svg width="24" height="24" viewBox="0 0 24 24" fill="none" xmlns="http://www.w3.org/2000/svg">
<path fill-rule="evenodd" clip-rule="evenodd" d="M12.1404 0.803046C12.8016 0.604674 13.4985 0.979903 13.6969 1.64114C14.3784 3.91289 14.0309 5.75702 13.2575 7.19389C15.0339 6.23616 16.4032 4.92382 16.7798 3.22917C16.9295 2.55525 17.5972 2.13034 18.2712 2.2801C18.9451 2.42985 19.37 3.09758 19.2202 3.77149C18.6995 6.11494 17.0609 7.76857 15.2996 8.89241C16.8442 9.66286 18.1233 10.7141 19.06 12.2128C20.3634 14.2983 20.8907 17.0751 20.8033 20.7503H21.5C22.1904 20.7503 22.75 21.31 22.75 22.0003C22.75 22.6907 22.1904 23.2503 21.5 23.2503H19.5C19.1557 23.2503 18.8267 23.1083 18.5905 22.8579C18.3544 22.6074 18.2319 22.2706 18.2522 21.9269C18.4968 17.7682 17.9845 15.209 16.94 13.5378C16.3842 12.6485 15.6366 11.9467 14.647 11.3773C15.2925 12.1025 15.8121 13.0436 16.0939 14.2551C16.4847 15.9353 16.4002 18.0578 15.681 20.7503H15.9996C16.6899 20.7503 17.2496 21.31 17.2496 22.0003C17.2496 22.6907 16.6899 23.2503 15.9996 23.2503H13.9994C13.5976 23.2503 13.2202 23.0572 12.9853 22.7312C12.7504 22.4052 12.6865 21.9862 12.8135 21.605C13.9 18.3461 13.9814 16.2081 13.6589 14.8214C13.3493 13.4905 12.6475 12.7578 11.8737 12.3057C11.0537 11.8267 10.1111 11.6415 9.34251 11.541C9.24982 11.5288 9.1415 11.5162 9.02896 11.503C8.7773 11.4736 8.50459 11.4418 8.33864 11.4079C8.2641 11.3926 8.1412 11.3647 8.00997 11.3119L8.00819 11.3112C7.92671 11.2784 7.57429 11.1368 7.34567 10.752C7.20723 10.5189 7.13949 10.237 7.17384 9.94461C7.20545 9.67553 7.31394 9.47544 7.3973 9.35454C7.54816 9.13576 7.73407 9.00822 7.80603 8.96025C7.9239 8.88167 8.05535 8.79841 8.19674 8.70884C8.87761 8.27754 9.78919 7.70011 10.5263 6.7966C11.3462 5.79159 11.9165 4.40671 11.3023 2.35951C11.1039 1.69827 11.4792 1.00142 12.1404 0.803046ZM2.75 5.75033C2.75 4.36962 3.86929 3.25033 5.25 3.25033C6.63071 3.25033 7.75 4.36962 7.75 5.75033C7.75 7.13104 6.63071 8.25033 5.25 8.25033C3.86929 8.25033 2.75 7.13104 2.75 5.75033Z" fill="#26272B"/>
</svg>
