<svg width="24" height="24" viewBox="0 0 24 24" fill="none" xmlns="http://www.w3.org/2000/svg">
<path fill-rule="evenodd" clip-rule="evenodd" d="M9.5 3.25C9.50003 1.86931 10.6193 0.750029 12 0.75C13.3807 0.749971 14.5 1.86927 14.5 3.25C14.5 4.63069 13.3807 5.74997 12 5.75C10.6193 5.75003 9.49997 4.63073 9.5 3.25ZM6.46098 8.42033C8.01711 7.3089 10.0312 6.75015 11.9999 6.75C13.9687 6.74985 15.9829 7.30866 17.5391 8.42022C18.8102 9.32822 19.7894 10.6231 20.1247 12.25H20.25V11.75C20.25 11.0596 20.8096 10.5 21.5 10.5C22.1904 10.5 22.75 11.0596 22.75 11.75V15.25C22.75 15.9404 22.1904 16.5 21.5 16.5C20.8096 16.5 20.25 15.9404 20.25 15.25V14.75H14.6393C14.8504 16.6564 15.1475 18.6926 15.5315 20.7498H16.5C17.1904 20.7498 17.75 21.3094 17.75 21.9998C17.75 22.6901 17.1904 23.2498 16.5 23.2498H14.5C13.9041 23.2498 13.3911 22.8292 13.2743 22.2449C12.7626 19.6865 12.3789 17.1236 12.1245 14.75H11.8755C11.6211 17.1236 11.2374 19.6865 10.7257 22.2449C10.6089 22.8292 10.0959 23.2498 9.5 23.2498H7.5C6.80964 23.2498 6.25 22.6901 6.25 21.9998C6.25 21.3094 6.80964 20.7498 7.5 20.7498H8.46849C8.85245 18.6926 9.14962 16.6564 9.36069 14.75H3.75V15.25C3.75 15.9404 3.19036 16.5 2.5 16.5C1.80964 16.5 1.25 15.9404 1.25 15.25V11.75C1.25 11.0596 1.80964 10.5 2.5 10.5C3.19036 10.5 3.75 11.0596 3.75 11.75V12.25H3.87531C4.21059 10.6231 5.18978 9.32827 6.46098 8.42033ZM6.47063 12.25H9.59452C9.66593 11.3032 9.71269 10.4078 9.73491 9.5807C9.05734 9.78597 8.43596 10.0819 7.91401 10.4547C7.23662 10.9385 6.73749 11.5387 6.47063 12.25ZM14.2651 9.58048C14.2873 10.4077 14.3341 11.3031 14.4055 12.25H17.5294C17.2625 11.5387 16.7633 10.9384 16.0859 10.4545C15.564 10.0817 14.9426 9.78574 14.2651 9.58048Z" fill="#26272B"/>
</svg>
