<svg width="24" height="24" viewBox="0 0 24 24" fill="none" xmlns="http://www.w3.org/2000/svg">
<g clip-path="url(#clip0_20070_3255)">
<path fill-rule="evenodd" clip-rule="evenodd" d="M22.304 0.787649C22.9737 0.955153 23.3809 1.63386 23.2134 2.30359L22.2129 6.30359C22.0454 6.97332 21.3667 7.38045 20.697 7.21294C20.0273 7.04544 19.6201 6.36673 19.7876 5.697L19.9219 5.1602C19.7182 5.14307 19.4871 5.12409 19.2334 5.10394C19.1333 6.92239 18.5872 8.99299 17.5757 10.7C16.8052 12.0003 15.7012 13.1798 14.2502 13.7975L14.2502 16.1872C14.7063 15.8614 15.1798 15.5642 15.6415 15.3134C16.134 15.0459 16.6405 14.816 17.1215 14.6622C17.5729 14.5179 18.1307 14.3976 18.6715 14.4793C18.9589 14.5227 19.294 14.6314 19.5941 14.8748C19.9069 15.1287 20.1028 15.4657 20.1932 15.8258C20.3552 16.4709 20.1718 17.1432 19.9417 17.7036C19.6176 18.4924 19.0119 19.4956 18.0804 20.7523C18.7334 20.7937 19.2503 21.3364 19.2503 21.9998C19.2503 22.6902 18.6907 23.2498 18.0003 23.2498H15.4999C15.0149 23.2498 14.5736 22.9692 14.3679 22.53C14.1622 22.0907 14.2291 21.5721 14.5397 21.1995C16.0788 19.3528 16.9584 18.0704 17.4034 17.2287C17.2264 17.3071 17.0357 17.4011 16.8349 17.5102C16.035 17.9447 15.1867 18.5568 14.5553 19.168C13.9135 19.7893 13.0198 20.2494 12.0002 20.2494C10.9805 20.2494 10.0869 19.7893 9.44512 19.168C8.81367 18.5568 7.96533 17.9447 7.16543 17.5102C6.96458 17.4011 6.77377 17.307 6.5967 17.2286C7.04162 18.0703 7.92111 19.3527 9.46018 21.1996C9.77069 21.5722 9.83762 22.0908 9.6319 22.53C9.42617 22.9692 8.98493 23.2498 8.49991 23.2498H6.0003C5.30994 23.2498 4.7503 22.6902 4.7503 21.9998C4.7503 21.3366 5.26684 20.794 5.91958 20.7524C4.98812 19.4956 4.3825 18.4923 4.05851 17.7035C3.82835 17.1431 3.64506 16.4708 3.80708 15.8257C3.89751 15.4657 4.09344 15.1286 4.4063 14.8748C4.70636 14.6314 5.04149 14.5227 5.32884 14.4793C5.86961 14.3976 6.4274 14.5179 6.87879 14.6622C7.35989 14.8161 7.86636 15.0459 8.35882 15.3134C8.82052 15.5642 9.29405 15.8614 9.75016 16.1871L9.75017 13.7973C8.29927 13.1796 7.19542 12.0002 6.42496 10.7001C5.41337 8.993 4.86733 6.9224 4.76719 5.10394C4.51353 5.12408 4.28244 5.14307 4.07874 5.16019L4.21297 5.69713C4.38041 6.36687 3.97321 7.04554 3.30347 7.21297C2.63372 7.38041 1.95505 6.97321 1.78762 6.30347L0.787618 2.30347C0.620182 1.63372 1.02738 0.955054 1.69713 0.787618C2.36687 0.620182 3.04554 1.02738 3.21297 1.69713L3.46459 2.70358C3.55925 2.69535 3.66424 2.68632 3.77863 2.67663C4.33682 2.62936 5.11973 2.56636 6.01984 2.50335C7.81316 2.37781 10.0981 2.2503 12.0003 2.2503C13.9025 2.2503 16.1874 2.37781 17.9808 2.50335C18.8809 2.56636 19.6638 2.62936 20.222 2.67663C20.3365 2.68633 20.4416 2.69537 20.5363 2.70361L20.7881 1.697C20.9556 1.02728 21.6343 0.620144 22.304 0.787649ZM7.26124 4.9266C7.33492 6.38781 7.77988 8.08263 8.57569 9.42554C9.44704 10.8959 10.6029 11.7503 12.0003 11.7503C13.3978 11.7503 14.5536 10.8959 15.4249 9.42554C16.2207 8.08263 16.6657 6.38781 16.7394 4.9266C15.1923 4.83025 13.465 4.7503 12.0003 4.7503C10.5356 4.7503 8.80834 4.83025 7.26124 4.9266ZM9.50036 8.25029C9.50038 6.8696 10.6197 5.75032 12.0004 5.7503C13.3811 5.75027 14.5004 6.86956 14.5004 8.25029C14.5003 9.63099 13.381 10.7503 12.0004 10.7503C10.6196 10.7503 9.50033 9.63102 9.50036 8.25029Z" fill="#26272B"/>
</g>
<defs>
<clipPath id="clip0_20070_3255">
<rect width="24" height="24" fill="white"/>
</clipPath>
</defs>
</svg>
