<svg width="24" height="24" viewBox="0 0 24 24" fill="none" xmlns="http://www.w3.org/2000/svg">
<path fill-rule="evenodd" clip-rule="evenodd" d="M14 5.25C14 3.86929 15.1193 2.75 16.5 2.75C17.8807 2.75 19 3.86929 19 5.25C19 6.63071 17.8807 7.75 16.5 7.75C15.1193 7.75 14 6.63071 14 5.25ZM11.6225 5.80843C12.2088 5.62281 12.8429 5.89113 13.1179 6.44113C13.7766 7.75868 14.9277 9.1335 16.1727 10.2505C17.3717 11.3262 18.5019 12.024 19.197 12.2545C21.4528 12.3574 23.25 14.2188 23.25 16.5C23.25 18.8472 21.3472 20.75 19 20.75C16.6528 20.75 14.75 18.8472 14.75 16.5C14.75 15.2721 15.2708 14.1658 16.1035 13.3899C15.561 13.0093 15.0189 12.5741 14.5032 12.1114C13.7654 11.4494 13.0315 10.6863 12.3793 9.86568C11.8042 10.076 11.3006 10.2972 10.7764 10.5765C11.1397 10.8016 11.4732 11.0271 11.7678 11.2603C12.4158 11.7731 12.9596 12.3856 13.246 13.2162C13.5268 14.0305 13.5071 14.9017 13.3316 15.8346C13.1572 16.7622 12.8077 17.8548 12.3262 19.1639C12.0879 19.8118 11.3694 20.1439 10.7215 19.9056C10.0736 19.6673 9.74154 18.9488 9.97986 18.3009C10.4516 17.0184 10.7404 16.0865 10.8747 15.3726C11.008 14.664 10.9672 14.2767 10.8826 14.0312C10.8036 13.8022 10.6376 13.554 10.2164 13.2207C9.7736 12.8703 9.14692 12.5004 8.23551 11.9945C7.73695 11.7177 7.30978 11.4314 6.97328 11.1259C6.6441 10.8271 6.32938 10.4448 6.17809 9.96248C6.01123 9.43053 6.08352 8.90429 6.32456 8.45768C6.54226 8.05431 6.86981 7.76322 7.16133 7.5562C7.73774 7.14689 8.51667 6.83085 9.25106 6.57149C9.80757 6.37494 10.4236 6.18298 11.0145 5.99887C11.2215 5.93438 11.4254 5.87085 11.6225 5.80843ZM5 14.75C4.0335 14.75 3.25 15.5335 3.25 16.5C3.25 17.4665 4.0335 18.25 5 18.25C5.9665 18.25 6.75 17.4665 6.75 16.5C6.75 15.5335 5.9665 14.75 5 14.75ZM0.75 16.5C0.75 14.1528 2.65279 12.25 5 12.25C7.34721 12.25 9.25 14.1528 9.25 16.5C9.25 18.8472 7.34721 20.75 5 20.75C2.65279 20.75 0.75 18.8472 0.75 16.5ZM19 14.75C18.0335 14.75 17.25 15.5335 17.25 16.5C17.25 17.4665 18.0335 18.25 19 18.25C19.9665 18.25 20.75 17.4665 20.75 16.5C20.75 15.5335 19.9665 14.75 19 14.75Z" fill="#26272B"/>
</svg>
