<svg width="24" height="24" viewBox="0 0 24 24" fill="none" xmlns="http://www.w3.org/2000/svg">
<path fill-rule="evenodd" clip-rule="evenodd" d="M11.2503 4C11.2503 2.61929 12.3696 1.5 13.7503 1.5C15.131 1.5 16.2503 2.61929 16.2503 4C16.2503 5.38071 15.131 6.5 13.7503 6.5C12.3696 6.5 11.2503 5.38071 11.2503 4ZM8.85681 5.42814C9.37275 5.11857 10.036 5.22049 10.4352 5.67069C11.353 6.70571 12.7589 7.48802 14.2491 8.01182C15.7347 8.53399 17.1629 8.75 18.0003 8.75C20.3475 8.75 22.2503 10.6528 22.2503 13C22.2503 14.1544 21.79 15.2014 21.043 15.9673L21.6689 15.7952C22.3345 15.6121 23.0225 16.0033 23.2056 16.669C23.3886 17.3346 22.9974 18.0226 22.3318 18.2057L2.33176 23.7057C1.66612 23.8887 0.978111 23.4975 0.795058 22.8319C0.612006 22.1662 1.00322 21.4782 1.66887 21.2952L3.23133 20.8655C1.76726 20.1944 0.750315 18.7159 0.750315 17C0.750315 14.6528 2.65311 12.75 5.00032 12.75C7.34753 12.75 9.25031 14.6528 9.25031 17C9.25031 17.8982 8.97167 18.7313 8.49612 19.4177L16.9008 17.1064C15.0865 16.6218 13.7503 14.967 13.7503 13C13.7503 12.1483 14.0009 11.355 14.4323 10.69C14.0977 10.5959 13.7589 10.4894 13.4201 10.3704C12.5076 10.0496 11.5547 9.62304 10.6655 9.06942C10.4031 9.20333 9.99825 9.41756 9.5586 9.67794C9.35009 9.80143 9.14316 9.92987 8.94556 10.06C9.3794 10.1616 9.77967 10.2566 10.1039 10.3485C10.7249 10.5244 11.4081 10.771 11.941 11.2881C12.5152 11.8453 12.7589 12.5551 12.8542 13.3225C12.9459 14.0609 12.9152 14.979 12.8308 16.0942C12.7788 16.7826 12.1786 17.2985 11.4902 17.2464C10.8018 17.1944 10.2859 16.5942 10.338 15.9058C10.4215 14.8004 10.4316 14.1 10.3733 13.6307C10.3195 13.1975 10.2246 13.1059 10.2011 13.0833L10.2 13.0822C10.1372 13.0213 9.97011 12.909 9.42232 12.7538C9.10285 12.6632 8.7645 12.5847 8.34975 12.4884C8.02248 12.4124 7.64764 12.3253 7.19697 12.2127C6.63834 12.073 6.14587 11.9008 5.73845 11.6794C5.33687 11.4613 4.93493 11.1502 4.68095 10.693C4.08388 9.61831 4.68508 8.63041 5.10837 8.13012C5.57082 7.58353 6.24098 7.08195 6.87391 6.65729C7.45177 6.26959 8.08587 5.88988 8.6493 5.55248C8.71966 5.51035 8.78891 5.46888 8.85681 5.42814ZM18.0003 11.25C17.0338 11.25 16.2503 12.0335 16.2503 13C16.2503 13.9665 17.0338 14.75 18.0003 14.75C18.9668 14.75 19.7503 13.9665 19.7503 13C19.7503 12.0335 18.9668 11.25 18.0003 11.25ZM5.00032 15.25C4.03382 15.25 3.25032 16.0335 3.25032 17C3.25032 17.9665 4.03382 18.75 5.00032 18.75C5.96681 18.75 6.75032 17.9665 6.75032 17C6.75032 16.0335 5.96681 15.25 5.00032 15.25ZM23.1976 20.6412C23.396 21.3025 23.0207 21.9993 22.3595 22.1977L17.3595 23.6977C16.6983 23.8961 16.0014 23.5208 15.803 22.8596C15.6047 22.1984 15.9799 21.5015 16.6411 21.3031L21.6411 19.8031C22.3024 19.6048 22.9992 19.98 23.1976 20.6412Z" fill="#26272B"/>
</svg>
