<svg width="24" height="24" viewBox="0 0 24 24" fill="none" xmlns="http://www.w3.org/2000/svg">
<path fill-rule="evenodd" clip-rule="evenodd" d="M7.25 3.5C7.25003 2.11931 8.36931 1.00003 9.75 1C11.1307 0.999971 12.25 2.11927 12.25 3.5C12.25 4.88069 11.1307 5.99997 9.75 6C8.36927 6.00003 7.24997 4.88073 7.25 3.5ZM17.25 3.74997C17.25 2.6454 18.1454 1.74997 19.25 1.74997C20.3546 1.74997 21.25 2.6454 21.25 3.74997V16.25C21.25 16.8816 20.9572 17.4448 20.5 17.8113V20.75H21.75C22.4404 20.75 23 21.3096 23 22C23 22.6903 22.4404 23.25 21.75 23.25H16.75C16.0596 23.25 15.5 22.6903 15.5 22C15.5 21.3096 16.0596 20.75 16.75 20.75H18V17.8113C17.5428 17.4448 17.25 16.8816 17.25 16.25V3.74997ZM6.98959 7.2647C7.37926 6.72897 8.1192 6.59028 8.67643 6.94851C10.1192 7.87606 11.5448 7.97718 12.6787 7.79676C13.2511 7.70569 13.742 7.5432 14.1061 7.38307C14.3966 7.25533 14.5524 7.15357 14.6032 7.12039C14.6236 7.10706 14.6271 7.10481 14.6155 7.1164C15.1035 6.62807 15.8949 6.62779 16.3833 7.11578C16.8716 7.60376 16.8719 8.39522 16.3839 8.88355C16.0936 9.17399 15.6113 9.45222 15.1125 9.67158C14.5705 9.9099 13.874 10.138 13.0716 10.2657C12.6477 10.3331 12.1922 10.3727 11.7138 10.3703C12.2024 10.6609 12.7753 10.7573 14.1047 10.3141C14.7596 10.0958 15.4675 10.4498 15.6859 11.1047C15.9042 11.7596 15.5502 12.4675 14.8953 12.6858C13.2318 13.2403 11.804 13.3401 10.4196 12.5093C10.0461 12.2852 9.68989 11.9989 9.3402 11.66C9.21617 11.9177 9.08366 12.1929 8.94321 12.4835C9.91563 13.3407 10.586 14.6547 10.9824 16.0284C11.3881 17.4346 11.5593 19.0689 11.4258 20.75H12.0005C12.6908 20.75 13.2505 21.3096 13.2505 22C13.2505 22.6903 12.6908 23.25 12.0005 23.25H10.0005C9.62863 23.25 9.27608 23.0844 9.0386 22.7983C8.80112 22.5121 8.70337 22.1351 8.7719 21.7696C9.11177 19.9569 8.99391 18.1547 8.58038 16.7215C8.35467 15.9393 8.06327 15.3361 7.75961 14.9003C6.87288 16.6813 5.81932 18.7226 4.66698 20.761C5.27839 20.8426 5.75 21.3662 5.75 22C5.75 22.6903 5.19036 23.25 4.5 23.25H2.5C2.04966 23.25 1.63413 23.0077 1.41225 22.6158C1.19037 22.224 1.19644 21.743 1.42813 21.3569C3.0849 18.5956 4.58298 15.6883 5.7621 13.3008C5.63551 13.173 5.5196 13.0343 5.41748 12.8831C5.01234 12.283 4.91079 11.6166 5.01606 10.9587C5.11357 10.3493 5.38631 9.75041 5.71195 9.18056C6.04386 8.59974 6.48293 7.96127 6.98959 7.2647Z" fill="#26272B"/>
</svg>
