<svg width="24" height="24" viewBox="0 0 24 24" fill="none" xmlns="http://www.w3.org/2000/svg">
<path fill-rule="evenodd" clip-rule="evenodd" d="M13.953 5.93962C15.218 6.01864 16.7096 6.67522 17.1859 8.10452C17.3442 8.57928 17.4599 9.25639 17.5483 9.96124C17.5487 9.96486 17.5492 9.96849 17.5496 9.97212C17.555 10.0151 17.5603 10.0581 17.5654 10.1012C17.6593 10.8851 17.7316 11.7884 17.7795 12.683C17.8359 13.7354 17.8623 14.8408 17.8407 15.7498H18.0001C18.6904 15.7498 19.2501 16.3094 19.2501 16.9998C19.2501 17.6901 18.6904 18.2498 18.0001 18.2498H16.5001C16.1326 18.2498 15.7838 18.0881 15.5463 17.8077C15.3088 17.5273 15.2067 17.1567 15.2671 16.7942C15.3664 16.1986 15.3776 14.5799 15.2831 12.8167C15.2479 12.1592 15.1994 11.5069 15.1398 10.915C14.6787 10.7302 14.103 10.6289 13.5138 10.6807C12.8235 10.7414 12.1836 11.0035 11.6995 11.5136C11.7237 11.8376 11.7606 12.1797 11.8037 12.5383C11.82 12.6746 11.8375 12.815 11.8553 12.9578C11.9333 13.5836 12.0173 14.2571 12.0384 14.8541C12.0627 15.5424 12.0271 16.4627 11.5401 17.1931C10.8927 18.1643 9.71844 18.2505 9.01796 18.2255C8.20764 18.1966 7.30985 17.9911 6.52507 17.7623C5.72454 17.5288 4.96647 17.2482 4.41378 17.0287C4.32906 16.9951 4.24882 16.9627 4.17365 16.9321L2.75007 17.9998C2.19779 18.414 1.41429 18.302 1.00007 17.7498C0.58586 17.1975 0.697789 16.414 1.25007 15.9998L3.25007 14.4998C3.61543 14.2257 4.10114 14.1728 4.51694 14.3616C4.51698 14.3616 4.51702 14.3617 4.51706 14.3617C4.51707 14.3617 4.51709 14.3617 4.5171 14.3617C4.51717 14.3617 4.51725 14.3618 4.51733 14.3618L4.51866 14.3624L4.52773 14.3665L4.56816 14.3845C4.60473 14.4007 4.66003 14.4249 4.73164 14.4557C4.87501 14.5173 5.083 14.6046 5.33636 14.7052C5.84617 14.9076 6.52561 15.1582 7.22507 15.3623C7.94029 15.5709 8.60501 15.7092 9.10719 15.7271C9.3007 15.734 9.42186 15.7224 9.4924 15.7102C9.4993 15.6828 9.50654 15.6487 9.51332 15.6069C9.53924 15.4474 9.55007 15.23 9.53991 14.9423C9.52315 14.4672 9.45728 13.9363 9.38079 13.3197C9.36149 13.1641 9.34151 13.0031 9.32148 12.8361C9.22752 12.0531 9.13611 11.1607 9.18156 10.3154C9.22663 9.4771 9.41195 8.53382 10.0001 7.74968C11.0393 6.36421 12.5975 5.85494 13.953 5.93962ZM18.2501 8.99952C18.2501 7.61881 19.3694 6.49952 20.7501 6.49952C22.1308 6.49952 23.2501 7.61881 23.2501 8.99952C23.2501 10.3802 22.1308 11.4995 20.7501 11.4995C19.3694 11.4995 18.2501 10.3802 18.2501 8.99952Z" fill="#26272B"/>
</svg>
