<svg width="24" height="24" viewBox="0 0 24 24" fill="none" xmlns="http://www.w3.org/2000/svg">
<path fill-rule="evenodd" clip-rule="evenodd" d="M18.2501 6.75C18.2501 5.36929 19.3694 4.25 20.7501 4.25C22.1308 4.25 23.2501 5.36929 23.2501 6.75C23.2501 8.13071 22.1308 9.25 20.7501 9.25C19.3694 9.25 18.2501 8.13071 18.2501 6.75ZM18.7134 16.75H19.0001C19.6904 16.75 20.2501 17.3096 20.2501 18C20.2501 18.6904 19.6904 19.25 19.0001 19.25H17.3729C17.0034 19.25 16.6528 19.0865 16.4153 18.8034C16.1778 18.5204 16.0777 18.1467 16.1419 17.7828C16.1879 17.5223 16.2247 16.858 16.2204 15.9301C16.2165 15.0833 16.1793 14.0994 16.1058 13.1721C14.845 13.7881 13.6274 13.8388 12.6809 13.8047C12.6816 13.8777 12.6824 13.9519 12.6832 14.0271C12.6902 14.6526 12.6979 15.3453 12.6543 15.969C12.6064 16.6545 12.4864 17.5243 12.0401 18.1936C11.6996 18.7045 11.1979 18.9618 10.7598 19.0886C10.3261 19.2141 9.86515 19.2402 9.44281 19.2261C8.5968 19.1979 7.6445 18.9971 6.80011 18.7697C5.94074 18.5384 5.12288 18.2599 4.52475 18.0417C4.40531 17.9981 4.29411 17.9567 4.19252 17.9184L2.75007 19.0002C2.19779 19.4144 1.41429 19.3025 1.00007 18.7502C0.58586 18.1979 0.697789 17.4144 1.25007 17.0002L3.25007 15.5002C3.60409 15.2347 4.0721 15.1762 4.4806 15.3463L4.4827 15.3471L4.49302 15.3514L4.538 15.3698C4.57848 15.3862 4.63943 15.4107 4.71817 15.4418C4.8758 15.5039 5.10402 15.5918 5.38165 15.6931C5.93977 15.8968 6.68441 16.1496 7.45004 16.3557C8.23065 16.5659 8.96585 16.7088 9.52609 16.7275C9.7562 16.7352 9.91312 16.7199 10.0096 16.7005C10.0625 16.5547 10.1269 16.2744 10.1604 15.7946C10.1963 15.2809 10.1902 14.7058 10.1835 14.0736C10.1823 13.9631 10.1811 13.851 10.1801 13.7371C10.1739 13.017 10.1751 12.2053 10.2849 11.5121C10.3813 10.9039 10.6254 9.91502 11.5106 9.41322C12.4271 8.89365 13.1427 8.86872 13.7206 8.84858C13.7513 8.84751 13.7815 8.84646 13.8114 8.84534C14.2915 8.82744 14.8185 8.8005 15.7331 8.43406C16.0055 8.28799 16.3638 8.19793 16.7661 8.29185C17.2088 8.3952 17.4883 8.67366 17.6357 8.85908C17.9149 9.21038 18.0659 9.66626 18.159 10.0068C18.3641 10.7568 18.4984 11.7855 18.5845 12.8094C18.6723 13.8525 18.716 14.965 18.7204 15.9186C18.7217 16.2034 18.7196 16.4837 18.7134 16.75Z" fill="#26272B"/>
</svg>
