<svg width="24" height="24" viewBox="0 0 24 24" fill="none" xmlns="http://www.w3.org/2000/svg">
<path fill-rule="evenodd" clip-rule="evenodd" d="M6.00011 3.75C6.00014 2.36931 7.11942 1.25003 8.50011 1.25C9.88084 1.24997 11.0001 2.36927 11.0001 3.75C11.0001 5.13069 9.8808 6.24997 8.50011 6.25C7.11938 6.25003 6.00008 5.13073 6.00011 3.75ZM14.3033 2.78732C14.973 2.95476 15.3802 3.63343 15.2128 4.30317C14.895 5.57425 13.9994 7.02661 12.8551 8.09942C12.2149 8.69961 11.4087 9.25927 10.498 9.56497C10.5248 9.74796 10.5421 9.93206 10.5527 10.1135C10.5675 10.3666 10.57 10.6345 10.5617 10.9144C10.5633 10.9132 10.5649 10.912 10.5665 10.9109C11.1082 10.5183 11.6127 10.1526 12.0363 9.87193C12.3539 9.6616 12.678 9.46336 12.9855 9.31967C13.2507 9.19579 13.7001 9.01454 14.2006 9.07014C14.4885 9.10214 14.7989 9.21353 15.0662 9.44848C15.3248 9.67586 15.4664 9.95131 15.5427 10.189C15.6815 10.621 15.6558 11.0877 15.607 11.4651C15.5457 11.9388 15.4084 12.5318 15.202 13.25H15.5001C16.1905 13.25 16.7501 13.8096 16.7501 14.5C16.7501 15.1904 16.1905 15.75 15.5001 15.75H17.2501V12C17.2501 11.3096 17.8098 10.75 18.5001 10.75H22.0001C22.6905 10.75 23.2501 11.3096 23.2501 12C23.2501 12.6904 22.6905 13.25 22.0001 13.25H19.7501V17C19.7501 17.6904 19.1905 18.25 18.5001 18.25H14.7501V22C14.7501 22.6904 14.1905 23.25 13.5001 23.25C12.8098 23.25 12.2501 22.6904 12.2501 22V17C12.2501 16.3096 12.8098 15.75 13.5001 15.75C13.0983 15.75 12.721 15.5568 12.4861 15.2309C12.2511 14.9049 12.1872 14.4859 12.3143 14.1047C12.5512 13.394 12.7307 12.8116 12.8614 12.339C12.6261 12.5058 12.3718 12.6902 12.0943 12.8914C11.8277 13.0847 11.5398 13.2935 11.2267 13.5171C10.854 13.7833 10.4842 14.0175 10.1195 14.2047C9.66961 16.3231 8.9098 18.7075 8.00834 20.7495C8.69492 20.7539 9.25013 21.3118 9.25013 21.9994C9.25013 22.6898 8.69049 23.2494 8.00013 23.2494H6.00013C5.55723 23.2494 5.1474 23.0151 4.92279 22.6334C4.69819 22.2516 4.69235 21.7796 4.90744 21.3924C5.94136 19.5313 6.90602 16.8922 7.49266 14.4806C7.3907 14.4329 7.29104 14.376 7.19458 14.309C6.78589 14.0252 6.53969 13.6346 6.39609 13.2612C6.1265 12.5603 6.14318 11.73 6.23713 11.0037C6.26741 10.7696 6.30813 10.5294 6.35771 10.2858C6.10801 10.428 5.85101 10.5918 5.59198 10.7731C4.42877 11.5874 3.43022 12.6075 3.04025 13.1926C2.65735 13.767 1.88128 13.9223 1.30684 13.5394C0.732397 13.1565 0.57712 12.3804 0.960017 11.806C1.57004 10.8908 2.8215 9.66085 4.15829 8.72506C4.83677 8.2501 5.58764 7.81484 6.34242 7.53175C7.07084 7.25855 7.93879 7.07583 8.78515 7.28169C9.45357 7.39661 10.2916 7.07587 11.1452 6.27558C12.0009 5.47339 12.6052 4.42575 12.7875 3.69683C12.9549 3.02709 13.6336 2.61989 14.3033 2.78732Z" fill="#26272B"/>
</svg>
