<svg width="24" height="24" viewBox="0 0 24 24" fill="none" xmlns="http://www.w3.org/2000/svg">
<g clip-path="url(#clip0_20070_3287)">
<path fill-rule="evenodd" clip-rule="evenodd" d="M16.25 0.5C14.8693 0.500029 13.75 1.61931 13.75 3C13.75 4.38073 14.8693 5.50003 16.25 5.5C17.6307 5.49997 18.75 4.38069 18.75 3C18.75 1.61927 17.6307 0.499971 16.25 0.5ZM8.62973 11.4545C10.0712 10.7224 11.6 10.0975 12.9251 9.69583C13.1771 9.61944 13.4167 9.55272 13.6425 9.49551C13.2356 11.1244 11.9767 12.8805 10.2411 14.6161C8.3201 16.5371 6.01879 18.2362 4.27346 19.4828C3.83128 19.7987 3.64381 20.364 3.80964 20.8815C3.90026 21.1642 4.08504 21.3973 4.32268 21.5506H2.0005C1.58628 21.5506 1.2505 21.8864 1.2505 22.3006C1.2505 22.7148 1.58628 23.0506 2.0005 23.0506H11.288C12.2745 23.0506 12.8036 22.521 13.1494 22.1749L13.1683 22.1559C13.4612 21.863 13.4612 21.3881 13.1683 21.0953C12.8754 20.8024 12.4006 20.8024 12.1077 21.0953C11.9291 21.2739 11.8228 21.375 11.7037 21.4465C11.6068 21.5047 11.4867 21.5506 11.288 21.5506H7.67761C8.02204 21.328 8.25001 20.9406 8.25001 20.5C8.25001 20.2449 8.17356 20.0076 8.04233 19.8098C9.34161 18.8113 10.7437 17.6491 12.0089 16.3839C12.674 15.7188 13.3241 15.0032 13.9086 14.2471C13.9388 14.2493 13.9693 14.2504 14 14.2504C15.2067 14.2504 16.235 14.1804 17.0252 14.1266L17.0252 14.1266C17.1687 14.1168 17.3043 14.1076 17.4317 14.0994L17.5129 14.0942C17.1756 14.6152 16.679 15.3162 15.9891 16.2648C15.7126 16.645 15.6728 17.1482 15.8861 17.5672C15.9882 17.7677 16.14 17.9327 16.3221 18.0502H11.713C11.2988 18.0502 10.963 18.386 10.963 18.8002C10.963 19.2144 11.2988 19.5502 11.713 19.5502H21.0005C21.987 19.5502 22.5161 19.0206 22.8618 18.6745L22.8808 18.6555C23.1737 18.3626 23.1737 17.8878 22.8808 17.5949C22.5879 17.302 22.1131 17.302 21.8202 17.5949C21.6416 17.7735 21.5353 17.8747 21.4162 17.9461C21.3193 18.0043 21.1992 18.0502 21.0005 18.0502H19.6782C20.0223 17.8275 20.25 17.4404 20.25 17C20.25 16.4409 19.8829 15.9675 19.3765 15.8077C19.68 15.3569 19.9218 14.9696 20.0962 14.641C20.2789 14.297 20.479 13.8561 20.5066 13.3918C20.522 13.1325 20.4869 12.8186 20.3244 12.5087C20.1588 12.193 19.9128 11.9802 19.6695 11.845C19.2472 11.6105 18.7682 11.5758 18.4592 11.5664C18.1196 11.556 17.725 11.5758 17.319 11.6015C17.3308 11.5716 17.3425 11.5415 17.3542 11.5112C17.5293 11.0559 17.7008 10.5138 17.7894 9.95257C17.8761 9.4034 17.8986 8.74284 17.6859 8.10438C17.4727 7.46455 16.9769 7.10387 16.5157 6.92755C16.082 6.76172 15.6082 6.72452 15.1828 6.73409C14.3214 6.75347 13.2739 6.97778 12.1999 7.30333C10.5508 7.80321 8.65227 8.60006 6.9173 9.52806L1.56056 3.50173C1.28538 3.19214 0.811322 3.16425 0.501735 3.43944C0.192148 3.71463 0.164263 4.18869 0.439451 4.49827L5.58522 10.2873C5.50191 10.338 5.41932 10.3889 5.33751 10.44C4.75209 10.8059 4.57412 11.5771 4.94001 12.1625C5.3059 12.7479 6.07709 12.9259 6.66251 12.56C6.86212 12.4353 7.06712 12.3117 7.27643 12.1899L7.99501 12.9983C8.2702 13.3079 8.74425 13.3357 9.05384 13.0606C9.36342 12.7854 9.39131 12.3113 9.11612 12.0017L8.62973 11.4545Z" fill="#26272B"/>
</g>
<defs>
<clipPath id="clip0_20070_3287">
<rect width="24" height="24" fill="white"/>
</clipPath>
</defs>
</svg>
