<svg width="24" height="24" viewBox="0 0 24 24" fill="none" xmlns="http://www.w3.org/2000/svg">
<path fill-rule="evenodd" clip-rule="evenodd" d="M14.7503 1C13.3696 1.00003 12.2503 2.11931 12.2503 3.5C12.2502 4.88073 13.3695 6.00003 14.7503 6C16.131 5.99997 17.2502 4.88069 17.2503 3.5C17.2503 2.11927 16.131 0.999971 14.7503 1ZM14.1711 9.87869C14.3391 9.97804 14.5086 10.0775 14.6805 10.1767C15.5374 10.6707 16.51 11.189 17.4736 11.3565C17.9816 11.4449 18.5316 11.4454 19.0852 11.2694C19.6453 11.0912 20.1294 10.7574 20.5367 10.2985C21.3121 9.42482 21.8356 8.06762 22.2225 6.26194C22.3672 5.58691 21.9372 4.92242 21.2622 4.77777C20.5871 4.63312 19.9227 5.06308 19.778 5.73811C19.4149 7.43243 19.0009 8.26273 18.6669 8.63904C18.5195 8.8051 18.406 8.86197 18.3275 8.88694C18.2423 8.91403 18.1126 8.93015 17.9019 8.89351C17.4279 8.81108 16.8068 8.51682 15.9292 8.01087C15.7094 7.88414 15.4737 7.74421 15.2259 7.59712L15.2258 7.59709L15.2258 7.59708C14.5648 7.2047 13.818 6.76142 13.0591 6.38198C11.8451 5.77502 10.7419 5.62762 9.79728 5.60963C9.40976 5.60225 9.03643 5.61698 8.71993 5.62947H8.71991L8.56012 5.63565C8.19151 5.64934 7.9182 5.65324 7.68112 5.63066C7.28648 5.59307 7.05278 5.49545 6.80011 5.17669C6.4745 4.76589 6.08584 3.93363 5.72251 2.23811C5.57786 1.56308 4.91338 1.13312 4.23835 1.27777C3.56332 1.42242 3.13336 2.0869 3.27801 2.76194C3.66468 4.56642 4.15097 5.85916 4.84093 6.72961C5.60383 7.6921 6.5263 8.03198 7.44409 8.11939C7.86323 8.15931 8.28521 8.14758 8.6529 8.13393L8.83191 8.12706H8.83192C9.1496 8.11467 9.44129 8.1033 9.74967 8.10917C9.8349 8.1108 9.92032 8.11376 10.0061 8.11843C8.93708 10.0577 8.06282 11.7107 7.43509 13.0232C7.08331 13.7588 6.79869 14.4085 6.5995 14.9542C6.4153 15.4587 6.25026 16.0127 6.25026 16.5C6.25026 16.8711 6.33283 17.4427 6.42352 17.9868C6.52045 18.5684 6.6484 19.2395 6.77453 19.8702C6.83566 20.1758 6.89675 20.4739 6.95422 20.75H6.50026C5.8099 20.75 5.25026 21.3097 5.25026 22C5.25026 22.6904 5.8099 23.25 6.50026 23.25H8.50026C8.87941 23.25 9.23807 23.0779 9.47531 22.7822C9.71256 22.4864 9.80274 22.099 9.72049 21.7289L9.72047 21.7288L9.72036 21.7283L9.71987 21.7261L9.71783 21.7168L9.70968 21.68L9.67842 21.5376C9.6514 21.4141 9.61272 21.2362 9.56626 21.0194C9.47327 20.5854 9.34952 19.9976 9.22598 19.3799C9.10212 18.7606 8.98007 18.1192 8.8895 17.5758C8.79269 16.9949 8.75026 16.629 8.75026 16.5L8.75029 16.503L8.75055 16.5008C8.75169 16.4899 8.75718 16.4374 8.78339 16.3309C8.81513 16.2019 8.86796 16.0305 8.94789 15.8115C9.10807 15.3728 9.35471 14.8038 9.69043 14.1018C9.79645 13.8802 9.91034 13.6473 10.0319 13.4035L10.0221 13.4537C9.70637 15.1121 10.0396 16.4691 11.0003 17.75C11.6457 18.6106 12.8152 19.907 13.7842 20.9506L13.798 20.9654C13.4671 21.1903 13.2497 21.5698 13.2497 22C13.2497 22.6904 13.8093 23.25 14.4997 23.25H16.5001C17.0023 23.25 17.4557 22.9495 17.6513 22.487C17.847 22.0245 17.7468 21.4898 17.3971 21.1295L17.397 21.1294L17.3967 21.129L17.395 21.1274L17.3883 21.1204L17.3613 21.0925L17.2562 20.9836C17.1648 20.8887 17.0325 20.751 16.8699 20.5807C16.5446 20.2399 16.0987 19.7692 15.6162 19.2495C14.6353 18.1931 13.5548 16.9894 13.0003 16.25C12.461 15.5309 12.294 14.888 12.478 13.9213C12.6615 12.9578 13.1914 11.7043 14.1711 9.87869Z" fill="#26272B"/>
</svg>
