<svg width="24" height="24" viewBox="0 0 24 24" fill="none" xmlns="http://www.w3.org/2000/svg">
<path fill-rule="evenodd" clip-rule="evenodd" d="M16 3.75C16 2.36926 17.1193 1.24997 18.5 1.25C19.8807 1.25003 21 2.36931 21 3.75C21 5.13072 19.8808 6.25003 18.5 6.25C17.1193 6.24997 16 5.1307 16 3.75ZM13.8453 10.0367C12.4655 10.7841 11.1185 11.9254 10.5 12.7501C10.0859 13.3024 9.30237 13.4144 8.75006 13.0002C8.19775 12.5861 8.08577 11.8026 8.49995 11.2503C9.3815 10.0747 11.0345 8.71604 12.6547 7.83846C13.4691 7.3973 14.3617 7.02969 15.2151 6.8976C16.0508 6.76825 17.1025 6.83482 17.8838 7.61605C18.0207 7.75293 18.1351 7.90038 18.2301 8.05531C18.9169 8.96133 19.6595 9.89172 20.3839 10.6161C20.7866 11.0188 21.15 11.3233 21.4629 11.5203C21.7895 11.7259 21.9592 11.75 22 11.75C22.6904 11.75 23.25 12.3096 23.25 13C23.25 13.6904 22.6904 14.25 22 14.25C21.2908 14.25 20.648 13.9616 20.1309 13.6359C19.6 13.3017 19.0884 12.8562 18.6161 12.3839C18.4964 12.2642 18.3771 12.1406 18.2584 12.0139C18.1257 12.4593 17.964 12.9193 17.7814 13.3857C18.2457 13.8168 18.5699 14.3619 18.8008 14.8878C19.1436 15.6686 19.3523 16.569 19.4854 17.4342C19.6624 18.5851 19.721 19.7839 19.7403 20.7496L20.5004 20.75C21.1908 20.7503 21.7502 21.3102 21.7499 22.0006C21.7495 22.6909 21.1896 23.2503 20.4993 23.25L18.4993 23.2491C17.8091 23.2488 17.2498 22.6892 17.2498 21.9991C17.2498 20.9892 17.2478 19.3311 17.0144 17.8143C16.9089 17.1282 16.763 16.522 16.574 16.0425C15.7817 17.601 14.8362 19.2075 13.8808 20.6764C13.9195 20.7024 13.9612 20.7236 13.9997 20.7383C14.0163 20.7446 14.0292 20.7485 14.0377 20.7507C14.7108 20.7707 15.2502 21.3227 15.25 22.0006C15.2497 22.691 14.6899 23.2504 13.9995 23.2502C13.4209 23.25 12.7778 22.9981 12.2818 22.6014C11.7462 22.173 11.25 21.4653 11.25 20.5006C11.25 20.2538 11.323 20.0126 11.4599 19.8073C12.6221 18.0639 13.7728 16.1071 14.647 14.3023C14.0852 13.8255 13.6358 13.1854 13.5664 12.2834C13.5126 11.5837 13.7083 10.8778 14.0264 10.178C14.0729 10.0757 14.1229 9.97157 14.1765 9.86555C14.0684 9.91865 13.9579 9.97572 13.8453 10.0367ZM0.75 12C0.75 11.3096 1.30964 10.75 2 10.75H5.5C6.19036 10.75 6.75 11.3096 6.75 12V15.75H9.5C10.1904 15.75 10.75 16.3096 10.75 17V22C10.75 22.6904 10.1904 23.25 9.5 23.25C8.80964 23.25 8.25 22.6904 8.25 22V18.25H5.5C4.80964 18.25 4.25 17.6904 4.25 17V13.25H2C1.30964 13.25 0.75 12.6904 0.75 12Z" fill="#26272B"/>
</svg>
