<svg width="24" height="24" viewBox="0 0 24 24" fill="none" xmlns="http://www.w3.org/2000/svg">
<path fill-rule="evenodd" clip-rule="evenodd" d="M10.73 9.3422C11.6425 7.6219 12.898 6.44846 13.5593 6.11783C13.6188 6.08808 13.6749 6.05423 13.7274 6.01679C14.0004 6.92264 14.2462 8.15228 14.4282 9.76227C13.3167 9.73369 12.2152 9.62811 11.2829 9.45655C11.0873 9.42054 10.9027 9.38227 10.73 9.3422ZM16.935 9.68664C16.6986 7.49371 16.3383 5.81013 15.8838 4.58591C15.6163 3.8653 15.2957 3.24747 14.9042 2.77276C14.5118 2.29701 13.9843 1.89205 13.3122 1.77672C12.7504 1.68031 12.2377 1.86353 11.8956 2.02773C11.5225 2.20687 11.155 2.46042 10.8145 2.73603C10.1298 3.29027 9.41951 4.04381 8.80485 4.83321C8.19231 5.61988 7.62843 6.50153 7.27418 7.32943C7.09772 7.74179 6.95237 8.1888 6.89917 8.63405C6.84728 9.06836 6.86874 9.62984 7.17945 10.1451C7.55685 10.7709 8.23463 11.1301 8.77155 11.3495C9.36606 11.5923 10.0798 11.7771 10.8304 11.9153C11.9828 12.1273 13.3187 12.2468 14.6375 12.2671C14.7103 13.5197 14.7503 14.9268 14.7503 16.5001C14.7503 17.1904 15.3099 17.7501 16.0003 17.7501C16.6907 17.7501 17.2503 17.1904 17.2503 16.5001C17.2503 14.9092 17.2104 13.4719 17.1365 12.1787C18.0862 12.0914 18.9862 11.9375 19.7312 11.6994C20.3888 11.4892 20.7516 10.7858 20.5414 10.1282C20.3313 9.47062 19.6278 9.10789 18.9702 9.31803C18.4476 9.48505 17.7462 9.61072 16.935 9.68664ZM4.25027 14.2501C4.2503 12.8694 5.36958 11.7501 6.75027 11.7501C8.131 11.75 9.2503 12.8693 9.25027 14.2501C9.25024 15.6307 8.13096 16.75 6.75027 16.7501C5.36954 16.7501 4.25024 15.6308 4.25027 14.2501ZM7.48222 21.9371C5.78313 22.3636 3.92315 22.5072 1.46944 21.3562C0.84443 21.063 0.575436 20.3187 0.868622 19.6937C1.16181 19.0686 1.90615 18.7997 2.53116 19.0928C4.3406 19.9416 5.58588 19.8355 6.87363 19.5123C7.17325 19.4371 7.50041 19.3395 7.85311 19.2342C8.99183 18.8944 10.3967 18.4751 12.0003 18.4751C13.6039 18.4751 15.0087 18.8943 16.1474 19.2341C16.5001 19.3393 16.8273 19.437 17.1269 19.5122C18.4147 19.8353 19.6601 19.9414 21.4695 19.0928C22.0946 18.7997 22.8389 19.0687 23.132 19.6938C23.4251 20.3188 23.1561 21.0631 22.5311 21.3562C20.0774 22.507 18.2175 22.3633 16.5184 21.937C16.028 21.8139 15.5873 21.6828 15.1686 21.5583C14.1189 21.2461 13.2079 20.9751 12.0003 20.9751C10.7928 20.9751 9.88175 21.2461 8.83214 21.5584C8.41343 21.6829 7.97267 21.814 7.48222 21.9371Z" fill="#26272B"/>
</svg>
