<svg width="24" height="24" viewBox="0 0 24 24" fill="none" xmlns="http://www.w3.org/2000/svg">
<path fill-rule="evenodd" clip-rule="evenodd" d="M7.45014 5.0794C7.83466 4.71379 8.44514 4.25 9.22222 4.25C9.93079 4.25 10.555 4.63664 10.9837 4.95799C11.4631 5.31737 11.9622 5.80219 12.4574 6.34108C13.452 7.42339 14.5597 8.86661 15.637 10.3458C16.4419 11.4511 17.2486 12.6026 17.9927 13.6647C18.2467 14.0274 18.4935 14.3796 18.7303 14.716C19.4791 15.7792 20.1107 16.6571 20.5836 17.25H22C22.6904 17.25 23.25 17.8096 23.25 18.5C23.25 19.1904 22.6904 19.75 22 19.75H20C19.6434 19.75 19.3038 19.5977 19.0666 19.3314C18.4779 18.6705 17.6522 17.5258 16.752 16.2487C16.3338 16.5634 15.8137 16.75 15.25 16.75C13.8693 16.75 12.75 15.6307 12.75 14.25C12.75 13.3799 13.1945 12.6137 13.8687 12.1659C13.7846 12.0494 13.7004 11.9333 13.6161 11.8176C13.4316 11.5642 13.2478 11.3143 13.0656 11.0693C12.3359 11.3424 11.5188 11.4715 10.5981 11.0717C10.0254 10.8231 9.49507 10.4047 8.95975 9.89203C8.62514 9.57156 8.26073 9.18652 7.85594 8.73476C7.3345 9.62898 6.78937 10.7123 6.25415 11.8585C5.55882 13.3477 4.90117 14.8972 4.35538 16.1982C4.28163 16.374 4.20931 16.5468 4.13874 16.7154C4.06185 16.8991 3.98705 17.0778 3.91477 17.25H4C4.69036 17.25 5.25 17.8096 5.25 18.5C5.25 19.1904 4.69036 19.75 4 19.75H2C1.56451 19.75 1.16041 19.5233 0.933349 19.1517C0.70629 18.7801 0.689007 18.3171 0.887729 17.9296C1.06145 17.5909 1.38381 16.8213 1.83394 15.7466C1.90299 15.5818 1.97504 15.4098 2.05003 15.2311C2.59712 13.927 3.27106 12.3382 3.98892 10.8008C4.70221 9.27322 5.48016 7.74966 6.24076 6.59306C6.61856 6.01855 7.02453 5.48409 7.45014 5.0794Z" fill="#26272B"/>
</svg>
