<svg width="24" height="24" viewBox="0 0 24 24" fill="none" xmlns="http://www.w3.org/2000/svg">
<path fill-rule="evenodd" clip-rule="evenodd" d="M13.5 4.25C13.5001 2.86931 14.6193 1.75003 16 1.75C17.3808 1.74997 18.5001 2.86927 18.5 4.25C18.5 5.63069 17.3807 6.74997 16 6.75C14.6193 6.75003 13.5 5.63073 13.5 4.25ZM12.2307 3.98614C12.5125 4.18926 12.6971 4.50049 12.7401 4.84519C12.8348 5.60322 13.1069 6.14093 13.4788 6.54948C13.8626 6.97122 14.4071 7.31366 15.1213 7.57821C15.9727 7.8936 16.9827 8.0697 18.0706 8.16178L20.6161 5.61623C21.1043 5.12808 21.8957 5.12808 22.3839 5.61623C22.872 6.10439 22.872 6.89584 22.3839 7.384L21.2597 8.5082C21.5575 8.73668 21.7495 9.09621 21.7495 9.50059C21.7495 10.1909 21.1899 10.7506 20.4995 10.7506C20.2539 10.7506 20.0036 10.7488 19.75 10.7444L19.75 15.9635C21.2065 16.4783 22.25 17.8673 22.25 19.5001C22.25 21.5711 20.571 23.2501 18.5 23.2501C16.9791 23.2501 15.6696 22.3447 15.0813 21.0435C15.015 21.0613 14.9467 21.0796 14.8764 21.0984C13.997 21.3335 12.8089 21.6473 11.5764 21.9614C10.3458 22.275 9.06257 22.5911 7.99561 22.8294C7.4629 22.9484 6.9742 23.0503 6.56802 23.1231C6.19211 23.1904 5.79742 23.2501 5.49998 23.2501C3.42889 23.2502 1.74996 21.5712 1.75 19.5001C1.75004 17.4291 3.42898 15.7502 5.50003 15.7501C5.72071 15.7501 5.9949 15.7829 6.27523 15.8274C6.31972 14.2425 6.4426 12.5935 6.78179 11.1184C6.78297 11.1132 6.78416 11.1081 6.78535 11.103C6.38522 10.8562 5.94911 10.4503 5.78756 9.80351C5.37923 8.16878 6.24308 6.7304 7.27438 5.7723C8.32995 4.79165 9.79372 4.06659 11.2547 3.77443C11.5953 3.70631 11.9489 3.78301 12.2307 3.98614ZM9.18524 11.8263C8.88965 13.1909 8.79477 14.7581 8.76434 16.347C9.65117 16.5547 10.6294 16.7975 11.5765 17.0388C12.809 17.353 13.9971 17.6668 14.8765 17.902C14.9468 17.9208 15.0151 17.9391 15.0813 17.9568C15.5001 17.0306 16.2843 16.3049 17.25 15.9635L17.25 10.5923C16.2095 10.4724 15.183 10.2671 14.2528 9.92253C13.2889 9.56545 12.3731 9.03954 11.6509 8.25516C11.0183 8.44948 10.5068 8.84271 10.0988 9.44729C10.5279 9.52232 11.002 9.61026 11.4497 9.7308C11.9086 9.85435 12.42 10.0323 12.8662 10.3222C13.3297 10.6233 13.7796 11.0849 13.9695 11.7665C14.1548 12.432 14.0368 13.1108 13.7735 13.7458C13.5115 14.3775 13.0703 15.0546 12.4672 15.7917C12.0301 16.326 11.2425 16.4048 10.7082 15.9676C10.1739 15.5304 10.0952 14.7429 10.5323 14.2086C11.0542 13.5708 11.3317 13.1074 11.4642 12.788C11.538 12.6101 11.5552 12.5061 11.5585 12.4577C11.5465 12.4479 11.5291 12.4348 11.5042 12.4186C11.3763 12.3355 11.1534 12.24 10.7997 12.1448C10.4541 12.0518 10.0591 11.9779 9.61559 11.9007C9.55168 11.8896 9.48634 11.8784 9.41998 11.8669C9.34293 11.8537 9.26449 11.8402 9.18524 11.8263ZM11.5813 12.4797C11.5811 12.4797 11.5798 12.4783 11.5778 12.4754C11.5804 12.4782 11.5814 12.4797 11.5813 12.4797ZM11.5587 12.4271C11.5584 12.4254 11.5584 12.4245 11.5584 12.4245ZM11.1108 19.5001C11.0603 19.4872 11.0097 19.4743 10.9591 19.4614C10.1933 19.2662 9.41426 19.072 8.68551 18.8975C8.51947 19.393 8.05144 19.7501 7.5 19.7501C6.80964 19.7501 6.25 19.1905 6.25 18.5001L6.25 18.4236C6.25 18.4025 6.25 18.3815 6.25 18.3604C6.20792 18.3526 6.16696 18.3451 6.12716 18.3379C5.94871 18.306 5.8017 18.2828 5.68636 18.268C5.62904 18.2607 5.58385 18.2559 5.54962 18.2531C5.51705 18.2504 5.50179 18.2502 5.50017 18.2501C5.50002 18.2501 5.49999 18.2501 5.50008 18.2501C4.8097 18.2501 4.25001 18.8098 4.25 19.5002C4.24999 20.1905 4.80959 20.7501 5.49993 20.7501C5.49887 20.7501 5.51379 20.75 5.54949 20.7471C5.58373 20.7443 5.62892 20.7396 5.68624 20.7322C5.80159 20.7174 5.94861 20.6943 6.12707 20.6623C6.48388 20.5983 6.93414 20.5049 7.45054 20.3896C8.48177 20.1592 9.73728 19.8502 10.9591 19.5388C11.0097 19.5259 11.0603 19.513 11.1108 19.5001ZM18.5001 18.2501C17.8097 18.2501 17.25 18.8098 17.25 19.5002C17.25 20.1905 17.8096 20.7501 18.4999 20.7501C19.1903 20.7501 19.75 20.1904 19.75 19.5C19.75 18.8097 19.1904 18.2501 18.5001 18.2501Z" fill="#26272B"/>
</svg>
