<svg width="24" height="24" viewBox="0 0 24 24" fill="none" xmlns="http://www.w3.org/2000/svg">
<path fill-rule="evenodd" clip-rule="evenodd" d="M3.14599 1.75C2.9531 1.30852 2.51258 1 2 1C1.30964 1 0.75 1.55964 0.75 2.25V3.75C0.75 4.44036 1.30964 5 2 5C2.51258 5 2.9531 4.69148 3.14599 4.25H3.27117C3.3394 5.41746 3.57384 6.41209 3.99358 7.2432C4.51356 8.27279 5.27989 8.97503 6.19092 9.43056C7.07337 9.8718 8.05795 10.0655 9.0205 10.1583C9.25472 10.1809 9.49309 10.198 9.73394 10.2108C9.64988 13.3522 9.23466 16.3169 8.4722 20.2499H7.49991C6.80956 20.2499 6.24991 20.8095 6.24991 21.4999C6.24991 22.1903 6.80956 22.7499 7.49991 22.7499H9.49991C10.0958 22.7499 10.6088 22.3293 10.7256 21.745C11.3269 18.7389 11.7537 16.2468 12 13.8493C12.2462 16.2467 12.673 18.7388 13.2742 21.745C13.391 22.3293 13.9041 22.7499 14.4999 22.7499H16.4999C17.1903 22.7499 17.7499 22.1903 17.7499 21.4999C17.7499 20.8095 17.1903 20.2499 16.4999 20.2499H15.5276C14.7652 16.3169 14.3501 13.3522 14.266 10.2108C14.5069 10.198 14.7452 10.1809 14.9795 10.1583C15.942 10.0655 16.9266 9.87181 17.809 9.43058C18.7201 8.97506 19.4864 8.27284 20.0064 7.24326C20.4262 6.41216 20.6606 5.41754 20.7288 4.2501H20.854C21.0469 4.69158 21.4874 5.0001 22 5.0001C22.6904 5.0001 23.25 4.44046 23.25 3.7501V2.2501C23.25 1.55975 22.6904 1.0001 22 1.0001C21.4874 1.0001 21.0469 1.30863 20.854 1.7501H18.146C17.9531 1.30863 17.5126 1.0001 17 1.0001C16.3096 1.0001 15.75 1.55975 15.75 2.2501V3.7501C15.75 4.44046 16.3096 5.0001 17 5.0001C17.5126 5.0001 17.9531 4.69158 18.146 4.2501H18.2234C18.1602 5.09297 17.9901 5.68995 17.7749 6.11622C17.5136 6.6335 17.155 6.96253 16.691 7.19451C16.1985 7.44079 15.558 7.59089 14.7393 7.6699C13.9198 7.74897 13.0141 7.75006 12 7.75006C10.9858 7.75006 10.0801 7.74897 9.26063 7.6699C8.44192 7.59089 7.80152 7.44078 7.30898 7.19451C6.84503 6.96252 6.48639 6.63349 6.22514 6.11619C6.00984 5.6899 5.83981 5.0929 5.77661 4.25H5.85401C6.0469 4.69148 6.48742 5 7 5C7.69036 5 8.25 4.44036 8.25 3.75V2.25C8.25 1.55964 7.69036 1 7 1C6.48742 1 6.0469 1.30852 5.85401 1.75H3.14599ZM9.49998 4.25C9.5 2.86931 10.6193 1.75003 12 1.75C13.3807 1.74997 14.5 2.86927 14.5 4.25C14.4999 5.63069 13.3807 6.74997 12 6.75C10.6192 6.75003 9.49995 5.63073 9.49998 4.25Z" fill="#26272B"/>
</svg>
