<svg width="24" height="24" viewBox="0 0 24 24" fill="none" xmlns="http://www.w3.org/2000/svg">
<path fill-rule="evenodd" clip-rule="evenodd" d="M1.07316 1.3256C1.72195 1.08967 2.43916 1.42437 2.67508 2.07316C3.12254 3.30368 3.6092 3.93788 4.05057 4.30569C4.4935 4.67479 4.99788 4.8675 5.67851 5.03766C5.85881 5.08274 6.05341 5.12524 6.25966 5.17029C7.57941 5.45854 9.37571 5.85087 10.9494 7.68685C11.0666 7.82352 11.1528 7.98387 11.2022 8.15694C11.3905 8.81588 11.6532 9.10612 11.8648 9.25154C12.0905 9.40675 12.4093 9.50034 12.8753 9.50034C13.0007 9.50034 13.1308 9.49357 13.2653 9.48086C12.8241 9.28782 12.5159 8.84748 12.5159 8.33515C12.5159 7.64479 13.0755 7.08515 13.7659 7.08515C13.6257 7.08515 15.7714 6.84268 17.064 8.46494L21.5676 6.82573C22.2163 6.58961 22.9336 6.92408 23.1697 7.5728C23.4058 8.22152 23.0714 8.93883 22.4226 9.17495L17.9149 10.8157C17.9329 11.6584 17.651 12.3707 17.3129 12.8972C17.0734 13.2702 16.8051 13.5551 16.5909 13.7495C16.4831 13.8473 16.3824 13.9283 16.2964 13.9909C16.2547 14.0212 16.2078 14.0537 16.1589 14.0839C16.1365 14.0977 16.098 14.1208 16.0504 14.1449C16.0281 14.1562 15.9844 14.1778 15.9277 14.1995C15.9274 14.1997 15.9268 14.1999 15.9259 14.2003C15.9044 14.2089 15.7187 14.2836 15.476 14.2836C14.7856 14.2836 14.226 13.724 14.226 13.0336C14.226 12.5732 14.4749 12.171 14.8455 11.9541C14.8611 11.9417 14.8834 11.9231 14.9106 11.8984C14.9729 11.8418 15.0472 11.7655 15.1193 11.6731C15.1078 11.676 15.0963 11.6789 15.0848 11.6818C14.4252 11.8467 13.6526 12.0003 12.8753 12.0003C12.0913 12.0003 11.2227 11.8439 10.4484 11.3116C10.3492 11.2435 10.2538 11.1706 10.1622 11.0933C9.97971 11.5105 9.78153 11.9584 9.5448 12.4494C10.5231 13.1055 11.3112 13.9783 11.7747 15.3074C12.2519 16.6755 12.3474 18.4305 12.1422 20.7503H12.7503C13.4406 20.7503 14.0003 21.31 14.0003 22.0003C14.0003 22.6907 13.4406 23.2503 12.7503 23.2503H10.7502C10.3917 23.2503 10.0504 23.0964 9.81312 22.8276C9.57584 22.5588 9.46541 22.201 9.50991 21.8452C9.88083 18.8795 9.78245 17.1866 9.41419 16.1307C9.19498 15.5022 8.86339 15.0518 8.34542 14.6617C7.41473 16.2034 6.07881 18.0956 3.98694 20.5958L4.55936 20.882C5.17683 21.1908 5.42711 21.9416 5.11837 22.5591C4.80964 23.1766 4.0588 23.4268 3.44132 23.1181L1.44132 22.1181C1.09596 21.9454 0.849794 21.6228 0.7744 21.2442C0.699007 20.8655 0.802855 20.4732 1.05574 20.1814C3.74391 17.0798 5.27929 14.9185 6.26235 13.2746C6.01802 13.0195 5.8183 12.7312 5.67264 12.4066C5.33525 11.6546 5.36811 10.8861 5.54017 10.2193C5.74978 9.40695 6.21073 8.5909 6.70553 7.85546C6.42115 7.7763 6.12259 7.70821 5.80448 7.63565C5.57156 7.58253 5.32816 7.52702 5.07217 7.46302C4.2528 7.25818 3.31968 6.95089 2.45011 6.22624C1.57898 5.5003 0.878137 4.447 0.325598 2.92752C0.0896741 2.27873 0.424369 1.56152 1.07316 1.3256ZM9.75034 4.25034C9.75037 2.86965 10.8696 1.75037 12.2503 1.75034C13.6311 1.75031 14.7504 2.86961 14.7503 4.25034C14.7503 5.63103 13.631 6.75031 12.2503 6.75034C10.8696 6.75037 9.75031 5.63107 9.75034 4.25034Z" fill="#26272B"/>
</svg>
