<svg width="24" height="24" viewBox="0 0 24 24" fill="none" xmlns="http://www.w3.org/2000/svg">
<path fill-rule="evenodd" clip-rule="evenodd" d="M9.07218 1.35707C8.717 0.765094 7.94917 0.573138 7.3572 0.928323C6.76522 1.28351 6.57326 2.05133 6.92845 2.64331C8.14175 4.66548 9.49665 6.5577 11.2315 7.98958C10.9168 8.15134 10.638 8.31011 10.3958 8.4673C10.0506 8.69135 9.72262 8.94836 9.46896 9.25276C9.20984 9.56372 8.97576 9.98996 8.9647 10.518C8.95853 10.8121 9.02283 11.0753 9.12326 11.3041C8.70348 11.5083 8.31298 11.6882 7.95045 11.8446C7.16347 12.184 6.54091 12.3978 6.05863 12.5105C5.61127 12.615 5.35829 12.6146 5.23853 12.5975C5.23507 12.5832 5.23145 12.5661 5.22795 12.5459C5.21289 12.4589 5.20306 12.3308 5.21023 12.1517C5.24094 11.3839 5.5534 10.168 6.17747 8.42061C6.29613 8.08836 6.26886 7.72143 6.10239 7.41037C5.93591 7.0993 5.64574 6.87308 5.30347 6.78751L3.30347 6.28751C2.63372 6.12007 1.95505 6.52728 1.78762 7.19702C1.62018 7.86676 2.02738 8.54543 2.69713 8.71287L3.38175 8.88402C2.99826 10.097 2.74747 11.1707 2.71223 12.0518C2.68832 12.6495 2.75546 13.3018 3.07297 13.8725C3.42365 14.5029 3.99731 14.8874 4.67222 15.0342C5.29003 15.1685 5.9626 15.1003 6.62737 14.945C7.30717 14.7861 8.07911 14.5117 8.94052 14.1402C9.61862 13.8477 10.3724 13.4862 11.2057 13.0557C11.6043 13.254 12.0449 13.4507 12.5079 13.6491C13.2966 13.9871 13.596 14.2722 13.6946 14.4201C13.7372 14.4839 13.7764 14.5455 13.6966 14.7717C13.5928 15.0657 13.3208 15.4954 12.7806 16.0868C12.2543 16.6628 11.55 17.3112 10.6868 18.0511C10.3318 18.3554 10.1763 18.8324 10.2837 19.2874C10.3912 19.7425 10.7436 20.0995 11.1972 20.2129L13.1976 20.7129C13.8674 20.8803 14.546 20.4731 14.7134 19.8033C14.8596 19.2186 14.5677 18.6271 14.0455 18.3749C14.2516 18.1713 14.4457 17.9706 14.6263 17.773C15.2422 17.0988 15.7828 16.3722 16.054 15.6037C16.3492 14.7674 16.3259 13.8602 15.7747 13.0334C15.3592 12.41 14.7108 11.9383 13.9448 11.5592C14.4839 11.2518 15.0474 10.9241 15.6359 10.5763C15.7582 10.5041 15.8636 10.4143 15.9509 10.3121C17.7679 10.7124 19.8416 10.7067 22.2455 10.2259C22.9224 10.0905 23.3614 9.43199 23.226 8.75504C23.0907 8.07809 22.4321 7.63907 21.7552 7.77446C18.2446 8.47658 15.8246 7.987 13.9559 6.86582C12.038 5.71509 10.5426 3.80781 9.07218 1.35707ZM17.2503 1.75019C15.8696 1.75016 14.7503 2.86945 14.7503 4.25019C14.7503 5.63089 15.8696 6.75016 17.2503 6.75019C18.6311 6.75022 19.7503 5.63091 19.7503 4.25019C19.7503 2.8695 18.631 1.75022 17.2503 1.75019ZM3.19441 3.77574C2.79431 3.66854 2.38306 3.90597 2.27585 4.30607C2.16864 4.70617 2.40608 5.11743 2.80618 5.22463L6.18692 6.1305C6.58702 6.23771 6.99827 6.00027 7.10548 5.60017C7.21269 5.20007 6.97525 4.78882 6.57515 4.68161L3.19441 3.77574ZM10.1944 20.7757C9.79431 20.6685 9.38306 20.906 9.27585 21.3061C9.16864 21.7062 9.40608 22.1174 9.80618 22.2246L13.1869 23.1305C13.587 23.2377 13.9983 23.0003 14.1055 22.6002C14.2127 22.2001 13.9752 21.7888 13.5752 21.6816L10.1944 20.7757Z" fill="#26272B"/>
</svg>
