<svg width="24" height="24" viewBox="0 0 24 24" fill="none" xmlns="http://www.w3.org/2000/svg">
<path fill-rule="evenodd" clip-rule="evenodd" d="M15.9794 8.74978C16.4289 8.74279 16.8671 8.97922 17.0973 9.4013C17.4279 10.0074 17.2045 10.7667 16.5985 11.0972C13.6491 12.706 11.3479 12.9944 9.44932 12.6657C8.87786 12.5668 8.33633 12.4038 7.84134 12.2185C7.81895 12.6494 7.86285 13.1205 7.97024 13.6037C8.16423 14.4767 8.51419 15.1627 8.78175 15.5H16.6852C17.145 15.5 17.361 16.0683 17.0174 16.3737L14.5482 18.5685C15.1263 18.7038 15.6612 18.8633 16.1474 19.0085L16.1475 19.0085L16.1475 19.0085L16.1477 19.0085C16.5003 19.1137 16.8274 19.2113 17.1269 19.2865C17.8159 19.4594 18.4927 19.5702 19.2503 19.5058V4.45943C17.8317 4.94882 16.5561 6.31442 15.9794 8.74978ZM13.2584 9.85762C13.801 4.98811 16.6325 1.75 20.5003 1.75C21.1907 1.75 21.7503 2.30964 21.7503 3L21.7503 3.00221V18.7738C22.3031 18.6605 22.8819 18.9347 23.132 19.4681C23.4251 20.0931 23.1561 20.8375 22.5311 21.1306C20.0774 22.2813 18.2175 22.1377 16.5184 21.7113C16.028 21.5883 15.5873 21.4572 15.1686 21.3326C14.1189 21.0204 13.2079 20.7495 12.0003 20.7495C10.7928 20.7495 9.88175 21.0205 8.83214 21.3327L8.83212 21.3327C8.41342 21.4573 7.97266 21.5884 7.48223 21.7115C5.78313 22.1379 3.92315 22.2816 1.46944 21.1305C0.84443 20.8374 0.575436 20.093 0.868622 19.468C1.16181 18.843 1.90615 18.574 2.53116 18.8672C3.35245 19.2525 4.0575 19.441 4.70306 19.5018C1.99218 17.6451 1.71441 15.5816 3.86977 15.5024C3.57496 14.3561 3.3937 13.0792 3.40004 11.9959C3.40444 11.2442 3.4968 10.3637 3.88163 9.69359C4.09125 9.32861 4.43939 8.93925 4.98197 8.75578C5.5263 8.57172 6.05739 8.66544 6.4903 8.85003C6.86879 9.01142 7.20436 9.17923 7.52818 9.34117C8.25303 9.70366 8.91902 10.0367 9.87578 10.2024C10.734 10.3509 11.8254 10.3379 13.2584 9.85762ZM6.25032 2.25C4.86963 2.25003 3.75035 3.36931 3.75032 4.75C3.75029 6.13073 4.86959 7.25003 6.25032 7.25C7.63102 7.24997 8.75029 6.13069 8.75032 4.75C8.75035 3.36927 7.63105 2.24997 6.25032 2.25Z" fill="#26272B"/>
</svg>
