<svg width="24" height="24" viewBox="0 0 24 24" fill="none" xmlns="http://www.w3.org/2000/svg">
<path fill-rule="evenodd" clip-rule="evenodd" d="M12.2502 0.75C10.8696 0.750029 9.75028 1.86931 9.75025 3.25C9.75022 4.63073 10.8695 5.75003 12.2502 5.75C13.6309 5.74997 14.7502 4.63069 14.7502 3.25C14.7503 1.86927 13.631 0.749971 12.2502 0.75ZM4.41198 3.89705C5.02111 3.57216 5.77828 3.80258 6.10317 4.41171C6.59619 5.33606 7.03681 6.09739 7.46098 6.69751C7.88949 7.30377 8.25474 7.67758 8.57243 7.88815C8.85913 8.07818 9.10485 8.1362 9.37857 8.10777C9.67898 8.07658 10.1144 7.92889 10.7284 7.51354C11.1478 7.1603 11.6539 7.06669 12.001 7.03985C12.4126 7.00802 12.8555 7.05164 13.2801 7.12467C14.136 7.27188 15.1452 7.58003 16.1439 7.94319C18.1476 8.67178 20.3235 9.70149 21.5614 10.4162C22.1592 10.7614 22.3641 11.5259 22.0189 12.1237C21.6737 12.7216 20.9092 12.9264 20.3114 12.5813C19.211 11.9459 17.1691 10.9761 15.2896 10.2927C15.1461 10.2405 15.0047 10.1904 14.866 10.1427C14.907 10.2596 14.9478 10.377 14.9882 10.4953C15.2181 11.1703 15.4855 12.0133 15.435 12.7706C15.4067 13.195 15.2764 13.671 14.9288 14.0845C14.6138 14.4593 14.2049 14.6821 13.7853 14.8091C14.5089 16.8609 15.4897 19.1839 16.6183 21.4411C16.8121 21.8286 16.7914 22.2888 16.5636 22.6573C16.3359 23.0258 15.9335 23.2501 15.5003 23.2501H13.5003C12.8099 23.2501 12.2503 22.6905 12.2503 22.0001C12.2503 21.3098 12.8099 20.7501 13.5003 20.7501H13.5136C12.5749 18.714 11.7669 16.682 11.1637 14.8713C10.8806 14.8335 10.5847 14.7858 10.2766 14.7298C8.96179 14.4907 8.16002 14.3958 7.68143 14.4141C7.68472 14.4352 7.68847 14.4577 7.69274 14.4817C7.73837 14.7375 7.82726 15.0728 7.96642 15.5166C8.12317 16.0165 8.31538 16.5697 8.54186 17.2215L8.54188 17.2215L8.54189 17.2216L8.54195 17.2217C8.73262 17.7705 8.94757 18.3891 9.18609 19.1047C9.31316 19.4859 9.24923 19.9049 9.01429 20.2309C8.77935 20.5568 8.40204 20.75 8.00024 20.75H6.00025C5.30989 20.75 4.75025 20.1903 4.75025 19.5C4.75025 18.8096 5.30989 18.25 6.00025 18.25H6.25235L6.20124 18.1026C5.95858 17.4029 5.74232 16.7792 5.58094 16.2646C5.43104 15.7865 5.30508 15.3327 5.23158 14.9206C5.16042 14.5217 5.11911 14.0628 5.21549 13.6131C5.32302 13.1113 5.59796 12.649 6.07691 12.3333C6.50572 12.0506 6.99341 11.9558 7.41793 11.9251C8.17838 11.8701 9.18235 11.9986 10.3879 12.2101C10.241 11.6014 10.1304 11.0348 10.0638 10.5264C9.92201 10.5567 9.77968 10.5796 9.63677 10.5944C8.72464 10.6891 7.90676 10.4462 7.19126 9.97198C6.50675 9.51829 5.9312 8.86449 5.41946 8.14049C4.90339 7.41035 4.4043 6.53876 3.89732 5.58824C3.57243 4.97911 3.80285 4.22194 4.41198 3.89705Z" fill="#26272B"/>
</svg>
