<svg width="24" height="24" viewBox="0 0 24 24" fill="none" xmlns="http://www.w3.org/2000/svg">
<g clip-path="url(#clip0_20070_3290)">
<path fill-rule="evenodd" clip-rule="evenodd" d="M6.87097 0.816931C7.01264 0.427698 7.44302 0.227007 7.83225 0.368677L22.3939 5.66869C23.5616 6.0937 24.1637 7.38484 23.7387 8.55254C23.597 8.94177 23.1666 9.14246 22.7774 9.0008C22.3882 8.85913 22.1875 8.42875 22.3291 8.03951C22.4708 7.65028 22.2701 7.2199 21.8809 7.07823L18.5851 5.87867C18.7681 6.19847 18.8086 6.59576 18.6611 6.96444C18.5823 7.16157 18.4589 7.32757 18.3071 7.45547L18.8929 7.66869C20.0606 8.0937 20.6627 9.38484 20.2377 10.5525C20.096 10.9418 19.6656 11.1425 19.2764 11.0008C18.8872 10.8591 18.6865 10.4287 18.8282 10.0395C18.9698 9.65028 18.7691 9.2199 18.3799 9.07823L15.5417 8.0452C15.4729 8.26904 15.3988 8.50913 15.3193 8.76507C14.7942 10.4551 14.0349 12.8367 13.0413 15.7985C15.38 16.755 17.2629 18.6405 19.0404 21.3067C19.4233 21.8811 19.2681 22.6572 18.6937 23.0402C18.1193 23.4231 17.3432 23.2679 16.9603 22.6935C15.0397 19.8126 13.2633 18.3417 11.1922 17.8151C9.07165 17.2758 6.37146 17.6529 2.43925 19.1275C1.79285 19.3699 1.07233 19.0424 0.829929 18.396C0.587526 17.7496 0.91503 17.0291 1.56143 16.7867C4.39167 15.7254 6.85018 15.1114 9.05399 15.0826C9.23985 14.5878 9.27611 13.9524 9.14306 13.1707C8.983 12.2303 8.59859 11.2084 8.12557 10.2328C7.65655 9.26548 7.12454 8.39252 6.70651 7.75801C6.49843 7.44217 6.32083 7.1888 6.19665 7.01623C6.13462 6.93002 6.08607 6.86418 6.05389 6.82102L6.01831 6.77365L6.01044 6.7633L6.00956 6.76214L6.00928 6.76177C5.66617 6.31539 5.66381 5.69469 6.00358 5.2457C6.16717 5.02953 6.39062 4.87886 6.63672 4.80406L3.81825 3.77822C3.42901 3.63655 3.22832 3.20616 3.36999 2.81693C3.51166 2.4277 3.94204 2.22701 4.33128 2.36868L13.6241 5.75098C13.6766 5.57434 13.7173 5.43605 13.7461 5.33736L13.7863 5.19967L13.7961 5.16575L13.7984 5.15761L13.7989 5.15576L13.799 5.1554L13.7991 5.15535C13.8966 4.81563 14.1333 4.53306 14.4508 4.3776L14.4551 4.37547L7.31922 1.77822C6.92999 1.63655 6.7293 1.20616 6.87097 0.816931ZM10.4563 6.19428C10.7437 6.5359 10.8383 7.02077 10.6609 7.46424C10.5171 7.82371 10.2252 8.07963 9.88345 8.18988C10.0494 8.49321 10.215 8.81204 10.3751 9.14216C10.8514 10.1245 11.298 11.2478 11.5382 12.3871C12.1119 10.6337 12.5765 9.16725 12.9318 8.02337C13.0252 7.72276 13.1111 7.44443 13.1894 7.18902L10.4563 6.19428ZM10.0003 18.7061C8.61962 18.7061 7.50034 19.8253 7.50034 21.2061C7.50034 22.5868 8.61962 23.7061 10.0003 23.7061C11.381 23.7061 12.5003 22.5868 12.5003 21.2061C12.5003 19.8253 11.381 18.7061 10.0003 18.7061Z" fill="#26272B"/>
</g>
<defs>
<clipPath id="clip0_20070_3290">
<rect width="24" height="24" fill="white"/>
</clipPath>
</defs>
</svg>
