<svg width="24" height="24" viewBox="0 0 24 24" fill="none" xmlns="http://www.w3.org/2000/svg">
<g clip-path="url(#clip0_20070_3280)">
<path fill-rule="evenodd" clip-rule="evenodd" d="M5.88297 5.74344C6.6529 7.36202 7.66166 8.79683 8.82541 9.90517C9.0682 10.1364 9.32022 10.3556 9.58055 10.5604C8.22497 10.6257 6.9259 10.5104 5.74514 10.2743C5.0682 10.1389 4.40966 10.5779 4.27427 11.2549C4.13888 11.9318 4.57791 12.5903 5.25486 12.7257C7.15082 13.1049 9.31867 13.2172 11.5703 12.8688C11.9673 13.4907 12.387 14.0887 12.8259 14.6631C10.9705 16.4317 8.59187 17.828 6.38027 18.7071C4.46664 17.102 3.25 14.6931 3.25 12C3.25 9.54827 4.25835 7.33205 5.88297 5.74344ZM7.94657 4.24349C9.15837 3.60892 10.5373 3.25 12 3.25C16.8325 3.25 20.75 7.16751 20.75 12C20.75 14.0219 20.0642 15.8837 18.9125 17.3654C17.945 16.5738 17.0113 15.6965 16.1373 14.7338C16.268 14.5671 16.3947 14.398 16.5172 14.2265C16.8723 13.7293 16.816 13.0482 16.3839 12.6161C16.2565 12.4888 16.0734 12.234 15.8353 11.8173C15.6058 11.4157 15.3718 10.9485 15.118 10.441C14.9063 10.0175 14.4735 9.75 14 9.75C12.9226 9.75 11.7155 9.20527 10.5496 8.09483C9.53757 7.13103 8.6238 5.79961 7.94657 4.24349ZM20.9192 18.8573C22.3808 16.959 23.25 14.581 23.25 12C23.25 5.7868 18.2132 0.75 12 0.75C5.7868 0.75 0.75 5.7868 0.75 12C0.75 15.0507 1.96426 17.8177 3.93583 19.8442C3.75817 20.1327 3.69769 20.492 3.7981 20.8434C3.98775 21.5072 4.67961 21.8916 5.3434 21.7019C5.55302 21.642 5.76619 21.577 5.98235 21.507C7.7226 22.6108 9.78666 23.25 12 23.25C14.7187 23.25 17.2122 22.2856 19.157 20.6803C19.8927 21.1923 20.6366 21.6606 21.3798 22.0853C21.9792 22.4278 22.7428 22.2196 23.0853 21.6202C23.4278 21.0208 23.2196 20.2572 22.6202 19.9147C22.0512 19.5895 21.4827 19.237 20.9192 18.8573ZM17.1002 19.1107C15.6643 20.1424 13.9031 20.75 12 20.75C10.97 20.75 9.98155 20.572 9.06376 20.2452C10.9381 19.3185 12.8334 18.0834 14.4377 16.5797C15.2844 17.4972 16.1784 18.3407 17.1002 19.1107ZM11.5 6.75C11.5 5.36927 12.6193 4.24997 14 4.25C15.3807 4.25003 16.5 5.36931 16.5 6.75C16.5 8.13073 15.3807 9.25003 14 9.25C12.6193 9.24997 11.5 8.13069 11.5 6.75Z" fill="#26272B"/>
</g>
<defs>
<clipPath id="clip0_20070_3280">
<rect width="24" height="24" fill="white"/>
</clipPath>
</defs>
</svg>
