<svg width="24" height="24" viewBox="0 0 24 24" fill="none" xmlns="http://www.w3.org/2000/svg">
<g clip-path="url(#clip0_20070_3269)">
<path fill-rule="evenodd" clip-rule="evenodd" d="M8.50029 3.25C8.50032 1.86931 9.6196 0.750029 11.0003 0.75C12.381 0.749971 13.5003 1.86927 13.5003 3.25C13.5003 4.63069 12.381 5.74997 11.0003 5.75C9.61956 5.75003 8.50026 4.63073 8.50029 3.25ZM5.96455 5.3394C6.60553 5.5958 6.9173 6.32326 6.66091 6.96424L5.66091 9.46424C5.40452 10.1052 4.67706 10.417 4.03608 10.1606C3.3951 9.9042 3.08333 9.17674 3.33972 8.53576L4.33972 6.03576C4.59611 5.39478 5.32357 5.08301 5.96455 5.3394ZM8.71349 6.28343C9.07421 6.19829 9.45411 6.27761 9.75063 6.49999C10.5589 7.10617 11.2956 7.34786 12.1122 7.33918C12.9778 7.32997 14.0383 7.03823 15.4704 6.36789C15.7935 6.21666 16.1658 6.21067 16.4936 6.35143C16.8213 6.49219 17.0734 6.76629 17.1862 7.10472L20.0634 15.7363L21.6689 15.2947C22.3345 15.1117 23.0225 15.5029 23.2056 16.1686C23.3886 16.8342 22.9974 17.5222 22.3318 17.7053L2.33176 23.2053C1.66612 23.3883 0.978111 22.9971 0.795058 22.3314C0.612006 21.6658 1.00322 20.9778 1.66887 20.7947L5.04828 19.8654C4.81741 19.7759 4.61299 19.6178 4.46707 19.4035C4.17228 18.9705 4.1787 18.3997 4.48315 17.9735C5.75512 16.1927 6.75767 14.2145 7.48759 12.3995C7.01898 11.9801 6.75048 11.432 6.69309 10.8006C6.63837 10.1986 6.78057 9.58014 6.98232 8.99253C7.18911 8.39023 7.49961 7.70685 7.88265 6.94091C8.04843 6.60941 8.35276 6.36858 8.71349 6.28343ZM9.78908 13.3769C9.30617 14.5727 8.71617 15.8278 8.01838 17.0624C8.35268 17.2149 8.61695 17.5127 8.71299 17.8968C8.80341 18.2585 8.72625 18.6228 8.53067 18.9077L11.1284 18.1934C10.9383 18.1341 10.762 18.0294 10.6165 17.8839C10.306 17.5734 10.1812 17.1228 10.2877 16.6969C10.5271 15.7392 10.629 15.0576 10.6414 14.5699C10.6536 14.0847 10.5748 13.872 10.528 13.7861C10.4682 13.6765 10.3485 13.5533 9.78908 13.3769ZM14.4849 17.2703L17.6494 16.4001L15.2426 9.17979C14.1611 9.58779 13.1357 9.82844 12.1388 9.83904C11.746 9.84322 11.366 9.81166 10.9967 9.74526C10.8942 10.1462 10.7733 10.5724 10.6342 11.0183C11.4049 11.2712 12.2348 11.6944 12.7227 12.5889C13.0508 13.1905 13.1595 13.8841 13.1406 14.6332C13.1351 14.8486 13.1189 15.0751 13.0924 15.3135L13.1972 15.2873C13.867 15.1199 14.5456 15.5271 14.7131 16.1968C14.8102 16.5856 14.7138 16.9773 14.4849 17.2703ZM23.1976 20.1408C23.396 20.8021 23.0207 21.4989 22.3595 21.6973L17.3595 23.1973C16.6983 23.3957 16.0014 23.0204 15.803 22.3592C15.6047 21.6979 15.9799 21.0011 16.6411 20.8027L21.6411 19.3027C22.3024 19.1043 22.9992 19.4796 23.1976 20.1408Z" fill="#26272B"/>
</g>
<defs>
<clipPath id="clip0_20070_3269">
<rect width="24" height="24" fill="white"/>
</clipPath>
</defs>
</svg>
