<svg width="24" height="24" viewBox="0 0 24 24" fill="none" xmlns="http://www.w3.org/2000/svg">
<path fill-rule="evenodd" clip-rule="evenodd" d="M8.4992 3.25C8.49923 1.86931 9.61851 0.750029 10.9992 0.75C12.3799 0.749971 13.4992 1.86927 13.4992 3.25C13.4992 4.63069 12.3799 5.74997 10.9992 5.75C9.61846 5.75003 8.49917 4.63073 8.4992 3.25ZM13.7701 9.02412C14.9052 9.06483 15.832 9.37911 16.5791 9.78346C15.7269 9.91445 14.8039 10.0862 13.8337 10.2961C13.8095 9.87687 13.7881 9.4525 13.7701 9.02412ZM20.2497 9.48343C19.0938 8.33663 16.1953 5.67597 11.228 6.78016C6.20615 7.89646 3.96299 11.2773 2.88116 13.441C2.78679 13.6297 2.74465 13.831 2.74927 14.0282C2.37014 14.2392 2.03393 14.4513 1.75384 14.6622C1.48301 14.8662 1.20139 15.1155 0.991983 15.4128C0.791765 15.6971 0.52738 16.2191 0.696641 16.8508C0.865901 17.4824 1.35586 17.8023 1.67138 17.9484C2.00137 18.1011 2.36993 18.1762 2.70646 18.2175C3.39203 18.3014 4.26855 18.2804 5.23989 18.1901C6.14753 18.1057 7.19085 17.9555 8.32519 17.7447C8.01477 18.5876 7.6287 19.4825 7.1504 20.4237L5.69603 20.7873C5.02628 20.9548 4.61908 21.6334 4.78652 22.3032C4.95395 22.9729 5.63262 23.3801 6.30237 23.2127L8.30237 22.7127C8.64525 22.627 8.93582 22.4001 9.10214 22.0882C10.0567 20.2985 10.7153 18.6368 11.162 17.1344C11.4207 17.0717 11.6818 17.0065 11.9449 16.939C11.9983 17.3596 12.052 17.761 12.1049 18.1411C12.2789 19.3909 12.4452 20.4125 12.5683 21.1235C12.6299 21.479 12.6807 21.7571 12.7164 21.9475C12.7342 22.0426 12.7482 22.1159 12.7579 22.1659L12.7692 22.2234L12.7722 22.2388L12.7733 22.2444C12.7734 22.2446 12.7735 22.2451 13.9992 22L12.7733 22.2444C12.8902 22.8287 13.4033 23.25 13.9992 23.25H15.9992C16.6896 23.25 17.2492 22.6904 17.2492 22C17.2492 21.3096 16.6896 20.75 15.9992 20.75H15.0409C15.0378 20.7325 15.0347 20.7148 15.0316 20.6969C14.9126 20.0094 14.7507 19.0153 14.581 17.7964C14.5143 17.3172 14.4464 16.8037 14.3795 16.2608C16.4308 15.6429 18.2529 14.9708 19.6481 14.3295C20.5344 13.922 21.304 13.5019 21.8557 13.0864C22.1266 12.8825 22.4082 12.6331 22.6176 12.3358C22.8178 12.0516 23.0822 11.5296 22.9129 10.8979C22.7437 10.2662 22.2537 9.94636 21.9382 9.80031C21.6082 9.64755 21.2396 9.57243 20.9031 9.53122C20.7011 9.50647 20.4825 9.49085 20.2497 9.48343ZM18.6321 12.045C18.6227 12.0493 18.6133 12.0536 18.6038 12.058C17.4308 12.5973 15.8809 13.1792 14.1009 13.7318C14.0718 13.4314 14.0437 13.1258 14.0167 12.8155C15.7734 12.4232 17.3515 12.164 18.6011 12.0478C18.6115 12.0469 18.6218 12.0459 18.6321 12.045ZM9.52377 11.4002C8.44674 11.7185 7.42908 12.0525 6.49854 12.3904C7.20877 11.5247 8.15202 10.6805 9.42898 10.041C9.43 10.0485 9.43102 10.056 9.43204 10.0636C9.47676 10.3991 9.51716 10.8481 9.52377 11.4002ZM9.30918 14.0792C9.25879 14.385 9.1979 14.7039 9.12486 15.0354C7.55585 15.3708 6.14603 15.5951 5.00847 15.7009C4.9981 15.7018 4.98776 15.7028 4.97746 15.7037C4.98685 15.6994 4.99628 15.695 5.00575 15.6907C6.13477 15.1717 7.61286 14.6131 9.30918 14.0792Z" fill="#26272B"/>
</svg>
