<svg width="24" height="24" viewBox="0 0 24 24" fill="none" xmlns="http://www.w3.org/2000/svg">
<path fill-rule="evenodd" clip-rule="evenodd" d="M9.50003 3.25C9.50005 1.86931 10.6193 0.750029 12 0.75C13.3808 0.749971 14.5001 1.86927 14.5 3.25C14.5 4.63069 13.3807 5.74997 12 5.75C10.6193 5.75003 9.5 4.63073 9.50003 3.25ZM5.2543 12.7983C5.99452 11.4414 7.40704 9.74824 9.75 9.06119V12C9.75 13.0629 9.4273 14.0081 8.80506 14.648C8.4109 15.0533 8.10312 15.3007 7.94116 15.3817C7.32364 15.6903 7.07324 16.4411 7.38188 17.0586C7.69052 17.6762 8.44132 17.9266 9.05884 17.6179C9.62906 17.3329 10.1875 16.8123 10.5973 16.3909C11.2541 15.7155 11.6899 14.9134 11.9482 14.0721L12.1331 19.2491C12.0889 19.2497 12.0445 19.25 12 19.25C9.96855 19.25 8.2981 18.6254 7.14525 17.5336C6.05337 16.4995 5.3167 14.9437 5.2543 12.7983ZM14.2711 9.0674C16.6014 9.75839 18.0077 11.4455 18.7457 12.7983C18.6833 14.9437 17.9466 16.4995 16.8548 17.5336C16.2464 18.1097 15.494 18.5558 14.6204 18.8486L14.2711 9.0674ZM14.7124 21.4246C16.1785 21.0541 17.5002 20.3655 18.5738 19.3488C20.2891 17.7243 21.25 15.3763 21.25 12.5C21.25 12.3059 21.2048 12.1146 21.118 11.941C20.0017 9.70823 17.226 6.25 12 6.25C6.77404 6.25 3.99834 9.70823 2.88197 11.941C2.79518 12.1146 2.75 12.3059 2.75 12.5C2.75 15.3763 3.71089 17.7243 5.42618 19.3488C7.13048 20.9628 9.46002 21.75 12 21.75C12.0743 21.75 12.1484 21.7493 12.2223 21.748L12.2508 22.5446C12.2754 23.2345 12.8547 23.7738 13.5446 23.7492C14.2345 23.7246 14.7738 23.1453 14.7492 22.4554L14.7124 21.4246Z" fill="#26272B"/>
</svg>
