<svg width="24" height="24" viewBox="0 0 24 24" fill="none" xmlns="http://www.w3.org/2000/svg">
<g clip-path="url(#clip0_20070_3264)">
<path fill-rule="evenodd" clip-rule="evenodd" d="M9.95625 0.0139064C10.6728 -0.230233 11.3802 -0.0898718 11.9567 0.242953C12.5332 0.575778 13.0084 1.11823 13.1553 1.86088C13.2965 2.57504 13.0941 3.27297 12.7468 3.87452C12.5723 4.17668 12.3448 4.42236 12.1013 4.62174C13.2309 5.3761 14.4459 6.34935 15.3503 7.5277C15.9951 8.36787 16.517 9.35702 16.7055 10.4835C16.7621 10.8221 16.7874 11.1662 16.7791 11.5145C17.7293 12.1095 18.6119 12.6785 19.3049 13.2164C19.9719 13.7342 20.6996 14.3944 20.9893 15.2048C21.1557 15.67 21.1827 16.1964 20.9761 16.7195C20.7817 17.2118 20.4273 17.582 20.0525 17.8617C19.4974 18.276 18.7194 18.6219 17.7545 18.9329C18.6954 18.8858 19.7479 18.8261 20.9214 18.7528C21.5588 18.7129 22.1144 19.1581 22.2281 19.7705C22.6269 19.8451 22.9817 20.1121 23.1511 20.5139C23.4193 21.15 23.1211 21.8831 22.485 22.1513C21.7634 22.4556 19.2388 23.2503 12.4993 23.2503C5.7554 23.2503 3.23627 22.4507 2.52098 22.1543C1.8832 21.8901 1.58037 21.1589 1.8446 20.5211C2.10883 19.8833 2.84006 19.5805 3.47785 19.8447C3.71621 19.9435 5.26209 20.5124 9.63175 20.6944C9.62792 20.6882 9.62413 20.682 9.62036 20.6758C9.29914 20.142 9.42877 19.5905 9.63693 19.2555C9.80196 18.9898 10.024 18.827 10.1411 18.7478C10.4004 18.5725 10.7287 18.4291 11.026 18.3133C11.345 18.1891 11.7203 18.0622 12.1248 17.9352C13.0941 17.6307 14.3323 17.2943 15.5568 16.9616C15.7624 16.9058 15.9676 16.85 16.1711 16.7946C16.452 16.718 16.7053 16.6432 16.9332 16.5706C16.6849 16.3454 16.3836 16.1091 16.0769 15.886C15.7777 15.6685 15.489 15.4747 15.2655 15.3297C14.749 15.9101 14.1378 16.3406 13.4603 16.6331C12.3846 17.0976 11.2172 17.1831 10.1169 17.0799C8.29284 16.9089 6.455 16.2007 5.05825 15.4858C5.14368 16.0347 5.2017 16.943 4.74697 17.7306C4.39966 18.3321 3.89646 18.8564 3.20736 19.0912C2.49078 19.3353 1.78337 19.195 1.20691 18.8621C0.630437 18.5293 0.155175 17.9869 0.00831636 17.2442C-0.13291 16.5301 0.0695342 15.8321 0.416842 15.2306C0.899344 14.3949 1.78808 13.9912 2.29663 13.8041C2.4668 13.7415 2.62853 13.6913 2.77195 13.6514L8.22659 4.20369C8.18939 4.05956 8.15208 3.89436 8.1212 3.71569C8.02892 3.18175 7.93414 2.21024 8.41664 1.37452C8.76395 0.772968 9.26715 0.248684 9.95625 0.0139064ZM9.95076 6.21734L5.957 13.1347C7.20637 13.8027 8.84383 14.4496 10.3503 14.5908C11.1785 14.6685 11.8941 14.5863 12.4693 14.338C13.0181 14.101 13.5102 13.6838 13.8815 12.9411C14.2693 12.1656 14.3397 11.4933 14.2397 10.896C14.1367 10.2803 13.8382 9.66376 13.367 9.04978C12.5021 7.92275 11.1766 6.9586 9.95076 6.21734ZM8.49952 11.2501C8.49954 9.86938 9.61881 8.75009 10.9995 8.75006C12.3802 8.75004 13.4995 9.86932 13.4995 11.2501C13.4995 12.6308 12.3802 13.75 10.9995 13.7501C9.61878 13.7501 8.49949 12.6308 8.49952 11.2501Z" fill="#26272B"/>
</g>
<defs>
<clipPath id="clip0_20070_3264">
<rect width="24" height="24" fill="white"/>
</clipPath>
</defs>
</svg>
