<svg width="24" height="24" viewBox="0 0 24 24" fill="none" xmlns="http://www.w3.org/2000/svg">
<path fill-rule="evenodd" clip-rule="evenodd" d="M11.5002 4.25C11.5002 2.86926 12.6195 1.74997 14.0003 1.75C15.3809 1.75003 16.5002 2.86931 16.5002 4.25C16.5003 5.63072 15.381 6.75003 14.0003 6.75C12.6196 6.74997 11.5003 5.6307 11.5002 4.25ZM3.11253 3.11995C3.59858 2.6297 4.39003 2.6263 4.88028 3.11235C8.99274 7.1896 14.6551 9.1943 21.7551 7.7743C22.432 7.63891 23.0905 8.07793 23.2259 8.75488C23.3613 9.43183 22.9223 10.0904 22.2454 10.2258C19.4843 10.778 16.893 10.8631 14.4887 10.5407C14.3464 11.047 14.2126 11.6214 14.1049 12.2354C15.1263 12.6665 16.0425 13.0207 17.0343 13.1799C18.2778 13.3795 19.6697 13.2675 21.4411 12.3816C22.0586 12.0728 22.8094 12.3231 23.1182 12.9405C23.427 13.558 23.1768 14.3088 22.5593 14.6176C20.3307 15.7321 18.4101 15.9328 16.638 15.6483C15.6534 15.4902 14.7238 15.1798 13.8562 14.8371C13.8539 15.0986 13.8592 15.3602 13.8733 15.6204C13.9886 17.7554 14.6648 19.5042 16.1628 20.4403C16.7483 20.8062 16.9263 21.5773 16.5605 22.1628C16.1946 22.7482 15.4234 22.9263 14.838 22.5604C12.3354 20.9965 11.5115 18.2453 11.3769 15.7553C11.3657 15.5484 11.3591 15.3413 11.3567 15.1346C11.1983 15.4702 11.033 15.8025 10.861 16.1358C10.4416 16.9483 9.97838 17.7734 9.48606 18.6503C9.37662 18.8452 9.26575 19.0427 9.1536 19.2431C8.53225 20.3538 7.85555 21.5844 7.11824 23.059C6.8095 23.6765 6.05866 23.9268 5.44119 23.6181C4.82372 23.3093 4.57344 22.5585 4.88217 21.941C5.64486 20.4156 6.34316 19.1463 6.97181 18.0225C7.08892 17.8132 7.20307 17.6099 7.31444 17.4115C7.80535 16.537 8.24213 15.759 8.63943 14.9892C8.94792 14.3915 9.23015 13.8034 9.48687 13.1929C8.99449 13.0803 8.49271 13.0085 7.96764 12.9915C6.54453 12.9455 4.83562 13.3025 2.62644 14.5814C2.02896 14.9272 1.26424 14.7232 0.918386 14.1258C0.572529 13.5283 0.776506 12.7636 1.37398 12.4177C3.91479 10.9469 6.08088 10.4292 8.0484 10.4928C8.8522 10.5188 9.60337 10.6418 10.3089 10.8198C10.4141 10.4381 10.5123 10.0389 10.6034 9.61717C7.76504 8.62703 5.25799 7.00725 3.12013 4.8877C2.62988 4.40165 2.62648 3.6102 3.11253 3.11995Z" fill="#26272B"/>
</svg>
