<svg width="24" height="24" viewBox="0 0 24 24" fill="none" xmlns="http://www.w3.org/2000/svg">
<path fill-rule="evenodd" clip-rule="evenodd" d="M9.5 4.25C9.5 2.86929 10.6193 1.75 12 1.75C13.3807 1.75 14.5 2.86929 14.5 4.25C14.5 5.63071 13.3807 6.75 12 6.75C10.6193 6.75 9.5 5.63071 9.5 4.25ZM9.75 14.8552V11.0157C9.46291 11.2992 9.11902 11.6208 8.71607 11.9333C7.46381 12.9045 5.69807 13.75 3 13.75C2.30964 13.75 1.75 13.1904 1.75 12.5C1.75 11.8096 2.30964 11.25 3 11.25C5.10193 11.25 6.33619 10.6153 7.18393 9.95779C7.61303 9.62499 7.95663 9.27653 8.30681 8.92141C8.3225 8.90549 8.33821 8.88956 8.35394 8.87362C8.36679 8.86059 8.37988 8.8473 8.39322 8.83377C8.7021 8.52019 9.14027 8.07536 9.64545 7.82529C11.1949 7.0583 12.8051 7.0581 14.3547 7.82553C14.8598 8.07564 15.2979 8.52038 15.6067 8.83395C15.6201 8.8475 15.6332 8.86081 15.6461 8.87385C15.6617 8.88972 15.6774 8.90558 15.693 8.92142C16.0432 9.2766 16.3869 9.6251 16.816 9.95793C17.6638 10.6154 18.898 11.25 21 11.25C21.6904 11.25 22.25 11.8096 22.25 12.5C22.25 13.1904 21.6904 13.75 21 13.75C18.302 13.75 16.5362 12.9046 15.284 11.9335C14.8809 11.6209 14.537 11.2994 14.2499 11.0158L14.2496 14.8552C15.2232 14.6177 16.3015 14.4145 17.2706 14.3154C18.0272 14.2381 18.8211 14.2124 19.4702 14.3335C19.7889 14.3929 20.1914 14.5081 20.5411 14.7674C20.943 15.0653 21.25 15.5434 21.25 16.1536C21.25 16.5697 21.0832 16.8959 20.9455 17.1C20.8035 17.3106 20.6295 17.4851 20.4696 17.6244C20.1497 17.9032 19.7374 18.1681 19.3024 18.4139C18.4212 18.9117 17.2391 19.4458 15.9741 19.9644C15.877 20.0041 15.7792 20.0439 15.6808 20.0837C15.9244 20.1632 16.1579 20.2385 16.3791 20.3089C17.0369 20.5182 17.4005 21.2212 17.1911 21.8791C16.9818 22.5369 16.2788 22.9005 15.6209 22.6911C14.6067 22.3684 13.3359 21.9446 12 21.4706C10.6641 21.9446 9.39334 22.3684 8.37906 22.6911C7.72121 22.9005 7.01821 22.5369 6.80886 21.8791C6.59951 21.2212 6.96309 20.5182 7.62094 20.3089C7.84213 20.2385 8.07558 20.1632 8.31921 20.0837C8.22079 20.0439 8.12299 20.0041 8.02592 19.9644C6.76089 19.4458 5.57875 18.9117 4.69761 18.4139C4.26264 18.1681 3.85027 17.9032 3.53039 17.6244C3.37052 17.4851 3.1965 17.3106 3.05449 17.1C2.91684 16.8959 2.75 16.5697 2.75 16.1536C2.75 15.5434 3.057 15.0653 3.45886 14.7674C3.80856 14.5081 4.21113 14.3929 4.5298 14.3335C5.17887 14.2124 5.97275 14.2381 6.72945 14.3154C7.69833 14.4144 8.77656 14.6176 9.75 14.8552ZM12 18.8142C13.0268 18.4406 14.0651 18.0449 15.0259 17.6511C15.6525 17.3943 16.236 17.1423 16.7561 16.9015C15.5911 17.0794 14.3318 17.3863 13.4483 17.6763C12.5207 17.9807 11.4793 17.9807 10.5517 17.6763C9.66816 17.3863 8.40892 17.0794 7.24392 16.9015C7.76396 17.1423 8.34752 17.3943 8.97408 17.6511C9.93485 18.0449 10.9732 18.4406 12 18.8142Z" fill="#26272B"/>
</svg>
