<svg width="24" height="24" viewBox="0 0 24 24" fill="none" xmlns="http://www.w3.org/2000/svg">
<path fill-rule="evenodd" clip-rule="evenodd" d="M17.7504 7.25C17.7504 5.86931 18.8697 4.75003 20.2504 4.75C21.6311 4.74997 22.7504 5.86927 22.7504 7.25C22.7503 8.63069 21.6311 9.74997 20.2504 9.75C18.8696 9.75003 17.7503 8.63073 17.7504 7.25ZM14.9184 8.20575C15.1837 8.19063 15.5702 8.19149 15.9373 8.32857C16.4049 8.50315 16.7141 8.87017 16.8743 9.07674C17.0683 9.32672 17.2531 9.6273 17.425 9.92874C17.4392 9.95361 17.4535 9.9789 17.468 10.0046C17.4737 10.0145 17.4792 10.0244 17.4847 10.0344C17.6775 10.3787 17.8941 10.793 18.1199 11.2249C18.2718 11.5156 18.4279 11.8142 18.5838 12.1049C19.4641 13.7467 20.5051 15.4604 21.8007 16.5403C22.331 16.9823 22.4025 17.7705 21.9605 18.3008C21.5185 18.8311 20.7303 18.9027 20.2 18.4607C18.4956 17.04 17.2624 14.931 16.3805 13.2863C16.1907 12.9323 16.0221 12.6093 15.8676 12.3132C15.8589 12.2967 15.8503 12.2802 15.8418 12.2638C15.2442 12.5519 14.6263 12.866 13.9939 13.1979C14.306 13.3301 14.6035 13.4648 14.8603 13.5989C15.1504 13.7503 15.509 13.9605 15.7827 14.2415C15.9237 14.3863 16.1095 14.6172 16.2094 14.9385C16.3218 15.3003 16.2991 15.6979 16.1186 16.059C15.8841 16.5279 15.4516 16.9722 15.0957 17.3044C14.9187 17.4696 14.7287 17.6357 14.5347 17.7981C14.671 17.9983 14.7506 18.2401 14.7506 18.5005C14.7506 19.1908 14.1909 19.7505 13.5006 19.7505H11.5006C10.9498 19.7505 10.4639 19.39 10.3042 18.8628C10.1446 18.3356 10.3488 17.7661 10.8071 17.4605L10.8131 17.4565L10.8356 17.4413C10.8558 17.4277 10.8863 17.4071 10.9258 17.3801C11.0047 17.3263 11.1191 17.2475 11.2583 17.1496C11.5377 16.9532 11.913 16.6829 12.3008 16.3845C12.6366 16.1261 12.9697 15.856 13.2538 15.6012C12.896 15.4428 12.4664 15.273 11.9884 15.0841C11.9233 15.0584 11.8573 15.0323 11.7904 15.0059C11.5802 14.9226 11.3606 14.8353 11.1396 14.7444C10.8472 14.9059 10.5538 15.0685 10.2597 15.2315C10.0438 15.3511 9.82764 15.4708 9.61131 15.5905C7.09658 16.9817 4.54345 18.3714 2.44409 19.1686C1.7987 19.4137 1.07683 19.0891 0.831756 18.4438C0.586678 17.7984 0.911196 17.0765 1.55659 16.8314C3.45722 16.1097 5.84747 14.8157 8.40111 13.403C8.48411 13.357 8.56728 13.311 8.65059 13.2649C8.35748 12.9106 8.0442 12.2746 8.33982 11.5355C8.49847 11.1389 8.76996 10.8295 9.00877 10.6061C9.25949 10.3715 9.55227 10.16 9.8509 9.97277C10.4487 9.59796 11.1699 9.2582 11.8774 8.98281C12.587 8.70657 13.3261 8.47828 13.9729 8.34157C14.295 8.27347 14.6187 8.22282 14.9184 8.20575Z" fill="#26272B"/>
</svg>
