<svg width="24" height="24" viewBox="0 0 24 24" fill="none" xmlns="http://www.w3.org/2000/svg">
<g clip-path="url(#clip0_20070_3279)">
<path fill-rule="evenodd" clip-rule="evenodd" d="M5.25 2C5.25 1.30964 4.69036 0.75 4 0.75C3.30964 0.75 2.75 1.30964 2.75 2V3.49908C1.57552 3.98886 0.75 5.14802 0.75 6.5C0.75 8.22701 2.09704 9.6394 3.79777 9.74381C5.67999 10.2951 7.68993 10.6449 9.73421 10.7932C9.64586 12.9271 9.18855 14.3306 8.40384 15.4846C7.49133 16.8265 6.05403 17.9617 3.80662 19.4599C3.23221 19.8429 3.077 20.619 3.45994 21.1934C3.84288 21.7678 4.61896 21.923 5.19338 21.5401C7.44597 20.0383 9.25867 18.6735 10.4712 16.8904C11.0754 16.0017 11.5118 15.0397 11.8011 13.9528C11.794 14.4261 11.7789 14.9217 11.7519 15.4343C11.6291 17.7669 11.2631 20.179 10.3821 21.941C10.0734 22.5585 10.3237 23.3093 10.9412 23.618C11.5586 23.9268 12.3095 23.6765 12.6182 23.059C13.7372 20.821 14.1212 17.9831 14.2484 15.5657C14.3424 13.7804 14.2982 12.0762 14.2689 10.9496V10.9496L14.2648 10.7932C16.3095 10.645 18.3197 10.2952 20.2022 9.74381C21.903 9.6394 23.25 8.22701 23.25 6.5C23.25 5.14802 22.4245 3.98886 21.25 3.49908V2C21.25 1.30964 20.6904 0.75 20 0.75C19.3096 0.75 18.75 1.30964 18.75 2V3.49908C17.5755 3.98886 16.75 5.14802 16.75 6.5C16.75 7.00875 16.8669 7.49019 17.0753 7.91894C13.7828 8.52702 10.2172 8.52702 6.92471 7.91894C7.1331 7.49019 7.25 7.00875 7.25 6.5C7.25 5.14802 6.42448 3.98886 5.25 3.49908V2ZM3.98217 7.24979C3.57619 7.24032 3.25 6.90825 3.25 6.5C3.25 6.08579 3.58579 5.75 4 5.75C4.41421 5.75 4.75 6.08579 4.75 6.5C4.75 6.90838 4.42361 7.24052 4.01746 7.2498C4.00568 7.24963 3.99391 7.24963 3.98217 7.24979ZM20.75 6.5C20.75 6.90825 20.4238 7.24032 20.0178 7.24979C20.0061 7.24963 19.9943 7.24963 19.9825 7.2498C19.5764 7.24052 19.25 6.90838 19.25 6.5C19.25 6.08579 19.5858 5.75 20 5.75C20.4142 5.75 20.75 6.08579 20.75 6.5ZM12 2.25C13.3807 2.25003 14.4999 3.36931 14.5 4.75C14.5 6.13072 13.3807 7.25003 12 7.25C10.6193 7.24997 9.5 6.1307 9.49997 4.75C9.49994 3.36926 10.6193 2.24997 12 2.25Z" fill="#26272B"/>
</g>
<defs>
<clipPath id="clip0_20070_3279">
<rect width="24" height="24" fill="white"/>
</clipPath>
</defs>
</svg>
