<svg width="24" height="24" viewBox="0 0 24 24" fill="none" xmlns="http://www.w3.org/2000/svg">
<path fill-rule="evenodd" clip-rule="evenodd" d="M18.25 6.75C18.25 5.36929 19.3693 4.25 20.75 4.25C22.1307 4.25 23.25 5.36929 23.25 6.75C23.25 8.13071 22.1307 9.25 20.75 9.25C19.3693 9.25 18.25 8.13071 18.25 6.75ZM16.9376 7.71743C17.5893 8.24898 17.8941 9.03338 18.0525 9.71917C18.3577 11.041 18.2838 12.7625 18.1525 14.2538C18.0852 15.0185 17.9977 15.7682 17.9208 16.427L17.9201 16.4335C17.9074 16.5419 17.8951 16.6473 17.8833 16.7497H18.2591C18.9495 16.7497 19.5091 17.3093 19.5091 17.9997C19.5091 18.69 18.9495 19.2497 18.2591 19.2497H16.5002C16.1535 19.2497 15.8224 19.1057 15.5859 18.8521C15.3495 18.5986 15.229 18.2582 15.2532 17.9123C15.2873 17.4255 15.3589 16.812 15.4339 16.1698L15.4369 16.1437C15.5145 15.4787 15.5982 14.761 15.6622 14.0345C15.7291 13.2737 15.7696 12.5477 15.7661 11.9002C14.6081 12.402 13.6794 12.6708 12.9366 12.7462C12.3987 12.8009 11.8566 12.7653 11.3756 12.5506C11.3227 12.527 11.2713 12.5015 11.2214 12.4742L3.36076 15.7836C3.40793 15.9327 3.46478 16.0506 3.52022 16.1368C3.55915 16.1974 3.59029 16.234 3.61142 16.2552C4.24958 16.3115 4.75 16.8475 4.75 17.5003C4.75 18.1906 4.19036 18.7503 3.5 18.7503C2.54581 18.7503 1.83068 18.1318 1.41728 17.4887C0.985939 16.8177 0.75 15.949 0.75 15.0003C0.75 14.4973 1.05143 14.0434 1.51496 13.8482L10.2052 10.1895C10.2856 9.74689 10.5051 9.34716 10.8405 9.00183C11.494 8.32883 12.6516 7.80175 14.4162 7.29754C15.3036 7.04397 16.2083 7.12259 16.9376 7.71743ZM3.64265 16.2805C3.64253 16.2809 3.63892 16.2791 3.63214 16.2738C3.63938 16.2774 3.64276 16.28 3.64265 16.2805Z" fill="#26272B"/>
</svg>
