<svg width="24" height="24" viewBox="0 0 24 24" fill="none" xmlns="http://www.w3.org/2000/svg">
<path fill-rule="evenodd" clip-rule="evenodd" d="M16.2501 1.75C14.8694 1.75003 13.7502 2.86931 13.7501 4.25C13.7501 5.63073 14.8694 6.75003 16.2501 6.75C17.6308 6.74997 18.7501 5.6307 18.7501 4.25C18.7502 2.86926 17.6308 1.74997 16.2501 1.75ZM13.281 7.02356C12.9003 6.71899 12.3773 6.66354 11.9412 6.8815C11.537 7.0835 10.8731 7.58239 10.25 8.13362C9.6042 8.7049 8.85817 9.45903 8.33509 10.2437C8.07458 10.6345 7.82853 11.0929 7.70426 11.5853C7.57734 12.0882 7.55804 12.7185 7.89283 13.3191C8.04348 13.5894 8.24141 13.8097 8.468 13.9884C6.42303 16.6305 4.24342 18.7308 1.94111 19.882C1.42259 20.1412 1.15037 20.723 1.28356 21.2872C1.41675 21.8514 1.9204 22.25 2.50012 22.25H5.00012C5.69048 22.25 6.25012 21.6904 6.25012 21C6.25012 20.7024 6.1461 20.429 5.97243 20.2144C7.79787 18.7389 9.48368 16.8405 11.0343 14.7399C11.1855 14.7465 11.3408 14.7496 11.5003 14.7496C12.9499 14.7496 13.5823 14.9749 13.804 15.131C13.8467 15.161 13.8614 15.1801 13.8637 15.1831C13.8645 15.1841 13.8647 15.1844 13.8649 15.1847C13.865 15.185 13.8651 15.1854 13.8654 15.1865C13.8676 15.1934 13.8893 15.2727 13.8439 15.4726C13.7449 15.9079 13.4149 16.5532 12.8017 17.4162C12.2073 18.2528 11.4295 19.1823 10.5596 20.1765C10.2366 20.5456 10.1594 21.0695 10.362 21.5161C10.5647 21.9628 11.0098 22.2496 11.5003 22.2496H13.5003C14.1907 22.2496 14.7503 21.69 14.7503 20.9996C14.7503 20.514 14.4734 20.093 14.0688 19.8861C14.3435 19.5395 14.6025 19.1979 14.8396 18.8642C15.492 17.9461 16.0682 16.9663 16.2817 16.0266C16.3925 15.539 16.4221 14.9933 16.2543 14.4495C16.0802 13.8851 15.725 13.4261 15.2435 13.087C14.6004 12.6341 13.7383 12.398 12.7226 12.3022C13.0693 11.771 13.4084 11.233 13.7399 10.6913C15.1766 11.8995 16.7123 12.9662 19.6968 13.7127C20.3666 13.8802 21.0453 13.473 21.2128 12.8033C21.3803 12.1336 20.9731 11.4549 20.3034 11.2874C17.4273 10.5681 16.364 9.64995 14.7616 8.26623C14.3242 7.88851 13.8466 7.4761 13.281 7.02356ZM18.5001 15.25C18.0859 15.25 17.7501 15.5858 17.7501 16C17.7501 16.4142 18.0859 16.75 18.5001 16.75H20.5001C20.6382 16.75 20.7501 16.8619 20.7501 17V18.25H18.5001C17.5336 18.25 16.7501 19.0335 16.7501 20C16.7501 20.9665 17.5336 21.75 18.5001 21.75H22.0001C22.9666 21.75 23.7501 20.9665 23.7501 20C23.7501 19.1184 23.0982 18.389 22.2501 18.2677V17C22.2501 16.0335 21.4666 15.25 20.5001 15.25H18.5001Z" fill="#26272B"/>
</svg>
