<svg width="24" height="24" viewBox="0 0 24 24" fill="none" xmlns="http://www.w3.org/2000/svg">
<path fill-rule="evenodd" clip-rule="evenodd" d="M13 3.75C13 2.36931 14.1193 1.25003 15.5 1.25C16.8807 1.24997 18 2.36927 18 3.75C18 5.13069 16.8807 6.24997 15.5 6.25C14.1193 6.25003 13 5.13073 13 3.75ZM9.64806 8.46834C8.14283 8.37567 6.165 8.88413 4.43425 10.8311C3.97558 11.3471 3.18549 11.3935 2.66953 10.9348C2.15356 10.4762 2.10712 9.68608 2.56578 9.17012C4.83502 6.6174 7.57368 5.83589 9.80169 5.97306C10.8991 6.04062 11.9002 6.33265 12.6695 6.7718C13.3462 7.15804 14.2036 7.87903 14.2489 8.94722C14.2497 8.96563 14.2501 8.98391 14.2503 9.00205C14.2512 9.01149 14.2556 9.04623 14.2764 9.1075C14.3026 9.18474 14.3495 9.28792 14.4266 9.41092C14.5815 9.65827 14.835 9.94855 15.198 10.2268C15.8063 10.6932 16.6927 11.1027 17.8445 11.2178C18.1563 10.7906 18.5037 10.4172 18.8646 10.1332C19.1298 9.92446 19.4549 9.72246 19.8236 9.61253C20.1959 9.50157 20.7279 9.45611 21.241 9.75234C21.7542 10.0486 21.9809 10.532 22.0709 10.9099C22.1601 11.2842 22.1477 11.6668 22.0996 12.0008C22.0023 12.6763 21.719 13.4246 21.3146 14.1249C20.9103 14.8252 20.4039 15.4447 19.8675 15.8667C19.6023 16.0754 19.2772 16.2775 18.9085 16.3874C18.5363 16.4983 18.0043 16.5438 17.4911 16.2476C16.9779 15.9513 16.7513 15.4679 16.6612 15.09C16.572 14.7157 16.5844 14.3332 16.6326 13.9991C16.6527 13.8593 16.6808 13.7163 16.7163 13.5714C15.4959 13.3189 14.4715 12.82 13.677 12.2109C13.4984 12.074 13.3304 11.9307 13.1738 11.7825C12.9563 12.1709 12.7059 12.5899 12.4246 13.0299C12.8022 13.3263 13.1825 13.6341 13.4848 13.9363C14.0078 14.4591 14.5036 15.1531 14.5602 16.1139C14.6137 17.0214 14.2583 17.9281 13.6821 18.8655C13.3964 19.3304 13.034 19.8381 12.5903 20.3983C12.9825 20.6093 13.2491 21.0235 13.2491 21.5C13.2491 22.1904 12.6895 22.75 11.9991 22.75H10C9.50524 22.75 9.05703 22.4582 8.85687 22.0057C8.65671 21.5532 8.74227 21.0253 9.07509 20.6592C10.3081 19.3028 11.0901 18.3083 11.5523 17.5564C12.0229 16.7906 12.0737 16.4161 12.0646 16.2611C12.0586 16.1594 12.0228 16.0097 11.7174 15.7044C11.5167 15.5037 11.2826 15.3129 10.9866 15.0803C9.66957 16.8021 7.9636 18.6534 5.94128 20.1736L6.3839 20.6162C6.87205 21.1044 6.87205 21.8958 6.3839 22.384C5.89574 22.8722 5.10429 22.8722 4.61613 22.384L3.11613 20.884C2.84803 20.6159 2.71611 20.2406 2.75748 19.8637C2.79884 19.4868 3.00903 19.1491 3.3289 18.9456C5.66229 17.4606 7.65015 15.3562 9.12781 13.3943C8.95625 13.1627 8.8165 12.9185 8.7187 12.6577C8.41671 11.8524 8.59595 11.135 8.88083 10.5657C9.08718 10.1533 9.40558 9.71618 9.68675 9.3302C9.74073 9.2561 9.79334 9.18388 9.84353 9.11408C9.97496 8.93127 10.1088 8.74106 10.2424 8.53904C10.0564 8.50572 9.8578 8.48125 9.64806 8.46834Z" fill="#26272B"/>
</svg>
