<svg width="24" height="24" viewBox="0 0 24 24" fill="none" xmlns="http://www.w3.org/2000/svg">
<path fill-rule="evenodd" clip-rule="evenodd" d="M18.733 1.2947C18.6195 0.613733 17.9755 0.153709 17.2945 0.267203C16.7986 0.349854 16.4199 0.713876 16.2945 1.16862L11.9788 2.86658C11.5655 2.05562 10.7226 1.5002 9.75 1.50022C8.36931 1.50025 7.25003 2.61953 7.25 4.00022C7.25 4.23922 7.28353 4.47039 7.34615 4.68927L1.9756 6.80228C1.59452 6.95221 1.40415 7.3801 1.54794 7.76354L2.29794 9.76354C2.44338 10.1514 2.87569 10.3479 3.26353 10.2024C3.65137 10.057 3.84788 9.6247 3.70244 9.23686L3.21158 7.92791L8.20284 5.96413C8.62845 6.29988 9.16583 6.50023 9.75 6.50022C11.0004 6.5002 12.0365 5.58214 12.2208 4.38329L16.3836 2.74549C16.437 3.7666 16.2884 4.71874 15.8204 5.4541C15.2551 6.34246 13.9973 7.2502 11 7.2502C10.5438 7.2502 10.1238 7.49875 9.90424 7.89868C9.6847 8.29861 9.70049 8.78639 9.94542 9.17129C10.5268 10.0849 10.6926 10.7978 10.8624 11.5282C10.909 11.7285 10.9559 11.9302 11.0117 12.1378C11.1357 12.5982 11.3431 13.2159 11.8737 13.7069C12.0313 13.8527 12.2023 13.9739 12.3843 14.0744C11.8768 16.1708 10.5803 18.6263 8.45994 21.8068C8.20422 22.1904 8.18038 22.6836 8.39791 23.09C8.61543 23.4965 9.03901 23.7502 9.5 23.7502H11.5C12.1904 23.7502 12.75 23.1905 12.75 22.5002C12.75 21.9031 12.3314 21.4039 11.7717 21.2798C13.1392 19.0635 14.159 17.0348 14.6991 15.1039C15.0451 15.5515 15.3694 16.2098 15.6169 17.0212C16.1249 18.6864 16.2184 20.6859 15.7981 22.1571C15.6903 22.5343 15.7659 22.9401 16.0021 23.2533C16.2383 23.5664 16.6078 23.7505 17 23.7505H19C19.6904 23.7505 20.25 23.1909 20.25 22.5005C20.25 21.8102 19.6904 21.2505 19 21.2505H18.5027C18.6747 19.5959 18.471 17.8092 18.0081 16.2917C17.6972 15.2728 17.2469 14.2987 16.6463 13.5356C16.2504 13.0326 15.7459 12.5701 15.1326 12.2849C15.1495 11.2558 14.9986 10.243 14.6575 9.23135C16.1495 8.73609 17.226 7.90186 17.9296 6.79629C19.0555 5.02704 18.9994 2.89339 18.733 1.2947Z" fill="#26272B"/>
</svg>
