<svg width="24" height="24" viewBox="0 0 24 24" fill="none" xmlns="http://www.w3.org/2000/svg">
<path fill-rule="evenodd" clip-rule="evenodd" d="M1.25 4.5C1.25 3.80964 1.80965 3.25 2.5 3.25C4.01037 3.25001 7.74074 3.77335 10.7837 4.40076C12.3082 4.71508 13.7586 5.07496 14.7215 5.44093C14.967 5.53426 15.2057 5.63719 15.4176 5.75135C15.437 5.76178 15.457 5.77276 15.4776 5.78431C15.7379 5.9078 15.9798 6.08093 16.1836 6.32083C16.7886 7.03305 16.7043 7.90079 16.5521 8.47074C16.3928 9.0677 16.0728 9.68891 15.7247 10.2667C15.7189 10.2764 15.713 10.2861 15.7071 10.2958C15.9517 10.351 16.1852 10.4214 16.4052 10.5104C17.3501 10.8929 18.0048 11.6038 18.2525 12.6453C18.4704 13.5617 18.3518 14.6512 18.081 15.8499C17.8926 16.6837 17.6115 17.6464 17.2487 18.7504H17.5C18.1904 18.7504 18.75 19.3101 18.75 20.0004C18.75 20.6908 18.1904 21.2504 17.5 21.2504H15.5003C15.0946 21.2504 14.7142 21.0536 14.4799 20.7224C14.2456 20.3913 14.1865 19.967 14.3215 19.5845C14.9597 17.7759 15.3982 16.3797 15.6424 15.299C15.8934 14.1881 15.9011 13.5633 15.8203 13.2237C15.7693 13.0091 15.7004 12.9222 15.4673 12.8278C15.1985 12.7191 14.7711 12.6429 14.1032 12.6216C13.9335 12.8512 13.7648 13.0775 13.5985 13.3006C13.2067 13.8262 12.8283 14.3337 12.4821 14.8242C13.2392 15.2539 13.75 16.0673 13.75 17C13.75 18.3807 12.6307 19.5 11.25 19.5C9.86929 19.5 8.75 18.3807 8.75 17C8.75 16.8153 8.77003 16.6353 8.80802 16.462C8.8896 16.0678 9.04578 15.6942 9.20228 15.3755C9.44383 14.8837 9.76922 14.3617 10.1194 13.8451C10.3538 13.4993 10.6154 13.1333 10.8876 12.7608C10.0959 12.8096 9.40665 12.7809 8.82486 12.6656C8.82222 12.6651 8.81957 12.6646 8.81693 12.664C7.70748 14.194 6.63796 16.0956 5.3363 18.41C5.27133 18.5255 5.20578 18.6421 5.13962 18.7597C5.76426 18.8291 6.25 19.3588 6.25 20.002C6.25 20.6923 5.69036 21.252 5 21.252H3C2.55444 21.252 2.14256 21.0148 1.9189 20.6294C1.69524 20.2441 1.69361 19.7688 1.91462 19.3819C2.32561 18.6625 2.71939 17.9619 3.10072 17.2834C4.40182 14.9684 5.55804 12.9112 6.75889 11.2441C6.5835 10.8527 6.54176 10.4292 6.60551 10.023C6.69444 9.45636 6.97815 8.95345 7.29337 8.54675C7.8295 7.85501 8.6333 7.21357 9.5523 6.70403C6.71529 6.15405 3.64131 5.75 2.5 5.75C1.80964 5.75 1.25 5.19035 1.25 4.5ZM11.0155 10.2452C11.6594 10.1963 12.2618 10.1567 12.818 10.1347C13.1076 9.72346 13.3672 9.33531 13.5833 8.97666C13.6053 8.94009 13.6267 8.9042 13.6473 8.86897C12.662 9.14623 11.8085 9.60064 11.0155 10.2452ZM17.25 6.50005C17.25 5.11936 18.3693 4.00008 19.75 4.00005C21.1307 4.00002 22.25 5.11932 22.25 6.50005C22.2499 7.88074 21.1307 9.00002 19.75 9.00005C18.3692 9.00008 17.2499 7.88078 17.25 6.50005Z" fill="#26272B"/>
</svg>
