<svg width="24" height="24" viewBox="0 0 24 24" fill="none" xmlns="http://www.w3.org/2000/svg">
<path fill-rule="evenodd" clip-rule="evenodd" d="M16.749 3.25C16.7491 1.86931 17.8683 0.750029 19.249 0.75C20.6298 0.749971 21.7491 1.86927 21.749 3.25C21.749 4.63069 20.6297 5.74997 19.249 5.75C17.8683 5.75003 16.749 4.63073 16.749 3.25ZM8.74903 4C8.74906 2.61931 9.86834 1.50003 11.249 1.5C12.6298 1.49997 13.7491 2.61927 13.749 4C13.749 5.38069 12.6297 6.49997 11.249 6.5C9.8683 6.50003 8.749 5.38073 8.74903 4ZM5.64361 3.92818C6.23555 4.28344 6.42741 5.05129 6.07216 5.64322C5.32166 6.89372 4.94425 7.68966 4.8221 8.17819C4.81852 8.19251 4.81528 8.2061 4.81236 8.21899C4.86949 8.2299 4.93866 8.24023 5.02155 8.24882C5.30456 8.27815 5.68721 8.28141 6.19341 8.25207C7.21 8.19313 8.56358 8.01392 10.323 7.76254C17.3652 6.7564 19.926 6.75 20.499 6.74997C21.1893 6.74994 21.749 7.30955 21.749 7.99991C21.7491 8.69026 21.1895 9.24994 20.4991 9.24997H20.4907C20.1346 9.24996 18.5226 9.24989 14.4346 9.74029C14.735 11.0687 15.0427 12.1094 15.3064 12.9947C15.32 13.0402 15.3335 13.0856 15.347 13.1308C15.6465 14.1351 15.923 15.062 15.9951 15.9628C16.1614 18.0424 15.2395 19.7627 12.999 22.75C12.5848 23.3023 11.8013 23.4142 11.249 23C10.6967 22.5858 10.5848 21.8023 10.999 21.25C13.2586 18.2373 13.5866 17.2076 13.503 16.1622C13.4533 15.541 13.2519 14.8547 12.9104 13.7084C12.8928 13.6493 12.875 13.5893 12.8569 13.5284C12.7801 15.028 12.359 16.2815 11.5684 17.3628C10.8368 18.3632 9.85255 19.1224 8.75337 19.7771C7.66087 20.4277 6.37889 21.0179 5.01674 21.6377C4.38838 21.9236 3.64721 21.646 3.36128 21.0177C3.07536 20.3893 3.35296 19.6481 3.98132 19.3622C5.36625 18.732 6.5203 18.1972 7.47412 17.6291C8.42127 17.065 9.09363 16.5117 9.55031 15.8872C10.3217 14.8323 10.6823 13.2788 10.0365 10.3281C8.57626 10.533 7.33504 10.6901 6.33809 10.7479C5.76619 10.781 5.23478 10.7843 4.76387 10.7355C4.30477 10.6879 3.81276 10.5826 3.37995 10.3353C2.90538 10.0641 2.53627 9.63914 2.37394 9.06861C2.22604 8.54879 2.28347 8.02487 2.39676 7.57176C2.61842 6.68529 3.17868 5.60622 3.92858 4.35673C4.28383 3.76479 5.05168 3.57293 5.64361 3.92818Z" fill="#26272B"/>
</svg>
