<svg width="24" height="24" viewBox="0 0 24 24" fill="none" xmlns="http://www.w3.org/2000/svg">
<path fill-rule="evenodd" clip-rule="evenodd" d="M18.2501 1.75C16.8694 1.75003 15.7501 2.86931 15.7501 4.25C15.7501 5.63073 16.8694 6.75003 18.2501 6.75C19.6308 6.74997 20.7501 5.63069 20.7501 4.25C20.7501 2.86927 19.6308 1.74997 18.2501 1.75ZM13.2453 5.27435C12.8465 5.19452 12.4458 5.24486 12.1359 5.31137C11.8031 5.38281 11.4572 5.49939 11.1221 5.64111C10.4552 5.92308 9.73578 6.34513 9.13069 6.85485C8.55552 7.33936 7.92978 8.03213 7.70864 8.89362C7.59051 9.35384 7.58916 9.86383 7.78028 10.3721C7.94434 10.8084 8.22443 11.1754 8.57216 11.4791C8.2137 12.636 7.61584 14.0398 6.93257 15.1611C6.81997 15.3458 6.68569 15.5917 6.55264 15.8353L6.55258 15.8354C6.49619 15.9386 6.44002 16.0415 6.38582 16.1391C6.18676 16.4975 5.96724 16.8747 5.71674 17.2403C5.20061 17.9936 4.6322 18.5782 3.99898 18.8552C3.55462 19.0496 3.26284 19.4835 3.25041 19.9684C3.23799 20.4532 3.50717 20.9015 3.94099 21.1184L5.94099 22.1184C6.55846 22.4272 7.3093 22.1769 7.61804 21.5594C7.92677 20.9419 7.67649 20.1911 7.05902 19.8824L6.87216 19.7889C7.22603 19.4155 7.52618 19.0225 7.77909 18.6534C8.09431 18.1933 8.35753 17.738 8.57144 17.3528C8.65354 17.2049 8.724 17.0758 8.78641 16.9614C8.89947 16.7542 8.98607 16.5955 9.06744 16.462C9.60545 15.579 10.093 14.5611 10.482 13.5736C11.0664 14.946 11.1793 17.1291 10.2872 20.6972C10.1939 21.0707 10.2778 21.4663 10.5147 21.7697C10.7517 22.0732 11.1152 22.2505 11.5001 22.2504L13.5004 22.25C14.1907 22.2499 14.7502 21.6901 14.7501 20.9998C14.75 20.3094 14.1902 19.7499 13.4999 19.75L13.0583 19.7501C13.8691 15.5516 13.3634 12.6069 11.5797 10.7303C11.7371 10.565 11.9504 10.3784 12.2304 10.176C12.7746 9.78254 13.39 9.45579 13.8727 9.21169C14.3555 10.1271 14.9322 11.4249 15.748 13.2606L15.748 13.2607L15.8577 13.5077C16.0208 13.8746 16.3389 14.1242 16.7006 14.2137L19.2964 21.2595C19.3062 21.286 19.3175 21.312 19.3302 21.3372C19.8189 22.3089 21.0663 22.6041 21.9387 21.9545L22.0552 21.8678C22.3874 21.6204 22.4561 21.1505 22.2088 20.8183C21.9614 20.4861 21.4915 20.4173 21.1593 20.6647L21.0429 20.7514C20.926 20.8384 20.7619 20.8067 20.6844 20.6879L18.0824 13.6253C18.2753 13.2909 18.311 12.8721 18.1423 12.4923L17.9802 12.1275C17.0778 10.0962 16.4018 8.57426 15.802 7.53261C15.1855 6.46187 14.4447 5.51441 13.2453 5.27435Z" fill="#26272B"/>
</svg>
