<svg width="24" height="24" viewBox="0 0 24 24" fill="none" xmlns="http://www.w3.org/2000/svg">
<path fill-rule="evenodd" clip-rule="evenodd" d="M11.0002 4.25C11.0002 2.86931 12.1195 1.75003 13.5002 1.75C14.8809 1.74997 16.0002 2.86927 16.0002 4.25C16.0001 5.63069 14.8809 6.74997 13.5002 6.75C12.1194 6.75003 11.0001 5.63073 11.0002 4.25ZM20.0733 5.32912C19.947 5.36296 19.6835 5.48636 19.3951 5.98585C19.0991 6.49852 19.0051 7.02068 19.0371 7.41124C19.0619 7.71281 19.1444 7.83591 19.1724 7.87149C19.2172 7.87793 19.3651 7.88784 19.6387 7.75849C19.9929 7.59099 20.3982 7.24847 20.6942 6.73575C20.9826 6.23618 20.9577 5.94632 20.9239 5.82014C20.8866 5.68089 20.7833 5.53629 20.5864 5.42258C20.3895 5.30892 20.2126 5.29178 20.0733 5.32912ZM19.4261 2.91433C20.3114 2.6771 21.1672 2.87119 21.8364 3.25752C22.5054 3.64379 23.1015 4.28785 23.3387 5.17311C23.5794 6.07145 23.4041 7.04195 22.8592 7.98575C22.3219 8.91642 21.5441 9.62294 20.7072 10.0186C20.2548 10.2325 19.7179 10.3819 19.1702 10.3753L17.5827 13.125C17.3038 13.6082 16.7384 13.848 16.1971 13.7127C14.6962 13.3376 12.9722 12.4817 11.4868 11.1371C11.0817 11.8185 10.6952 12.4536 10.3225 13.0501C10.5308 13.1449 10.7586 13.247 11.0076 13.3577C11.19 13.4388 11.3675 13.5171 11.5395 13.593C12.3813 13.9645 13.0926 14.2783 13.6186 14.5779C14.2696 14.9486 14.9277 15.4518 15.1948 16.32C15.4322 17.0917 15.2739 17.9179 15.0883 18.6675C14.9823 19.0959 14.8292 19.6287 14.6527 20.2432C14.6521 20.2453 14.6515 20.2473 14.6509 20.2494H14.9995C15.6898 20.2494 16.2495 20.8091 16.2495 21.4994C16.2495 22.1898 15.6898 22.7494 14.9995 22.7494H12.9996C12.61 22.7494 12.2426 22.5678 12.0062 22.2581C11.7697 21.9484 11.6911 21.5462 11.7937 21.1704C11.9759 20.5028 12.1349 19.9511 12.2716 19.4769C12.4317 18.9213 12.5613 18.4719 12.6616 18.0668C12.8484 17.3122 12.8188 17.1021 12.8059 17.0571C12.8049 17.0557 12.8034 17.0536 12.8011 17.0507C12.7967 17.0453 12.7893 17.0367 12.7776 17.0248C12.7251 16.9721 12.6138 16.8826 12.3815 16.7503C11.9767 16.5198 11.4152 16.2716 10.5738 15.8997C10.3932 15.8199 10.1998 15.7345 9.99227 15.6422C9.62254 15.4779 9.27209 15.3211 8.9457 15.169C7.5374 17.2435 6.2456 18.842 4.72452 20.4811C5.04269 20.7077 5.2502 21.0796 5.2502 21.5C5.2502 22.1904 4.69055 22.75 4.0002 22.75H2.0002C1.49462 22.75 1.03882 22.4454 0.845346 21.9784C0.651869 21.5113 0.758814 20.9736 1.11631 20.6161C3.36718 18.3652 4.97567 16.5502 6.79928 13.8796C6.35972 13.4576 6.00553 12.8789 6.06623 12.0914C6.10169 11.6312 6.27787 11.224 6.47031 10.887C6.59458 10.6693 6.74442 10.4491 6.9108 10.2267C5.27295 10.4982 3.62054 10.5373 1.7947 10.233C1.11373 10.1195 0.653709 9.47546 0.767203 8.7945C0.880696 8.11354 1.52473 7.65351 2.20569 7.76701C4.91888 8.2192 7.19479 7.78431 10.1053 6.81415C10.6611 6.62886 11.2711 6.85454 11.5725 7.35699C12.6656 9.17922 14.3825 10.3999 15.9211 11.003L17.0051 9.12535C16.7256 8.65429 16.5865 8.11467 16.5455 7.61586C16.4698 6.69327 16.6927 5.66646 17.23 4.73585C17.7749 3.79206 18.5278 3.15506 19.4261 2.91433Z" fill="#26272B"/>
</svg>
