<svg width="24" height="24" viewBox="0 0 24 24" fill="none" xmlns="http://www.w3.org/2000/svg">
<path fill-rule="evenodd" clip-rule="evenodd" d="M10.2509 3.5C10.251 2.11931 11.3702 1.00003 12.7509 1C14.1317 0.999971 15.251 2.11927 15.2509 3.5C15.2509 4.88069 14.1316 5.99997 12.7509 6C11.3702 6.00003 10.2509 4.88073 10.2509 3.5ZM8.09936 10.4562L4.10633 2.89954C3.67954 2.09185 2.66731 1.80019 1.87618 2.25695C1.08505 2.71371 0.831524 3.73616 1.31761 4.50961L6.44283 12.6649C6.74944 13.1527 7.34982 13.3678 7.89646 13.1856C10.0469 12.4688 11.9475 11.5098 13.7544 10.3218C14.0953 11.0365 14.4785 11.8738 14.8971 12.7891C12.5564 14.765 11.067 17.2157 10.4273 20.7495H9.50094C8.81058 20.7495 8.25094 21.3092 8.25094 21.9995C8.25094 22.6899 8.81058 23.2495 9.50094 23.2495H11.5009C12.1313 23.2495 12.6631 22.7801 12.7413 22.1546C13.1458 18.9187 14.2291 16.8313 15.9893 15.1641C16.0938 15.3889 16.1998 15.6158 16.3072 15.8442C17.092 17.5138 17.9422 19.2492 18.7934 20.767C18.2018 20.8659 17.7509 21.3802 17.7509 21.9999C17.7509 22.6902 18.3106 23.2499 19.0009 23.2499H21.0009C21.4619 23.2499 21.8855 22.9962 22.103 22.5897C22.3206 22.1833 22.2967 21.6901 22.041 21.3065C20.9315 19.6423 19.716 17.2191 18.5697 14.7806C18.3541 14.3221 18.1403 13.8613 17.9301 13.4053C18.0846 13.2248 18.2207 13.0395 18.3345 12.8474C18.7288 12.1811 18.8205 11.4921 18.6564 10.7812C18.5144 10.1659 18.1839 9.56272 17.8514 8.99818C17.7082 8.7551 17.5633 8.5173 17.4107 8.26682C17.1645 7.86261 16.8981 7.42537 16.5862 6.87962C16.405 6.5624 16.094 6.34037 15.7351 6.27192C15.3762 6.20347 15.0054 6.29547 14.7201 6.5237C12.5939 8.22464 10.5007 9.52591 8.09936 10.4562Z" fill="#26272B"/>
</svg>
