<svg width="24" height="24" viewBox="0 0 24 24" fill="none" xmlns="http://www.w3.org/2000/svg">
<path fill-rule="evenodd" clip-rule="evenodd" d="M15.7503 4.25C15.7503 2.86931 16.8696 1.75003 18.2503 1.75C19.631 1.74997 20.7503 2.86927 20.7503 4.25C20.7502 5.63069 19.631 6.74997 18.2503 6.75C16.8695 6.75003 15.7502 5.63073 15.7503 4.25ZM12.1361 5.31137C12.4459 5.24486 12.8466 5.19452 13.2454 5.27435C14.4449 5.51441 15.1856 6.46187 15.8022 7.53261C16.4019 8.57426 17.078 10.0962 17.9803 12.1275L18.1424 12.4923C18.3112 12.8721 18.2754 13.291 18.0825 13.6255L20.6844 20.6877C20.7619 20.8065 20.9259 20.8382 21.0428 20.7512L21.1592 20.6645C21.4915 20.4171 21.9613 20.4859 22.2087 20.8181C22.4561 21.1503 22.3873 21.6202 22.0551 21.8676L21.9387 21.9543C21.0663 22.6039 19.8189 22.3087 19.3301 21.337C19.3174 21.3118 19.3062 21.2858 19.2964 21.2593L16.7006 14.2136C16.339 14.1241 16.0209 13.8745 15.8579 13.5077L15.7481 13.2607L15.748 13.2605C14.9323 11.4248 14.3557 10.1271 13.8728 9.21169C13.3902 9.45579 12.7747 9.78254 12.2305 10.176C11.9683 10.3656 11.7646 10.5413 11.6105 10.6986C12.3617 11.3878 12.9752 12.2307 13.2609 13.4508C13.5531 14.6987 13.4744 16.2349 13.0668 18.2501L13.5 18.25C14.1904 18.2498 14.7501 18.8094 14.7503 19.4997C14.7504 20.1901 14.1909 20.7498 13.5005 20.75L11.5003 20.7504C11.1153 20.7504 10.7518 20.5731 10.5149 20.2697C10.2779 19.9663 10.194 19.5707 10.2874 19.1972C10.9738 16.4517 11.0453 14.954 10.8268 14.0208C10.768 13.7698 10.6855 13.5476 10.5724 13.3404C10.1698 14.3996 9.64808 15.5093 9.0676 16.462C8.63114 17.1782 8.01687 17.8388 7.16904 18.4442C7.70536 18.783 7.90791 19.4799 7.61819 20.0593C7.30946 20.6768 6.55862 20.9271 5.94114 20.6183L3.94114 19.6183C3.50733 19.4014 3.23815 18.9531 3.25057 18.4683C3.26299 17.9834 3.55478 17.5495 3.99914 17.3551C5.74276 16.5923 6.53128 15.8199 6.93272 15.1611C7.616 14.0398 8.21386 12.636 8.57232 11.4791C8.22459 11.1754 7.9445 10.8084 7.78044 10.3721C7.58932 9.86383 7.59067 9.35384 7.7088 8.89362C7.92994 8.03213 8.55568 7.33936 9.13085 6.85485C9.73594 6.34513 10.4554 5.92308 11.1222 5.64111C11.4574 5.49939 11.8033 5.38281 12.1361 5.31137ZM2.85432 20.3044C2.48526 20.1164 2.03363 20.2631 1.84558 20.6322C1.65753 21.0012 1.80427 21.4529 2.17334 21.6409L5.29186 23.2299C5.66093 23.4179 6.11256 23.2712 6.30061 22.9021C6.48866 22.533 6.34191 22.0814 5.97285 21.8934L2.85432 20.3044ZM11.0002 21.75C10.5859 21.75 10.2502 22.0858 10.2502 22.5C10.2502 22.9142 10.5859 23.25 11.0002 23.25H14.5002C14.9144 23.25 15.2502 22.9142 15.2502 22.5C15.2502 22.0858 14.9144 21.75 14.5002 21.75H11.0002Z" fill="#26272B"/>
</svg>
