<svg width="24" height="24" viewBox="0 0 24 24" fill="none" xmlns="http://www.w3.org/2000/svg">
<path fill-rule="evenodd" clip-rule="evenodd" d="M15.0002 4.25C15.0003 2.86931 16.1196 1.75003 17.5002 1.75C18.881 1.74997 20.0003 2.86927 20.0002 4.25C20.0002 5.63069 18.8809 6.74997 17.5002 6.75C16.1195 6.75003 15.0002 5.63073 15.0002 4.25ZM2.75027 5.5C2.75027 4.80964 3.30992 4.25 4.00027 4.25C5.46691 4.25 8.43283 4.51008 11.0527 5.09227C12.3561 5.38192 13.6582 5.76912 14.6632 6.28753C14.8255 6.37127 14.9869 6.46187 15.144 6.56021C15.1601 6.56986 15.1759 6.57992 15.1916 6.59036C15.5024 6.78922 15.7943 7.01906 16.0399 7.28672C16.399 7.67806 16.6959 8.1947 16.7436 8.82281C16.7899 8.96632 16.8936 9.08919 17.1099 9.19264C17.3864 9.32487 17.8012 9.39075 18.261 9.32506C19.2437 9.18467 19.7503 8.62718 19.7503 8C19.7503 7.30964 20.3099 6.75 21.0003 6.75C21.6906 6.75 22.2503 7.30964 22.2503 8C22.2503 10.3728 20.2568 11.5653 18.6146 11.7999C17.7619 11.9217 16.8329 11.8314 16.0313 11.448C15.943 11.4058 15.8561 11.3598 15.771 11.31C15.7001 11.4114 15.6268 11.513 15.5517 11.6144C15.3631 11.8691 15.1562 12.132 14.9361 12.3985C15.416 12.7367 15.8262 13.1433 16.1082 13.6492C16.5784 14.4928 16.5789 15.4013 16.3275 16.281C16.0864 17.1246 15.5947 18.0184 14.9622 18.9669C14.6744 19.3986 14.3463 19.8577 13.9811 20.3463C14.4321 20.535 14.749 20.9805 14.749 21.5C14.749 22.1904 14.1894 22.75 13.499 22.75H11.5001C11.0196 22.75 10.5816 22.4746 10.3735 22.0415C10.1653 21.6084 10.2239 21.0943 10.5241 20.7191C11.5195 19.4748 12.3041 18.447 12.8822 17.58C13.4687 16.7003 13.7897 16.0629 13.9238 15.594C14.0475 15.1612 13.9856 14.9759 13.9245 14.8664C13.8507 14.734 13.671 14.5298 13.2375 14.2773C12.4099 15.1245 11.5443 15.9272 10.8062 16.5295C10.4347 16.8326 10.0737 17.1029 9.75264 17.3044C9.593 17.4046 9.41994 17.5026 9.2442 17.5794C9.09561 17.6443 8.82316 17.75 8.50027 17.75C7.58749 17.75 6.69286 17.2577 5.92243 16.7234C5.44607 16.393 4.93383 15.9853 4.38851 15.5186L4.11831 16.059C3.80957 16.6765 3.05873 16.9268 2.44126 16.618C1.82378 16.3093 1.5735 15.5585 1.88224 14.941L2.88224 12.941C3.05765 12.5902 3.38757 12.342 3.77329 12.2708C4.15901 12.1996 4.55579 12.3135 4.84493 12.5786C5.85107 13.5008 6.67404 14.2023 7.34712 14.669C7.86729 15.0298 8.19061 15.1721 8.36361 15.2236C8.38166 15.2129 8.40166 15.2007 8.42369 15.1869C8.62216 15.0623 8.89398 14.8631 9.22563 14.5925C9.78193 14.1386 10.4456 13.5338 11.1131 12.8695C11.0764 12.8297 11.0409 12.7892 11.0068 12.7481C10.7611 12.4517 10.5646 12.096 10.4813 11.6769C10.3977 11.2561 10.4449 10.8556 10.56 10.4966C10.7717 9.83661 11.2443 9.23179 11.7229 8.69413C11.909 8.48497 12.1175 8.26339 12.3437 8.02973C11.8015 7.84849 11.1814 7.68185 10.5104 7.53273C8.06772 6.98992 5.28364 6.75 4.00027 6.75C3.30992 6.75 2.75027 6.19036 2.75027 5.5ZM8.24317 15.2885C8.22648 15.2958 8.22794 15.2937 8.24489 15.2878C8.24429 15.2881 8.24372 15.2883 8.24317 15.2885ZM16.7503 20C16.7503 18.6193 17.8696 17.5001 19.2503 17.5C20.631 17.5 21.7503 18.6193 21.7503 20C21.7502 21.3807 20.631 22.5 19.2503 22.5C17.8695 22.5001 16.7502 21.3808 16.7503 20Z" fill="#26272B"/>
</svg>
