<svg width="24" height="24" viewBox="0 0 24 24" fill="none" xmlns="http://www.w3.org/2000/svg">
<path fill-rule="evenodd" clip-rule="evenodd" d="M12.7503 5C11.3697 5.00003 10.2504 6.11931 10.2503 7.5C10.2503 8.88073 11.3696 10 12.7503 10C14.131 9.99997 15.2503 8.88069 15.2503 7.5C15.2504 6.11927 14.1311 4.99997 12.7503 5ZM2.50063 7.71097C2.52148 6.48635 3.52071 5.50003 4.75029 5.5C5.99295 5.49997 7.00032 6.50734 7.0003 7.75C7.00028 8.3862 6.73622 8.96073 6.31173 9.36998C6.5958 9.6006 6.92463 9.82501 7.29855 10.0344C8.65756 10.7954 10.3914 11.2227 12.0953 11.0097C14.1467 10.7532 15.5862 10.7301 17.0059 11.1037C18.383 11.4661 19.6562 12.1851 21.3705 13.1647C21.9699 13.5072 22.1781 14.2708 21.8356 14.8702C21.4931 15.4696 20.7295 15.6778 20.1301 15.3353C18.3444 14.3149 17.3676 13.784 16.3697 13.5214C15.9725 13.4168 15.557 13.3518 15.0671 13.3289C15.1236 14.1989 15.0523 15.0209 14.8583 15.8337C15.4134 15.9658 15.928 16.1194 16.3974 16.2595L16.3975 16.2595C16.7501 16.3647 17.0773 16.4623 17.3769 16.5375C18.6647 16.8607 19.9101 16.9668 21.7195 16.1182C22.3446 15.825 23.0889 16.0941 23.382 16.7191C23.6752 17.3441 23.4061 18.0885 22.7811 18.3816C20.3274 19.5323 18.4675 19.3887 16.7684 18.9623C16.278 18.8393 15.8373 18.7082 15.4186 18.5836C14.3689 18.2714 13.4579 18.0005 12.2503 18.0005C11.0428 18.0005 10.1318 18.2715 9.08214 18.5837C8.66343 18.7083 8.22267 18.8394 7.73223 18.9625C6.03313 19.3889 4.17315 19.5326 1.71944 18.3815C1.09443 18.0884 0.825436 17.344 1.11862 16.719C1.41181 16.094 2.15615 15.825 2.78116 16.1182C4.5906 16.967 5.83589 16.8609 7.12363 16.5377C7.42325 16.4625 7.75041 16.3649 8.10311 16.2596L8.10314 16.2596C8.72407 16.0743 9.42414 15.8653 10.1924 15.7136C10.2017 15.6989 10.2113 15.6843 10.2213 15.6698C10.6049 15.1129 10.7823 14.6893 10.8768 14.2929C10.9303 14.0686 10.9619 13.8347 10.9798 13.5619C9.18754 13.5209 7.47548 12.9988 6.07705 12.2157C4.65064 11.4169 3.38804 10.2481 2.79843 8.87004C2.61394 8.54923 2.50628 8.17864 2.50054 7.78336C2.49986 7.75913 2.4999 7.73499 2.50063 7.71097Z" fill="#26272B"/>
</svg>
