<svg width="24" height="24" viewBox="0 0 24 24" fill="none" xmlns="http://www.w3.org/2000/svg">
<path fill-rule="evenodd" clip-rule="evenodd" d="M2.25236 3.88846C2.3107 2.55937 3.40673 1.50003 4.74994 1.5C6.13067 1.49997 7.24997 2.61927 7.24994 4C7.24993 4.91425 6.75915 5.71388 6.02669 6.14983C6.23962 6.29065 6.48342 6.43335 6.76151 6.57719C8.38906 7.41899 10.7218 8.0159 13.1243 8.25615C13.4739 8.29111 13.8139 8.33097 14.1448 8.37607C14.1624 8.37811 14.1799 8.38052 14.1973 8.3833C16.2921 8.67328 18.0139 9.17525 19.4275 9.97424C21.1073 10.9237 22.2707 12.2464 23.118 13.9409C23.4267 14.5584 23.1764 15.3092 22.5589 15.618C21.9415 15.9267 21.1906 15.6764 20.8819 15.059C20.2292 13.7535 19.3926 12.8262 18.1973 12.1507C17.4519 11.7293 16.5382 11.3897 15.395 11.1339C15.5288 12.8803 15.5306 14.4593 15.1563 16.1045C14.6656 18.261 13.5585 20.4197 11.5108 23.2352C11.1048 23.7935 10.323 23.9169 9.7647 23.5109C9.20639 23.1048 9.08295 22.323 9.489 21.7647C11.4414 19.0802 12.3343 17.2389 12.7186 15.5499C12.8427 15.0044 12.9168 14.4632 12.9521 13.899C12.6289 14.7628 12.1774 15.5816 11.566 16.378C10.0542 18.3472 7.63938 20.0742 4.12009 22.0853C3.5207 22.4278 2.75713 22.2195 2.41461 21.6201C2.0721 21.0207 2.28035 20.2572 2.87975 19.9146C6.36046 17.9257 8.39526 16.4027 9.58303 14.8556C10.5344 13.6164 10.9925 12.2934 11.1147 10.5079C9.10817 10.1699 7.15974 9.59776 5.61299 8.79775C3.74262 7.83035 1.92 6.2119 2.25236 3.88846ZM10.7499 4.24997C10.7499 2.86928 11.8692 1.75 13.2499 1.74997C14.6307 1.74994 15.7499 2.86924 15.7499 4.24997C15.7499 5.63066 14.6306 6.74994 13.2499 6.74997C11.8692 6.75 10.7499 5.6307 10.7499 4.24997Z" fill="#26272B"/>
</svg>
