<svg width="24" height="24" viewBox="0 0 24 24" fill="none" xmlns="http://www.w3.org/2000/svg">
<path fill-rule="evenodd" clip-rule="evenodd" d="M6.75033 3.25C6.75036 1.86931 7.86964 0.750029 9.25033 0.75C10.6311 0.749971 11.7504 1.86927 11.7503 3.25C11.7503 4.63069 10.631 5.74997 9.25033 5.75C7.8696 5.75003 6.7503 4.63073 6.75033 3.25ZM21.0245 7.08801L21.1383 7.05359C21.799 6.85362 22.4968 7.22717 22.6967 7.88793C22.8967 8.54869 22.5232 9.24645 21.8624 9.44641L17.0922 10.89C17.1134 11.5355 16.9292 12.0811 16.6372 12.5523C17.9903 14.844 19.3511 17.6855 21.1313 21.4669C21.3136 21.8541 21.2851 22.3077 21.0558 22.669C20.8265 23.0304 20.4283 23.2493 20.0004 23.2494L17.9691 23.2494C17.2788 23.2495 16.7191 22.6898 16.7191 21.9995C16.7191 21.3091 17.2787 20.7495 17.969 20.7494L18.0269 20.7494C16.7915 18.1498 15.7858 16.1122 14.8396 14.4388C14.442 14.9684 14.1151 15.7549 13.8642 16.853C13.5314 18.3098 13.3792 20.0912 13.2476 22.0824C13.2042 22.7393 12.6587 23.25 12.0004 23.25L9.96913 23.2501C9.27877 23.2501 8.71911 22.6905 8.71908 22.0001C8.71905 21.3098 9.27868 20.7501 9.96903 20.7501L10.8354 20.75C10.9557 19.1753 11.1197 17.6416 11.427 16.2962C11.7799 14.7514 12.3644 13.2504 13.4795 12.2294C13.4329 12.1608 13.3862 12.093 13.3395 12.0257L2.8624 15.1964C2.20164 15.3964 1.50388 15.0228 1.30392 14.3621C1.10395 13.7013 1.4775 13.0036 2.13826 12.8036L3.78766 12.3044C3.76328 12.207 3.75033 12.105 3.75033 12C3.75033 11.392 4.18442 10.8854 4.75958 10.7732C4.77847 10.7651 4.80416 10.7536 4.8374 10.738C4.97711 10.6723 5.177 10.5675 5.43168 10.4249C5.93675 10.1422 6.59133 9.74787 7.28259 9.31535C8.66735 8.44891 10.1171 7.48071 10.7316 7.01419C13.3714 4.90581 15.6351 4.21987 17.6036 4.69063C19.1464 5.0596 20.2428 6.08373 21.0245 7.08801ZM4.72036 10.7891C4.70251 10.7955 4.7063 10.7928 4.72728 10.7865C4.72421 10.7877 4.72191 10.7885 4.72036 10.7891ZM10.3422 10.3208L11.6588 9.92238C11.5659 9.82207 11.472 9.72294 11.3768 9.62484C11.0653 9.83941 10.7137 10.0758 10.3422 10.3208ZM15.3072 7.22648C15.6772 7.69698 15.9895 8.13099 16.2425 8.5352L18.3819 7.88775C17.9673 7.50877 17.5197 7.24107 17.0221 7.12206C16.5921 7.01923 16.031 7.0075 15.3072 7.22648Z" fill="#26272B"/>
</svg>
