<svg width="24" height="24" viewBox="0 0 24 24" fill="none" xmlns="http://www.w3.org/2000/svg">
<path fill-rule="evenodd" clip-rule="evenodd" d="M4.51414 3.55692C4.3893 3.48484 4.21403 3.4556 3.99437 3.51446C3.7748 3.57329 3.63759 3.68625 3.56546 3.8112C3.5001 3.92442 3.40102 4.19801 3.5503 4.75511C3.70352 5.32692 4.00625 5.76263 4.3051 6.01612C4.53585 6.21185 4.68123 6.24055 4.72618 6.24593C4.76242 6.2188 4.87399 6.12124 4.97598 5.83633C5.10806 5.46736 5.15239 4.93863 4.99916 4.36678C4.84986 3.80957 4.62727 3.62224 4.51414 3.55692ZM5.76416 1.39187C6.56958 1.85689 7.13191 2.66706 7.41397 3.71973C7.69211 4.75775 7.64171 5.80732 7.32972 6.67888C7.16103 7.15015 6.887 7.63542 6.49499 8.01809L6.98148 9.83476C8.4572 9.92385 9.38806 9.72543 10.0611 9.44711C10.7352 9.16832 11.2031 8.80206 11.8114 8.32599C11.9653 8.20547 12.1283 8.07791 12.3059 7.94295C13.1679 7.28782 14.2109 6.61579 15.8339 6.32497C17.4135 6.04193 19.4402 6.13709 22.2767 6.78172C22.9499 6.93471 23.3716 7.60446 23.2186 8.27765C23.0656 8.95084 22.3959 9.37254 21.7227 9.21955C19.5667 8.72957 18.0677 8.61668 16.9788 8.69825C17.3734 9.35611 17.8369 10.2209 18.2768 11.2657C19.22 13.5058 20.0633 16.5953 19.8659 20.2505L19.9994 20.2505C20.6898 20.2503 21.2496 20.8099 21.2497 21.5002C21.2498 22.1906 20.6903 22.7503 19.9999 22.7505L18.5 22.7508C18.1415 22.7509 17.8001 22.5969 17.5628 22.3281C17.3254 22.0593 17.215 21.7016 17.2594 21.3457C17.6609 18.134 17.1126 15.351 16.3536 13.2172C16.3543 13.9105 16.2289 14.5993 15.9943 15.2818C15.3967 17.0205 14.0756 18.7477 12.3071 20.5462C12.5778 20.7755 12.7497 21.1179 12.7497 21.5005C12.7497 22.1908 12.1901 22.7505 11.4997 22.7505H9.49969C8.98327 22.7505 8.52001 22.4329 8.33379 21.9512C8.14757 21.4695 8.27673 20.9229 8.65885 20.5756C11.4152 18.0698 13.0577 16.1342 13.6301 14.4691C13.8992 13.6862 13.9219 12.9857 13.7159 12.2954C13.5694 11.8043 13.2932 11.2726 12.8385 10.6929C12.3291 11.0707 11.7312 11.4618 11.0165 11.7573C9.73037 12.2892 8.12954 12.5099 5.85369 12.2422C5.34525 12.1825 4.92467 11.8187 4.79224 11.3242L4.08013 8.66499C3.54943 8.52956 3.06959 8.24636 2.68795 7.92264C1.98201 7.32385 1.41361 6.44012 1.13548 5.40216C0.853424 4.34949 0.935382 3.36669 1.40036 2.56127C1.85856 1.76757 2.601 1.29962 3.34732 1.09965C4.09354 0.899697 4.97046 0.933618 5.76416 1.39187ZM9.24978 3.50079C9.24981 2.12009 10.3691 1.00081 11.7498 1.00079C13.1305 1.00076 14.2498 2.12005 14.2498 3.50078C14.2498 4.88147 13.1305 6.00076 11.7498 6.00079C10.3691 6.00082 9.24976 4.88152 9.24978 3.50079Z" fill="#26272B"/>
</svg>
