<svg width="24" height="24" viewBox="0 0 24 24" fill="none" xmlns="http://www.w3.org/2000/svg">
<path fill-rule="evenodd" clip-rule="evenodd" d="M11.3821 1.44126C11.6908 0.823784 12.4416 0.573503 13.0591 0.88224L19.2902 3.99778C20.7978 4.75158 21.7501 6.29245 21.7501 7.97798V22.0003C21.7501 22.6906 21.1905 23.2503 20.5001 23.2503C19.8098 23.2503 19.2501 22.6906 19.2501 22.0003V16.518L18.384 17.3842C18.081 17.6871 17.6439 17.8138 17.2259 17.7198C16.8078 17.6258 16.4671 17.3242 16.3229 16.9207C16.2596 16.7434 16.1984 16.5719 16.1393 16.4061C15.6049 14.908 15.2352 13.8715 14.9186 13.1525C14.7588 12.7897 14.6356 12.5626 14.5414 12.4231C14.4575 12.4568 14.3322 12.5136 14.1544 12.6091C13.888 12.7523 13.5774 12.9385 13.1754 13.1796L13.1116 13.2179C12.6883 13.4717 12.1889 13.7698 11.6072 14.093C11.4273 14.1929 11.2505 14.2874 11.077 14.376C11.4159 15.6859 11.5897 16.8892 11.1832 17.9043C10.7305 19.0346 9.72388 19.5682 8.75744 19.9418C8.19942 20.1574 7.47433 20.3803 6.65671 20.6315C6.53069 20.6702 6.40247 20.7097 6.27232 20.7498L6.61808 21.4411C6.92688 22.0586 6.67668 22.8094 6.05924 23.1182C5.4418 23.4271 4.69093 23.1769 4.38213 22.5594L3.38203 20.5597C3.2196 20.235 3.20643 19.8556 3.34593 19.5204C3.48543 19.1851 3.76383 18.9271 4.1087 18.8134C4.87267 18.5616 5.51422 18.3656 6.06791 18.1965C6.78689 17.9769 7.35773 17.8025 7.85615 17.6099C8.70792 17.2807 8.82252 17.0744 8.86238 16.9749C8.93672 16.7893 8.98432 16.3472 8.70992 15.2148C8.64128 15.2243 8.57336 15.232 8.50617 15.2378C8.03465 15.2786 7.55508 15.2304 7.10388 15.0358C6.64405 14.8376 6.29227 14.5211 6.03487 14.1493C5.55861 13.4614 5.39929 12.5722 5.32576 11.7798C5.25007 10.964 5.25009 10.0096 5.25011 9.04257L5.25011 9.00027C5.25011 8.43576 5.62847 7.9413 6.17336 7.79374C7.56021 7.41815 8.5654 7.12154 9.32256 6.8222C10.0752 6.52463 10.4898 6.25893 10.7534 5.99384C11.2197 5.52492 11.4544 4.8361 11.6888 2.95158C11.2611 2.58743 11.1196 1.96616 11.3821 1.44126ZM14.0466 4.17108C13.9124 5.02622 13.7297 5.79322 13.4152 6.46851C13.9796 6.0003 14.3486 5.38149 14.6798 4.48764L14.0466 4.17108ZM16.9263 5.61091C16.3945 6.95048 15.6249 8.13538 14.1591 8.98414C13.0563 9.62269 11.6306 10.027 9.76213 10.2553C9.97168 10.8598 10.1635 11.42 10.336 11.9391C10.3549 11.9287 10.3739 11.9182 10.3931 11.9076C10.9363 11.6058 11.4057 11.3258 11.8261 11.0737C11.8548 11.0565 11.8834 11.0393 11.912 11.0222C12.2909 10.7949 12.6503 10.5793 12.9708 10.4071C13.5544 10.0933 14.4994 9.62501 15.4808 10.0339C15.9592 10.2333 16.2979 10.5821 16.5465 10.9282C16.7932 11.2716 17.006 11.6896 17.2065 12.1449C17.4464 12.6895 17.7078 13.381 18.012 14.2206L18.1162 14.1164C18.4242 13.8084 18.853 13.6947 19.2501 13.7754V7.97798C19.2501 7.23938 18.8328 6.56416 18.1722 6.23385L16.9263 5.61091ZM3.75011 4.25027C3.75011 2.86956 4.8694 1.75027 6.25011 1.75027C7.63082 1.75027 8.75011 2.86956 8.75011 4.25027C8.75011 5.63099 7.63082 6.75027 6.25011 6.75027C4.8694 6.75027 3.75011 5.63099 3.75011 4.25027Z" fill="#26272B"/>
</svg>
