<svg width="24" height="24" viewBox="0 0 24 24" fill="none" xmlns="http://www.w3.org/2000/svg">
<path fill-rule="evenodd" clip-rule="evenodd" d="M6.25 2.75C4.86931 2.75003 3.75003 3.86931 3.75 5.25C3.74997 6.63073 4.86927 7.75003 6.25 7.75C7.63069 7.74997 8.74997 6.63069 8.75 5.25C8.75003 3.86927 7.63073 2.74997 6.25 2.75ZM4.96366 8.83937C4.3385 8.58936 3.62764 8.87942 3.35586 9.49543C2.75423 10.8591 2.63515 12.6064 2.83668 14.1655C3.03503 15.7001 3.58367 17.3515 4.61591 18.3842C4.84824 18.6166 5.15089 18.7393 5.45746 18.7497H2.5C1.80964 18.7497 1.25 19.3094 1.25 19.9997C1.25 20.6901 1.80964 21.2497 2.5 21.2497H18.548C19.9708 21.2497 21.2281 20.3244 21.6511 18.9659L22.9201 14.8905C22.9245 14.877 22.9288 14.8634 22.9327 14.8498L23.2636 13.7874C23.4688 13.1282 23.1008 12.4275 22.4417 12.2223C21.8653 12.0428 21.2572 12.3016 20.9763 12.8101L13.0113 9.35925C12.8924 9.30582 12.7645 9.27067 12.6319 9.25665C12.4996 9.24256 12.3674 9.25005 12.24 9.27724C9.8964 9.74356 7.16576 9.72004 4.96366 8.83937ZM12.3547 11.7993L20.2051 15.2005L19.2641 18.2227C19.1665 18.5362 18.8764 18.7497 18.548 18.7497H17.5549C18.2198 18.721 18.75 18.1729 18.75 17.5009C18.75 16.8106 18.1904 16.2509 17.5 16.2509H15.9493C14.5841 15.135 13.4477 14.3422 12.4539 13.8493C11.358 13.3058 10.3399 13.0797 9.32866 13.2722C8.55658 13.4193 7.90784 13.7904 7.33589 14.2196C7.24528 13.9289 7.16471 13.5975 7.11103 13.2481C7.03903 12.7794 7.02362 12.3316 7.06997 11.939C8.87645 12.1821 10.7173 12.0892 12.3547 11.7993ZM15.4456 18.7497H5.54298C5.8175 18.7404 6.09023 18.6409 6.31354 18.4495C6.77015 18.058 7.17591 17.6845 7.53554 17.3531L7.54354 17.3458C7.90654 17.0112 8.21139 16.7303 8.49906 16.4888C9.08738 15.9948 9.46291 15.7916 9.79634 15.7281C10.0976 15.6707 10.5483 15.6948 11.343 16.089C12.1559 16.4922 13.2229 17.2302 14.6997 18.4611C14.9104 18.6367 15.1726 18.7379 15.4456 18.7497Z" fill="#26272B"/>
</svg>
