<svg width="24" height="24" viewBox="0 0 24 24" fill="none" xmlns="http://www.w3.org/2000/svg">
<path fill-rule="evenodd" clip-rule="evenodd" d="M17.5002 1.75C16.1196 1.75003 15.0003 2.86931 15.0002 4.25C15.0002 5.63073 16.1195 6.75003 17.5002 6.75C18.8809 6.74997 20.0002 5.63069 20.0002 4.25C20.0003 2.86927 18.881 1.74997 17.5002 1.75ZM4.00027 4.25C3.30992 4.25 2.75027 4.80964 2.75027 5.5C2.75027 6.19036 3.30992 6.75 4.00027 6.75C5.28364 6.75 8.06772 6.98992 10.5104 7.53273C11.1812 7.68181 11.8011 7.84841 12.3432 8.02959C12.1171 8.26325 11.9087 8.48482 11.7225 8.69399C11.244 9.2317 10.7714 9.83657 10.5598 10.4966C10.4447 10.8557 10.3975 11.2562 10.4812 11.677C10.5645 12.096 10.761 12.4517 11.0067 12.7481C11.0408 12.7892 11.0763 12.8297 11.1131 12.8695C10.4456 13.5338 9.78192 14.1386 9.22563 14.5925C8.89398 14.8631 8.62216 15.0623 8.42369 15.1869C8.40166 15.2007 8.38166 15.2129 8.36361 15.2236C8.19061 15.1721 7.86729 15.0298 7.34712 14.669C6.67404 14.2023 5.85107 13.5008 4.84493 12.5786C4.55579 12.3135 4.15901 12.1996 3.77329 12.2708C3.38757 12.342 3.05765 12.5902 2.88224 12.941L1.88224 14.941C1.5735 15.5585 1.82378 16.3093 2.44126 16.618C3.05873 16.9268 3.80957 16.6765 4.11831 16.059L4.38851 15.5186C4.93383 15.9853 5.44607 16.393 5.92243 16.7234C6.69286 17.2577 7.58749 17.75 8.50027 17.75C8.82316 17.75 9.09561 17.6443 9.2442 17.5794C9.41994 17.5026 9.593 17.4046 9.75264 17.3044C10.0737 17.1029 10.4347 16.8326 10.8062 16.5295C11.5457 15.9261 12.4131 15.1215 13.242 14.2726C13.7846 14.5605 14.0957 14.7803 14.278 14.9739C14.4331 15.1387 14.5006 15.2847 14.5006 15.5623C14.5005 15.9185 14.3825 16.477 14.0234 17.397C13.6708 18.3003 13.1307 19.4437 12.3821 20.941C12.1883 21.3284 12.209 21.7886 12.4368 22.1572C12.6645 22.5257 13.0668 22.75 13.5001 22.75H15.499C16.1893 22.75 16.749 22.1904 16.749 21.5C16.749 20.8104 16.1905 20.2512 15.5012 20.25C15.8423 19.5268 16.1273 18.8824 16.3522 18.3061C16.7433 17.3042 17.0005 16.394 17.0006 15.5627C17.0007 14.6528 16.6934 13.8926 16.0984 13.2605C15.7776 12.9196 15.3858 12.6306 14.9585 12.3714C15.1702 12.1141 15.3695 11.8605 15.5517 11.6144C15.6268 11.513 15.7001 11.4114 15.771 11.31C15.8561 11.3598 15.943 11.4058 16.0313 11.448C16.8329 11.8314 17.7619 11.9217 18.6145 11.7999C20.2568 11.5653 22.2503 10.3728 22.2503 8C22.2503 7.30964 21.6906 6.75 21.0003 6.75C20.3099 6.75 19.7503 7.30964 19.7503 8C19.7503 8.62718 19.2437 9.18467 18.261 9.32506C17.8012 9.39075 17.3864 9.32487 17.1099 9.19264C16.8936 9.08919 16.7899 8.96632 16.7436 8.82281C16.6959 8.1947 16.399 7.67806 16.0399 7.28672C15.794 7.0187 15.5016 6.7886 15.1904 6.58955C15.1752 6.57947 15.1598 6.56976 15.1443 6.56042C14.9872 6.462 14.8256 6.37133 14.6632 6.28753C13.6582 5.76912 12.3561 5.38192 11.0527 5.09227C8.43283 4.51008 5.46691 4.25 4.00027 4.25ZM8.24317 15.2885C8.22648 15.2958 8.22794 15.2937 8.24489 15.2878L8.24317 15.2885Z" fill="#26272B"/>
</svg>
