<svg width="24" height="24" viewBox="0 0 24 24" fill="none" xmlns="http://www.w3.org/2000/svg">
<path fill-rule="evenodd" clip-rule="evenodd" d="M20.3951 0.814485C21.0501 1.03279 21.404 1.74069 21.1857 2.39562C20.5865 4.1931 19.2794 5.74241 17.841 7.05023C16.7694 8.0245 15.5648 8.91737 14.4024 9.72154C14.6103 9.91399 14.8373 10.1101 15.0795 10.307C15.1399 10.2967 15.1985 10.286 15.2552 10.2746C15.9321 10.1392 16.5907 10.5782 16.7261 11.2552C16.7438 11.3439 16.7517 11.4322 16.7505 11.5191C18.1465 12.4291 19.5058 13.0884 20.303 13.2877C20.9728 13.4551 21.38 14.1338 21.2125 14.8035C21.0451 15.4733 20.3664 15.8805 19.6967 15.713C18.4948 15.4125 16.8567 14.5731 15.3797 13.6098C15.0376 13.3867 14.6934 13.1499 14.3555 12.9033C13.1427 12.9888 11.7355 12.9426 10.3759 12.8066C9.60385 12.7294 8.8192 12.6205 8.06559 12.4815C8.02513 12.8639 8.04194 13.2965 8.11137 13.7484C8.20924 14.3855 8.39651 14.9627 8.57102 15.3426C9.18744 14.9322 9.87202 14.6 10.6698 14.467C12.6698 14.1337 14.8414 15.1335 17.8656 17.4076L19.376 17.2565C20.0629 17.1879 20.6755 17.689 20.7442 18.376C20.7501 18.435 20.7517 18.4935 20.7495 18.5512C21.21 18.4483 21.4679 18.3655 21.5561 18.3319C22.2014 18.0866 22.9234 18.4108 23.1687 19.0561C23.4141 19.7014 23.0898 20.4234 22.4446 20.6687C21.7176 20.9451 18.7395 21.7503 12.0003 21.7503C5.26106 21.7503 2.2835 20.9451 1.55641 20.6689C0.911055 20.4237 0.586648 19.7018 0.831823 19.0564C1.077 18.4111 1.79891 18.0866 2.44427 18.3318C2.61323 18.396 3.40299 18.6405 5.04312 18.8611C4.77634 18.4433 4.56545 17.9792 4.39892 17.5138C4.12156 16.7387 3.93508 15.8691 3.8349 14.9983C3.63973 13.3017 3.74831 11.3736 4.35619 9.99577L4.35874 9.99002C4.50035 9.6733 4.75778 9.4442 5.05899 9.33066C5.22257 9.26895 5.39929 9.24125 5.57779 9.25243C5.70833 9.26057 5.83959 9.28948 5.96703 9.34092C7.062 9.7782 8.8042 10.137 10.6247 10.319C10.9593 10.3525 11.2908 10.3794 11.6156 10.3997C11.5761 10.3499 11.5376 10.3001 11.5003 10.2503C11.2942 9.97549 11.2103 9.62792 11.2683 9.2893C11.3263 8.95067 11.5211 8.65085 11.807 8.46028C13.3036 7.46251 14.8597 6.38194 16.1592 5.20045C17.4705 4.00827 18.4132 2.80758 18.814 1.60505C19.0323 0.950125 19.7402 0.596175 20.3951 0.814485ZM7.90656 19.1328C9.0575 19.2044 10.4145 19.2503 12.0003 19.2503C13.5443 19.2503 14.8713 19.2068 16.0025 19.1384C13.2432 17.1189 11.9228 16.7926 11.0808 16.933C10.6255 17.0089 10.1634 17.2432 9.54596 17.7204C9.14396 18.0311 8.75811 18.3749 8.30267 18.7808L8.30254 18.7809L8.30248 18.781C8.17644 18.8933 8.04508 19.0104 7.90656 19.1328ZM4.75034 5.75034C4.75037 4.36965 5.86965 3.25037 7.25034 3.25034C8.63107 3.25031 9.75037 4.36961 9.75034 5.75034C9.75031 7.13103 8.63103 8.25031 7.25034 8.25034C5.8696 8.25037 4.75031 7.13107 4.75034 5.75034Z" fill="#26272B"/>
</svg>
