<svg width="24" height="24" viewBox="0 0 24 24" fill="none" xmlns="http://www.w3.org/2000/svg">
<path fill-rule="evenodd" clip-rule="evenodd" d="M14.2502 1C12.8696 1.00003 11.7503 2.11931 11.7502 3.5C11.7502 4.88073 12.8695 6.00003 14.2502 6C15.6309 5.99997 16.7502 4.88069 16.7502 3.5C16.7503 2.11927 15.631 0.999971 14.2502 1ZM11.7169 5.97599C11.1552 5.58277 10.3815 5.71548 9.98295 6.27344C9.42716 7.05149 8.98448 7.70437 8.67707 8.25723C8.38204 8.78784 8.12446 9.37424 8.10714 9.99012C8.08686 10.7111 8.39373 11.2682 8.80755 11.6866C8.89732 11.7774 8.99476 11.8642 9.09724 11.9474C8.63156 12.8152 8.24846 13.4612 7.90477 13.9326C7.43384 14.5785 7.16344 14.7159 7.04598 14.7492C6.95508 14.7749 6.72954 14.8035 6.14089 14.5182C5.54522 14.2296 4.79151 13.7277 3.71712 12.9756C3.38 12.7397 2.94832 12.6847 2.56283 12.8287C2.17733 12.9728 1.88742 13.2973 1.78762 13.6965L1.28762 15.6965C1.12018 16.3663 1.52738 17.0449 2.19713 17.2124C2.86687 17.3798 3.54554 16.9726 3.71297 16.3029L3.77916 16.0381C4.2311 16.3277 4.65421 16.5759 5.05067 16.768C5.8638 17.162 6.77179 17.425 7.72696 17.1546C8.65558 16.8917 9.34381 16.2024 9.92488 15.4054C10.3357 14.8419 10.7572 14.1327 11.215 13.2877C11.6556 13.5552 11.9262 13.7303 12.1179 13.8946C12.3 14.0506 12.3348 14.1326 12.3598 14.2346C12.4028 14.4107 12.4217 14.7383 12.3366 15.4343C12.2533 16.116 12.091 17.011 11.8609 18.2763C11.7946 18.641 11.8935 19.0163 12.131 19.3009C12.1936 19.3759 12.264 19.4425 12.3407 19.5H8.66584C8.23358 18.7527 7.42565 18.25 6.5003 18.25C5.11958 18.25 4.0003 19.3693 4.0003 20.75C4.0003 22.1307 5.11958 23.25 6.5003 23.25C7.42565 23.25 8.23358 22.7473 8.66584 22H18.3348C18.767 22.7473 19.5749 23.25 20.5003 23.25C21.881 23.25 23.0003 22.1307 23.0003 20.75C23.0003 19.8019 22.4725 18.977 21.6947 18.5532L20.3587 10.2029C20.3937 10.1889 20.429 10.1748 20.4645 10.1606C21.1055 9.90423 21.4172 9.17677 21.1608 8.53579C20.9609 8.036 20.4746 7.73637 19.9662 7.75015L19.9308 7.52882L21.7058 7.23299C22.3868 7.1195 22.8468 6.47546 22.7333 5.7945C22.6198 5.11354 21.9758 4.65351 21.2948 4.76701L19.2748 5.10367C18.0547 5.30702 17.2275 6.45713 17.423 7.67854L17.5698 8.59642C17.3893 8.65931 17.2244 8.71308 17.0714 8.7583C16.502 8.92658 16.2217 8.93654 16.0311 8.9067C15.8406 8.87687 15.5994 8.78581 15.1412 8.48062C14.8109 8.26069 14.4456 7.98502 13.962 7.62014L13.962 7.62011L13.962 7.6201C13.7406 7.45305 13.4945 7.26732 13.2156 7.05967C12.7828 6.73747 12.2886 6.37613 11.7169 5.97599ZM17.97 11.0977L19.1751 18.6297C18.8289 18.8465 18.5396 19.1458 18.3348 19.5H15.7504C16.054 19.2719 16.2503 18.9089 16.2503 18.5C16.2503 17.8096 15.6907 17.25 15.0003 17.25H14.5849C14.6849 16.674 14.765 16.1726 14.8181 15.7376C14.9107 14.9804 14.9439 14.2769 14.7881 13.6404C14.6142 12.9299 14.2371 12.4181 13.7445 11.9961C13.364 11.6701 12.8766 11.3689 12.3667 11.0624C12.5424 10.7134 12.7258 10.3467 12.9176 9.9626C13.2228 10.19 13.5019 10.3926 13.7554 10.5614C14.3325 10.9457 14.93 11.2647 15.6444 11.3766C16.3587 11.4885 17.0494 11.3717 17.7799 11.1558C17.8421 11.1374 17.9055 11.118 17.97 11.0977Z" fill="#26272B"/>
</svg>
