<svg width="24" height="24" viewBox="0 0 24 24" fill="none" xmlns="http://www.w3.org/2000/svg">
<path fill-rule="evenodd" clip-rule="evenodd" d="M7.48223 4.93664C5.78313 5.3631 3.92315 5.50672 1.46944 4.3557C0.84443 4.06252 0.575436 3.31817 0.868622 2.69317C1.16181 2.06816 1.90615 1.79917 2.53116 2.09235C4.3406 2.94115 5.58588 2.83506 6.87363 2.51185C7.17325 2.43665 7.50041 2.33901 7.8531 2.23375C8.99182 1.8939 10.3967 1.47461 12.0003 1.47461C13.6039 1.47461 15.0087 1.89382 16.1474 2.23361C16.5001 2.33885 16.8273 2.43648 17.1269 2.51167C18.4147 2.83484 19.6601 2.94092 21.4695 2.0923C22.0946 1.79917 22.8389 2.06823 23.132 2.69327C23.4251 3.3183 23.1561 4.06262 22.5311 4.35575C20.0774 5.50648 18.2175 5.36286 16.5184 4.93648C16.028 4.81342 15.5873 4.68233 15.1686 4.55779C14.1189 4.24559 13.2079 3.97461 12.0003 3.97461C10.7928 3.97461 9.88175 4.24562 8.83214 4.55787C8.41343 4.68243 7.97266 4.81355 7.48223 4.93664ZM1.69713 5.78689C2.36687 5.61946 3.04554 6.02666 3.21297 6.6964C4.1459 10.4281 5.69791 12.0528 7.50797 12.8573C7.95504 13.056 8.428 13.2105 8.92832 13.3306C7.39234 12.1319 6.7503 10.0718 6.7503 6.99957C6.7503 6.30922 7.30994 5.74957 8.0003 5.74957C8.69065 5.74957 9.2503 6.30922 9.2503 6.99957C9.2503 10.1145 9.97403 11.0869 10.7048 11.5222C11.1434 11.7834 11.7403 11.9506 12.586 12.0551C13.2428 12.1363 13.9569 12.1712 14.7817 12.2116C15.0329 12.2238 15.2944 12.2366 15.5677 12.2514C15.9086 12.2698 16.2272 12.4269 16.4494 12.6861C18.1728 14.6967 19.2231 17.7201 19.7377 21.3228C19.8354 22.0062 19.3605 22.6394 18.6771 22.737C17.9937 22.8346 17.3605 22.3598 17.2629 21.6763C17.0782 20.3839 16.8264 19.2246 16.5149 18.2023C16.2772 19.5632 15.8554 21.0845 15.1183 22.5586C14.8096 23.1761 14.0588 23.4263 13.4413 23.1176C12.8238 22.8089 12.5735 22.058 12.8823 21.4406C13.7662 19.6728 14.1214 17.7656 14.2464 16.2493C11.5593 16.2448 8.81577 16.1743 6.49262 15.1418C3.80269 13.9463 1.85469 11.571 0.787618 7.30274C0.620182 6.633 1.02738 5.95433 1.69713 5.78689ZM18.2503 12.5C18.2503 11.1193 19.3696 10.0001 20.7503 10C22.131 10 23.2503 11.1193 23.2503 12.5C23.2503 13.8807 22.131 15 20.7503 15C19.3696 15.0001 18.2503 13.8808 18.2503 12.5Z" fill="#26272B"/>
</svg>
