<svg width="24" height="24" viewBox="0 0 24 24" fill="none" xmlns="http://www.w3.org/2000/svg">
<path fill-rule="evenodd" clip-rule="evenodd" d="M14.2502 3.5C14.2501 2.11927 15.3694 0.999971 16.7502 1C18.1309 1.00003 19.2501 2.11931 19.2502 3.5C19.2502 4.88073 18.1309 6.00003 16.7502 6C15.3695 5.99997 14.2502 4.88069 14.2502 3.5ZM1.2672 2.7945C1.3807 2.11354 2.02473 1.65351 2.70569 1.76701L11.7057 3.26701C12.0328 3.32153 12.3089 3.49847 12.495 3.74312C12.6362 3.87363 12.7494 4.03879 12.8199 4.23185C13.4278 5.89668 15.2716 7.19854 18.3234 6.76256C18.9004 6.68014 19.4578 7.0074 19.6669 7.55141C20.2611 9.0968 20.7244 10.4184 20.7693 11.5141C20.7935 12.106 20.7018 12.6947 20.4106 13.2476C20.2157 13.6176 19.9553 13.9264 19.6541 14.1897C20.609 16.5279 21.7805 19.0306 23.0929 21.3927C23.308 21.7799 23.3021 22.2519 23.0776 22.6336C22.853 23.0153 22.4432 23.2497 22.0003 23.2498L20.0003 23.25C19.31 23.2501 18.7503 22.6905 18.7502 22.0001C18.7501 21.3373 19.2659 20.795 19.918 20.7527C19.0279 19.0173 18.2168 17.2487 17.5102 15.549C17.3021 15.7053 17.092 15.8936 16.8751 16.1395C16.1256 16.989 15.1886 18.6455 14.2085 22.322C14.0626 22.8692 13.567 23.25 13.0007 23.25H10.9992C10.3089 23.25 9.74922 22.6904 9.74922 22C9.74922 21.3096 10.3089 20.75 10.9992 20.75H12.0508C12.9913 17.5083 13.9696 15.6538 15.0004 14.4855C15.5459 13.8673 16.0806 13.47 16.5712 13.1689C16.1561 12.056 15.7969 10.9992 15.5019 10.0323C11.8144 10.4102 7.35732 9.24662 4.44562 4.67109C4.4272 4.64215 4.41012 4.61274 4.39437 4.58294L2.2947 4.23299C1.61373 4.1195 1.15371 3.47546 1.2672 2.7945ZM8.07814 5.1969C9.23321 6.2971 10.5436 6.96507 11.8707 7.31026C11.3927 6.82542 10.9977 6.26319 10.6992 5.63375L8.07814 5.1969Z" fill="#26272B"/>
</svg>
