<svg width="24" height="24" viewBox="0 0 24 24" fill="none" xmlns="http://www.w3.org/2000/svg">
<path fill-rule="evenodd" clip-rule="evenodd" d="M4.00029 6.25C4.00031 4.86931 5.11959 3.75003 6.50028 3.75C7.88102 3.74997 9.00031 4.86927 9.00029 6.25C9.00026 7.63069 7.88098 8.74997 6.50029 8.75C5.11955 8.75003 4.00026 7.63073 4.00029 6.25ZM2.00034 5.25C2.69069 5.25001 3.25033 5.80967 3.25031 6.50003C3.25029 7.56137 3.30968 8.75708 4.55944 9.38197C5.41791 9.81122 6.05326 9.92513 6.52834 9.90428C6.99442 9.88381 7.40228 9.72966 7.80702 9.45988C8.47086 9.01739 9.22701 9.0284 9.79214 9.12803C10.3776 9.23124 10.9694 9.46508 11.4987 9.72439C12.0617 10.0002 12.6208 10.3382 13.1212 10.6744C13.4603 9.86525 13.9225 8.87761 14.5754 8.15941C15.0014 7.69073 15.576 7.25694 16.3283 7.09327C17.0945 6.92656 17.8754 7.07669 18.6342 7.46665C20.0703 8.20473 21.6573 9.91962 23.5473 12.8178C23.9244 13.396 23.7614 14.1705 23.1831 14.5476C22.6049 14.9247 21.8304 14.7617 21.4533 14.1834C20.4145 12.5905 19.5541 11.5058 18.855 10.7856L23.7067 19.6526C24.0381 20.2582 23.8158 21.0178 23.2102 21.3492C22.6045 21.6806 21.845 21.4583 21.5136 20.8526L17.9727 14.3812L2.25977 21.3941C1.62935 21.6755 0.890205 21.3925 0.60884 20.7621C0.327476 20.1317 0.610439 19.3925 1.24086 19.1111L11.2122 14.6608C10.7512 14.5184 10.3186 14.3111 9.92782 14.0956C9.25279 13.7233 8.50239 13.2049 7.75812 12.6908C7.58609 12.572 7.41438 12.4534 7.24401 12.3368C7.04889 12.3705 6.84698 12.3927 6.63799 12.4019C5.64123 12.4456 4.58287 12.1888 3.44138 11.618C0.745733 10.2702 0.749053 7.54924 0.750262 6.55797C0.750287 6.53792 0.750311 6.51858 0.750311 6.49997C0.750326 5.80962 1.30998 5.24999 2.00034 5.25ZM14.8445 13.0396L16.7687 12.1808L15.9085 10.6087C15.6755 11.0433 15.4547 11.568 15.2207 12.1432C15.2111 12.1667 15.2015 12.1904 15.1918 12.2142C15.0824 12.4835 14.9658 12.7703 14.8445 13.0396Z" fill="#26272B"/>
</svg>
