<svg width="24" height="24" viewBox="0 0 24 24" fill="none" xmlns="http://www.w3.org/2000/svg">
<path fill-rule="evenodd" clip-rule="evenodd" d="M14.7499 1.25C13.3692 1.25003 12.2499 2.36931 12.2499 3.75C12.2498 5.13073 13.3691 6.25003 14.7499 6.25C16.1306 6.24997 17.2498 5.13069 17.2499 3.75C17.2499 2.36927 16.1306 1.24997 14.7499 1.25ZM2.00001 4.25C1.30965 4.25 0.75001 4.80964 0.75001 5.5C0.75001 6.19036 1.30965 6.75 2.00001 6.75C3.27778 6.75 5.80213 6.98865 7.982 7.52615C8.59074 7.67625 9.14579 7.84333 9.62513 8.02361C9.24666 8.39101 8.9107 8.7452 8.62801 9.08336C8.14247 9.66416 7.65866 10.3749 7.55991 11.1408C7.50436 11.5716 7.56839 12.0422 7.83571 12.4735C7.97607 12.6999 8.1517 12.8819 8.34212 13.0283C8.25662 13.1109 8.16977 13.1936 8.08162 13.2764C6.08956 15.1477 3.57948 16.9301 1.49232 17.8577C1.14453 18.0123 0.886113 18.3169 0.790283 18.6853C0.694452 19.0536 0.771653 19.4455 1.00001 19.75L2.50001 21.75C2.91422 22.3023 3.69773 22.4142 4.25001 22C4.80229 21.5858 4.91422 20.8023 4.50001 20.25L3.89818 19.4476C5.93002 18.3282 8.06167 16.7252 9.7933 15.0986C10.2678 14.6529 10.7192 14.1989 11.1354 13.7455C11.2552 13.7485 11.3767 13.75 11.4998 13.75C12.3042 13.75 12.8962 13.7714 13.3188 13.8286L13.3084 13.8464C12.954 14.4492 12.2437 15.3442 11.0656 16.6695C10.7386 17.0374 10.6579 17.563 10.8596 18.012C10.8979 18.0975 10.9452 18.1772 10.9999 18.2501H8.50001C7.80965 18.2501 7.25001 18.8098 7.25001 19.5001C7.25001 20.1905 7.80965 20.7501 8.50001 20.7501H9.51548C9.63851 21.7367 10.4801 22.5001 11.5 22.5001C12.5199 22.5001 13.3615 21.7367 13.4845 20.7501H16.0155C16.1385 21.7367 16.9801 22.5001 18 22.5001C19.0201 22.5001 19.8618 21.7365 19.9846 20.7497C21.0504 20.7317 22.0412 20.1918 22.6338 19.3029L23.0401 18.6935C23.423 18.1191 23.2678 17.343 22.6934 16.9601C22.119 16.5771 21.3429 16.7323 20.9599 17.3068L20.5537 17.9162C20.4146 18.1248 20.1804 18.2501 19.9296 18.2501H14.9999C15.1569 18.0412 15.2499 17.7814 15.2499 17.5C15.2499 17.0164 14.9754 16.597 14.5737 16.3891C14.9422 15.9164 15.2407 15.4924 15.4634 15.1136C15.7073 14.699 15.924 14.2348 15.9904 13.7507C16.0652 13.2057 15.9462 12.6163 15.5038 12.1448C14.9907 11.5978 14.2377 11.4334 13.6929 11.3566C13.4808 11.3267 13.2519 11.3047 13.0089 11.2887C13.1773 10.9989 13.3282 10.7004 13.4491 10.3983C14.4733 10.7262 15.5729 10.7485 16.5398 10.5426C18.3279 10.1618 20.2499 8.831 20.2499 6.49997C20.2499 5.80962 19.6902 5.24997 18.9999 5.24997C18.3095 5.24997 17.7499 5.80962 17.7499 6.49997C17.7499 7.16895 17.2014 7.84566 16.0191 8.09741C14.9252 8.33035 13.7998 8.05209 13.1502 7.36625C13.1023 7.30671 13.0524 7.24905 13.0009 7.19324C12.9768 7.1656 12.9518 7.13927 12.9259 7.11425C12.6006 6.78196 12.2218 6.51882 11.8722 6.31653C10.9525 5.78433 9.76538 5.39101 8.58052 5.09885C6.19789 4.51135 3.47224 4.25 2.00001 4.25Z" fill="#26272B"/>
</svg>
