<svg width="24" height="24" viewBox="0 0 24 24" fill="none" xmlns="http://www.w3.org/2000/svg">
<path fill-rule="evenodd" clip-rule="evenodd" d="M5.5004 5.25C6.19075 5.25 6.7504 5.80964 6.7504 6.5C6.7504 7.80223 7.17916 8.59719 7.75911 9.14447C8.38225 9.73251 9.28142 10.1274 10.3461 10.3956C11.3237 10.6419 12.3263 10.7558 13.2354 10.8591C13.3134 10.868 13.3906 10.8768 13.4671 10.8855C13.9275 10.9384 14.3992 10.9955 14.786 11.079C14.9808 11.121 15.2001 11.1791 15.4088 11.2671C15.597 11.3465 15.8949 11.4984 16.131 11.7925C16.1269 11.7873 16.1248 11.7845 16.1254 11.7839C16.1288 11.7799 16.2501 11.8779 16.6126 11.981C17.0037 12.0922 17.5255 12.1649 18.1022 12.1576C19.2935 12.1425 20.4364 11.7962 21.1165 11.1161C21.6047 10.628 22.3961 10.628 22.8843 11.1161C23.3724 11.6043 23.3724 12.3957 22.8843 12.8839C21.5644 14.2038 19.6711 14.6379 18.1338 14.6574C18.0398 14.6586 17.9462 14.6582 17.8529 14.6564C17.9905 14.7415 18.1372 14.8249 18.293 14.906C18.9405 15.243 19.64 15.4774 20.2652 15.5867C20.9208 15.7013 21.3594 15.6554 21.5616 15.5796C22.208 15.3372 22.9285 15.6647 23.1709 16.3111C23.4133 16.9575 23.0858 17.678 22.4394 17.9204C21.6415 18.2196 20.6936 18.1995 19.8348 18.0494C18.9455 17.894 18.0028 17.5733 17.1388 17.1236C16.3247 16.6998 15.4525 16.0869 14.7968 15.2964C10.2256 15.9895 6.6944 16.0191 4.30381 15.1051C3.02525 14.6162 2.01435 13.8353 1.39053 12.7059C0.776868 11.5949 0.615483 10.2869 0.75661 8.87562C0.825304 8.18869 1.43786 7.68751 2.12479 7.7562C2.81172 7.8249 3.3129 8.43745 3.2442 9.12438C3.13533 10.2131 3.28638 10.9676 3.5789 11.4972C3.86126 12.0084 4.35027 12.4463 5.19667 12.7699C6.54453 13.2853 8.6251 13.4458 11.592 13.1746C11.0004 13.0899 10.3655 12.9786 9.73534 12.8198C8.48174 12.504 7.11075 11.97 6.0433 10.9627C4.93266 9.91464 4.2504 8.44777 4.2504 6.5C4.2504 5.80964 4.81004 5.25 5.5004 5.25ZM15.5004 8.75C15.5004 7.36929 16.6197 6.25 18.0004 6.25C19.3811 6.25 20.5004 7.36929 20.5004 8.75C20.5004 10.1307 19.3811 11.25 18.0004 11.25C16.6197 11.25 15.5004 10.1307 15.5004 8.75ZM9.77467 7.75485C9.91006 7.0779 10.5686 6.63888 11.2455 6.77427L13.7455 7.27427C14.4225 7.40966 14.8615 8.0682 14.7261 8.74515C14.5907 9.42209 13.9322 9.86112 13.2553 9.72573L10.7553 9.22573C10.0783 9.09034 9.63928 8.4318 9.77467 7.75485Z" fill="#26272B"/>
</svg>
