<svg width="24" height="24" viewBox="0 0 24 24" fill="none" xmlns="http://www.w3.org/2000/svg">
<path fill-rule="evenodd" clip-rule="evenodd" d="M8.17583 3.75C8.17586 2.36931 9.29514 1.25003 10.6758 1.25C12.0566 1.24997 13.1759 2.36927 13.1758 3.75C13.1758 5.13069 12.0565 6.24997 10.6758 6.25C9.2951 6.25003 8.17581 5.13073 8.17583 3.75ZM19.7501 3C19.7501 6.19607 17.1575 8.0716 14.2879 9.18228C14.4014 9.45274 14.5081 9.75342 14.5875 10.0711C14.6373 10.1299 14.6915 10.1927 14.7503 10.2594C15.1262 10.6859 15.6303 11.2059 16.236 11.7813C17.4472 12.9319 19.0276 14.2693 20.7266 15.4828C21.1233 15.7662 21.319 16.2543 21.2281 16.7332C21.1908 16.9296 21.1081 17.1097 20.9909 17.2621L22.3231 16.9051C22.7232 16.7979 23.1344 17.0353 23.2416 17.4354C23.3488 17.8355 23.1114 18.2468 22.7113 18.354L5.8076 22.8833C4.6073 23.205 3.37354 22.4926 3.05192 21.2923C2.94472 20.8922 3.18216 20.481 3.58225 20.3738C3.98235 20.2666 4.39361 20.504 4.50081 20.9041C4.60802 21.3042 5.01927 21.5416 5.41937 21.4344L6.83124 21.0561C6.57262 20.8924 6.37319 20.6339 6.29018 20.3143C6.11666 19.6461 6.51768 18.9638 7.18587 18.7902L7.71491 18.6529C7.40401 17.8322 7.20205 17.113 7.11334 16.4776C6.97501 15.487 7.09837 14.5839 7.63365 13.8354C8.13904 13.1287 8.88098 12.7528 9.52394 12.5005C9.78237 12.3991 10.0802 12.2988 10.3868 12.2005C10.3504 12.0679 10.3161 11.9367 10.2823 11.8073L10.2508 11.687C10.1507 11.3057 10.0391 10.8896 9.87659 10.4004C7.63796 10.8371 5.26975 11.0911 3.08911 11.2468C2.40051 11.296 1.80242 10.7777 1.75323 10.0891C1.70404 9.40046 2.22239 8.80236 2.91099 8.75318C5.41551 8.57428 8.05507 8.26901 10.3952 7.7368L10.4046 7.73467C11.3088 7.52872 12.1682 7.28883 12.9577 7.00922C15.8982 5.96779 17.2501 4.62079 17.2501 3C17.2501 2.30964 17.8097 1.75 18.5001 1.75C19.1904 1.75 19.7501 2.30964 19.7501 3ZM17.5777 18.1766C17.1987 18.0402 16.8924 17.7233 16.7874 17.3032C16.6603 16.7949 16.8642 16.2816 17.2625 15.9904C16.2412 15.169 15.3058 14.3458 14.5141 13.5937C14.3477 13.4357 14.187 13.2801 14.0327 13.1278C13.6441 13.5904 13.1035 13.9435 12.4328 14.1732C12.4085 14.1822 12.3842 14.1903 12.3597 14.1977C12.0325 14.3063 11.7492 14.3941 11.4933 14.4734L11.4933 14.4734L11.4933 14.4734L11.4932 14.4734C11.0959 14.5965 10.7647 14.6992 10.4373 14.8277C9.92573 15.0285 9.74284 15.1838 9.66713 15.2897C9.6213 15.3538 9.50728 15.5444 9.58932 16.1319C9.67485 16.7445 9.95653 17.6475 10.5635 18.9829C10.7162 19.3189 10.7126 19.7052 10.5537 20.0383L10.5422 20.0618L17.5777 18.1766Z" fill="#26272B"/>
</svg>
