<svg width="24" height="24" viewBox="0 0 24 24" fill="none" xmlns="http://www.w3.org/2000/svg">
<path fill-rule="evenodd" clip-rule="evenodd" d="M17.25 0.75C15.8693 0.749971 14.75 1.86926 14.75 3.25C14.7501 4.6307 15.8694 5.74997 17.25 5.75C18.6308 5.75003 19.7501 4.63073 19.75 3.25C19.75 1.86931 18.6307 0.750029 17.25 0.75ZM5.7451 7.22614C6.86246 7.00276 8.84884 6.88312 10.5848 7.1146C11.2389 7.20182 11.8068 7.33261 12.2578 7.49938C11.7784 8.01066 11.3866 8.46722 11.0853 8.87857C10.6488 9.47454 10.2499 10.1733 10.2499 10.9374C10.2499 11.7446 10.676 12.306 11.1358 12.6785C10.5616 13.4499 9.96757 14.1398 9.46776 14.6396C9.3068 14.8006 9.16337 14.934 9.04011 15.0404C8.77956 14.7404 8.48097 14.311 8.18504 13.8375C7.89083 13.3668 7.62299 12.8909 7.42728 12.5296C7.32992 12.3499 7.25154 12.2006 7.19793 12.0971C7.17114 12.0453 7.15061 12.0052 7.13704 11.9785L7.12204 11.9489L7.11864 11.9421L7.11808 11.941C6.95229 11.6096 6.64789 11.3686 6.28724 11.2834C5.9265 11.1983 5.54657 11.2776 5.25004 11.5L3.25004 13C2.69776 13.4142 2.58583 14.1977 3.00004 14.75C3.41426 15.3023 4.19776 15.4142 4.75004 15L5.59086 14.3694C5.73508 14.6207 5.89531 14.8909 6.06505 15.1625C6.39031 15.6829 6.77535 16.2486 7.1687 16.6981C7.36389 16.9212 7.59343 17.1533 7.84881 17.339C8.07835 17.506 8.48267 17.75 9.00004 17.75C9.34139 17.75 9.62168 17.6327 9.77964 17.5557C9.96005 17.4678 10.1301 17.3571 10.2809 17.247C10.5842 17.0257 10.9102 16.7326 11.2354 16.4075C11.8909 15.7521 12.6363 14.8719 13.3249 13.921C13.3524 13.8831 13.3797 13.8451 13.4071 13.8069L13.5707 13.8704C14.0109 14.0411 14.3685 14.1798 14.6946 14.3501C15.1241 14.5745 15.2572 14.7395 15.3046 14.841C15.3391 14.915 15.427 15.165 15.2012 15.818C14.9707 16.4843 14.4586 17.4311 13.4887 18.7648C13.2121 19.145 13.1723 19.6482 13.3857 20.0672C13.599 20.4862 14.0294 20.75 14.4996 20.75H16.9998C17.6901 20.75 18.2498 20.1904 18.2498 19.5C18.2498 18.8096 17.6901 18.25 16.9998 18.25H16.8108C17.1431 17.6649 17.393 17.1292 17.5639 16.6351C17.9163 15.6162 17.973 14.6475 17.5701 13.784C17.1801 12.948 16.4696 12.4568 15.8522 12.1343C15.5136 11.9574 15.1292 11.7964 14.7598 11.6502C14.8938 11.3987 15.0183 11.1476 15.1308 10.8991C15.2012 10.7439 15.2699 10.5832 15.3347 10.4185C16.0734 10.7337 16.9276 10.9035 17.7627 10.9368C18.6793 10.9734 19.6633 10.8491 20.5308 10.4918C21.4012 10.1334 22.2483 9.49515 22.6606 8.46424C22.917 7.82326 22.6053 7.0958 21.9643 6.8394C21.3233 6.58301 20.5958 6.89478 20.3394 7.53576C20.2518 7.75485 20.0364 7.99172 19.5787 8.18022C19.1181 8.36994 18.5083 8.46457 17.8624 8.43879C17.2161 8.413 16.6241 8.27027 16.2054 8.0691C15.8089 7.87862 15.7248 7.71978 15.7137 7.69808C15.4679 6.58323 14.6382 5.87718 13.8038 5.45028C12.953 5.01502 11.9204 4.77057 10.9153 4.63654C8.90125 4.36797 6.63762 4.49823 5.25499 4.77465C4.57803 4.90999 4.13896 5.56849 4.2743 6.24545C4.40964 6.92241 5.06814 7.36148 5.7451 7.22614ZM4.95004 10.6C5.28141 10.3515 5.34857 9.88137 5.10004 9.55C4.85152 9.21863 4.38142 9.15147 4.05004 9.4L2.05004 10.9C1.71867 11.1485 1.65152 11.6186 1.90004 11.95C2.14857 12.2814 2.61867 12.3485 2.95004 12.1L4.95004 10.6ZM14.2 21.75C13.7858 21.75 13.45 22.0858 13.45 22.5C13.45 22.9142 13.7858 23.25 14.2 23.25H17.2C17.6143 23.25 17.95 22.9142 17.95 22.5C17.95 22.0858 17.6143 21.75 17.2 21.75H14.2Z" fill="#26272B"/>
</svg>
