<svg width="24" height="24" viewBox="0 0 24 24" fill="none" xmlns="http://www.w3.org/2000/svg">
<path fill-rule="evenodd" clip-rule="evenodd" d="M5.60483 1.31449C6.25976 1.09618 6.96765 1.45013 7.18596 2.10505C7.29228 2.424 7.40876 2.73274 7.53524 3.03135C7.86935 2.63412 8.18187 2.2242 8.46003 1.80696C8.84297 1.23255 9.61905 1.07734 10.1935 1.46028C10.7679 1.84322 10.9231 2.6193 10.5402 3.19371C10.0384 3.94631 9.45573 4.66245 8.84604 5.32399C9.71837 6.48279 10.811 7.41209 12.1074 8.11822C14.4645 9.40211 17.5809 9.99285 21.4221 9.75277C22.1111 9.70971 22.7046 10.2334 22.7477 10.9224C22.7907 11.6114 22.2671 12.2048 21.5781 12.2479C18.9717 12.4108 16.5764 12.2274 14.4408 11.6807C12.3068 12.7869 10.4452 13.3686 8.84315 13.5592C8.82978 13.8697 8.82423 14.2242 8.82809 14.6291C8.84121 16.0075 8.95753 17.8282 9.15177 20.2503H9.99992C10.6903 20.2503 11.2499 20.81 11.2499 21.5003C11.2499 22.1907 10.6903 22.7503 9.99992 22.7503H7.99992C7.3498 22.7503 6.80821 22.252 6.75423 21.6041C6.50471 18.609 6.34432 16.3462 6.3282 14.6529C6.32444 14.258 6.32805 13.8824 6.34173 13.5263C5.39712 13.3717 4.58376 13.0532 3.8968 12.6207C2.82925 11.9486 2.14147 11.0381 1.80147 10.1938C1.6348 9.77997 1.52899 9.32483 1.54689 8.88417C1.56195 8.51334 1.69699 7.75428 2.44088 7.38232C2.81298 7.19625 3.85082 6.51779 5.06544 5.4854C5.26692 5.31415 5.47066 5.13534 5.67455 4.94986C5.34275 4.30454 5.05552 3.61943 4.81426 2.89562C4.59595 2.24069 4.9499 1.53279 5.60483 1.31449ZM7.04356 7.07961C6.92275 7.18603 6.80293 7.28964 6.68453 7.39028C5.72122 8.20906 4.79904 8.87561 4.13309 9.2904C4.28444 9.64645 4.62597 10.1255 5.22874 10.505C5.59397 10.735 6.08808 10.9453 6.7328 11.0534C6.77234 10.9426 6.81535 10.8359 6.86208 10.7331C7.09759 10.215 7.43335 9.78104 7.89172 9.45565C8.21561 9.22572 8.56428 9.07593 8.91435 8.97593C8.22305 8.41196 7.5985 7.7791 7.04356 7.07961ZM13.7501 5.75034C13.7501 4.36963 14.8694 3.25034 16.2501 3.25034C17.6308 3.25034 18.7501 4.36963 18.7501 5.75034C18.7501 7.13105 17.6308 8.25034 16.2501 8.25034C14.8694 8.25034 13.7501 7.13105 13.7501 5.75034Z" fill="#26272B"/>
</svg>
