<svg width="24" height="24" viewBox="0 0 24 24" fill="none" xmlns="http://www.w3.org/2000/svg">
<path fill-rule="evenodd" clip-rule="evenodd" d="M9.11176 1.03477C9.28905 0.367568 9.97364 -0.0295885 10.6408 0.147698C11.9047 0.483514 13.3024 0.909366 14.555 1.44429C15.7749 1.96522 17.0075 2.65084 17.8017 3.57593C18.2135 4.0557 18.5429 4.64095 18.6507 5.33134C18.7604 6.03317 18.6237 6.73289 18.2842 7.39826C17.7194 8.50497 16.5715 9.56431 14.8801 10.6275C15.5315 12.4216 15.9969 14.0326 16.1221 15.7855C16.2311 17.3114 16.0793 18.89 15.6341 20.7495H16.0003C16.6907 20.7495 17.2503 21.3092 17.2503 21.9995C17.2503 22.6899 16.6907 23.2495 16.0003 23.2495H14.0003C13.6052 23.2495 13.2333 23.0627 12.9975 22.7457C12.7616 22.4287 12.6895 22.0188 12.803 21.6404C13.4766 19.3951 13.7083 17.75 13.6464 16.2786C13.5924 16.5338 13.5281 16.7871 13.4539 17.0396C12.9013 18.9191 11.8076 20.6922 10.5952 22.6561C10.3675 23.025 9.96502 23.2495 9.53157 23.2495H7.5008C6.81044 23.2495 6.2508 22.6899 6.2508 21.9995C6.2508 21.3092 6.81044 20.7495 7.5008 20.7495H8.83316C9.89811 19.0119 10.6596 17.6807 11.0554 16.3344C11.3935 15.1845 11.4713 13.9872 11.1254 12.488C10.2687 12.7753 9.49044 12.916 8.7859 12.9055C8.0339 12.8943 7.34485 12.7101 6.7552 12.33C6.16702 11.9509 5.75234 11.425 5.47108 10.8472C4.92908 9.73372 4.84262 8.3492 4.92968 7.04969C5.01895 5.7171 5.30378 4.30581 5.64876 3.02929C5.82887 2.36284 6.51514 1.96859 7.18159 2.14869C7.84803 2.3288 8.24229 3.01507 8.06218 3.68152C7.74358 4.86044 7.49883 6.10109 7.42409 7.21679C7.34713 8.36557 7.46223 9.22569 7.71892 9.75305C7.837 9.99563 7.97096 10.1393 8.10963 10.2287C8.24683 10.3171 8.46287 10.4004 8.82312 10.4058C9.59506 10.4173 10.8823 10.0673 12.8751 8.9168C14.8806 7.75891 15.7532 6.858 16.0573 6.26198C16.1924 5.99723 16.1979 5.8276 16.1807 5.71728C16.1617 5.59553 16.0949 5.42585 15.9048 5.20433C15.4949 4.72684 14.6996 4.22444 13.5732 3.74343C12.4795 3.2764 11.2126 2.88636 9.99884 2.56386C9.33163 2.38657 8.93448 1.70197 9.11176 1.03477ZM8.50032 6.24954C8.50032 4.86883 9.61961 3.74954 11.0003 3.74954C12.381 3.74954 13.5003 4.86882 13.5003 6.24954C13.5003 7.63025 12.381 8.74954 11.0003 8.74954C9.61961 8.74954 8.50032 7.63025 8.50032 6.24954Z" fill="#26272B"/>
</svg>
