<svg width="24" height="24" viewBox="0 0 24 24" fill="none" xmlns="http://www.w3.org/2000/svg">
<path fill-rule="evenodd" clip-rule="evenodd" d="M14.189 6.93318C14.0869 7.348 13.8939 7.75604 13.5401 8.08083C13.1192 8.46729 12.6306 8.58652 12.2862 8.63504C12.0402 8.66972 11.747 8.67999 11.5267 8.68771C11.4682 8.68976 11.4149 8.69163 11.369 8.69372C10.8512 8.71736 10.4127 8.77806 9.9474 9.07618C9.46805 9.38332 8.82077 10.0363 8.13459 11.523C8.02559 11.7592 7.84564 11.9555 7.61981 12.0845C6.34569 12.8126 5.70517 14.1959 5.41857 15.8392C5.23531 16.89 5.21693 17.9062 5.22777 18.7497H5.99968C6.69003 18.7497 7.24968 19.3093 7.24968 19.9997C7.24968 20.6901 6.69003 21.2497 5.99968 21.2497H3.99968C3.30932 21.2497 2.74968 20.6901 2.74968 19.9997C2.74968 19.8716 2.74555 19.7053 2.74065 19.5077C2.71792 18.5911 2.67845 16.9997 2.95575 15.4097C3.20182 13.9987 3.72348 12.4061 4.84584 11.1531C4.51112 10.7565 4.24992 10.2147 4.24964 9.5002C4.24945 9.01363 4.45579 8.57151 4.62126 8.27705C4.8097 7.9417 5.06318 7.59541 5.35246 7.25883C5.93241 6.58406 6.73046 5.86235 7.65341 5.25076C9.4327 4.07173 12.0695 3.06325 14.5522 4.2842C16.6455 5.31362 18.1281 6.79935 19.105 8.11945C20.053 9.40056 20.6016 10.6331 20.7259 11.2547C20.7888 11.5692 20.8206 12.1372 20.8297 12.7549C20.8394 13.4133 20.824 14.2393 20.7639 15.1261C20.6876 16.2532 20.5347 17.5539 20.2382 18.7498H20.5001C21.1905 18.7498 21.7501 19.3094 21.7501 19.9998C21.7501 20.6901 21.1905 21.2498 20.5001 21.2498H18.5001C18.0732 21.2498 17.6757 21.0318 17.4462 20.6718C17.2166 20.3118 17.1867 19.8595 17.3668 19.4724C17.8777 18.3746 18.1561 16.6335 18.2697 14.9571C18.3249 14.1425 18.3387 13.3852 18.33 12.7917C18.3256 12.4949 18.3157 12.2448 18.3032 12.0532C18.297 11.9574 18.2904 11.8808 18.2842 11.8233C18.2775 11.7608 18.2732 11.7389 18.2744 11.7449C18.2745 11.7452 18.2744 11.7449 18.2742 11.7441C18.272 11.7357 18.2555 11.6716 18.207 11.5447C18.1574 11.4151 18.0845 11.2463 17.9853 11.0465C17.7869 10.647 17.4936 10.1446 17.0954 9.60657C16.4216 8.6961 15.4668 7.70876 14.189 6.93318ZM7.49964 14.2497C7.49964 12.869 8.61893 11.7497 9.99964 11.7497C11.3804 11.7497 12.4996 12.869 12.4996 14.2497C12.4996 15.6304 11.3804 16.7497 9.99964 16.7497C8.61893 16.7497 7.49964 15.6304 7.49964 14.2497Z" fill="#26272B"/>
</svg>
