<svg width="24" height="24" viewBox="0 0 24 24" fill="none" xmlns="http://www.w3.org/2000/svg">
<path fill-rule="evenodd" clip-rule="evenodd" d="M8.75593 1.72226C8.93538 1.05564 9.62126 0.660704 10.2879 0.840155C12.218 1.35973 13.7223 2.19975 14.7476 3.36851C15.7877 4.55428 16.25 5.98282 16.25 7.49933C16.25 8.50214 16.1056 9.78845 15.3918 11.0736C15.7817 12.1259 15.875 13.1924 15.875 13.9998C15.875 14.1728 15.8707 14.3371 15.8636 14.4906C17.7964 14.7643 19.5666 15.2508 20.8532 15.843C21.3626 16.0775 21.8356 16.3463 22.2237 16.6529C22.5939 16.9453 22.9935 17.3553 23.1867 17.9028C23.411 18.5382 23.2995 19.1986 22.8981 19.7375C22.5487 20.2068 22.0281 20.5243 21.4981 20.7545C20.439 21.2147 18.8249 21.5436 16.6132 21.7447C15.9256 21.8072 15.3176 21.3005 15.2551 20.613C15.1926 19.9254 15.6993 19.3174 16.3868 19.2549C18.5004 19.0628 19.7849 18.7664 20.475 18.4732C20.3041 18.3622 20.0829 18.2406 19.8078 18.1139C18.3643 17.4495 15.9616 16.8847 13.4234 16.7707C13.2232 17.2542 12.9521 17.7365 12.5912 18.2026C10.9359 20.3403 7.6956 21.7498 2 21.7498C1.30964 21.7498 0.75 21.1902 0.75 20.4998C0.75 19.8094 1.30964 19.2498 2 19.2498C7.38132 19.2498 9.65644 17.9093 10.6146 16.672C10.9234 16.2732 11.1269 15.845 11.2532 15.4102C11.263 15.2714 11.2955 15.139 11.3469 15.0164C11.3795 14.8432 11.4013 14.6701 11.414 14.4984C9.63706 15.3186 7.26603 15.929 4.12438 16.2431C3.43745 16.3118 2.8249 15.8106 2.7562 15.1237C2.68751 14.4368 3.18869 13.8242 3.87562 13.7555C8.74909 13.2682 11.1745 12.0695 12.3851 10.9093C13.546 9.79681 13.75 8.56362 13.75 7.49933C13.75 6.51584 13.4623 5.69439 12.8682 5.01712C12.2592 4.32284 11.245 3.68679 9.63804 3.25422C8.97141 3.07477 8.57648 2.38889 8.75593 1.72226ZM7.46296 7.74933C7.46296 6.36862 8.58225 5.24933 9.96296 5.24933C11.3437 5.24933 12.463 6.36862 12.463 7.74933C12.463 9.13005 11.3437 10.2493 9.96296 10.2493C8.58225 10.2493 7.46296 9.13005 7.46296 7.74933Z" fill="#26272B"/>
</svg>
