<svg width="24" height="24" viewBox="0 0 24 24" fill="none" xmlns="http://www.w3.org/2000/svg">
<path fill-rule="evenodd" clip-rule="evenodd" d="M11.75 4.25C11.75 2.86929 12.8693 1.75 14.25 1.75C15.6307 1.75 16.75 2.86929 16.75 4.25C16.75 5.63071 15.6307 6.75 14.25 6.75C12.8693 6.75 11.75 5.63071 11.75 4.25ZM18.8365 13.4294C19.6449 14.3134 20.4154 15.0115 21.1203 15.4143C21.7196 15.7569 21.9279 16.5205 21.5853 17.1198C21.2428 17.7192 20.4792 17.9274 19.8798 17.5849C18.8347 16.9876 17.8552 16.0608 16.9917 15.1166C16.1804 14.2296 15.4082 13.2551 14.7331 12.4031C14.6984 12.3593 14.664 12.3159 14.6299 12.2729C14.5315 12.8111 14.3983 13.3172 14.2217 13.757C14.133 13.9779 14.0181 14.2209 13.8677 14.4567C14.1963 14.6855 14.5477 14.9228 14.9133 15.1671C15.0553 15.262 15.1995 15.358 15.3447 15.4546C16.155 15.9942 16.9984 16.5557 17.6921 17.0794C18.103 17.3895 18.4952 17.7112 18.8152 18.0321C19.1099 18.3277 19.4591 18.7342 19.6279 19.2251C19.7198 19.4924 19.7747 19.8326 19.6918 20.204C19.6065 20.5862 19.3996 20.892 19.1488 21.1167C18.7024 21.5168 18.0964 21.6817 17.5676 21.7688C16.2747 21.9818 14.1364 21.9772 10.911 21.7468C10.2224 21.6976 9.70403 21.0995 9.75322 20.4109C9.8024 19.7223 10.4005 19.204 11.0891 19.2532C13.7538 19.4435 15.4943 19.4619 16.567 19.3727C16.4517 19.2787 16.3246 19.1794 16.1859 19.0747C15.5569 18.5999 14.7874 18.0873 13.9735 17.5452C13.825 17.4463 13.675 17.3465 13.5242 17.2456C12.7056 16.6986 11.8538 16.1194 11.1604 15.5632C9.88166 17.9832 7.85638 20.5528 4.44876 21.8635C3.9973 22.0371 3.48617 21.9347 3.13646 21.6005C2.78674 21.2663 2.66122 20.7604 2.81419 20.3015C3.06138 19.5599 3.6601 17.7609 4.01801 15.6731C4.10072 15.1907 4.16865 14.7031 4.2169 14.2178C3.66293 14.0895 3.25004 13.593 3.25004 13C3.25004 12.3896 3.68759 11.8814 4.26616 11.7718C4.20872 11.004 4.07109 10.28 3.82964 9.63618C3.58722 8.98979 3.9147 8.26926 4.56109 8.02684C5.20748 7.78441 5.92801 8.11189 6.17043 8.75829C6.47072 9.55896 6.64672 10.4137 6.73259 11.2822C7.46481 10.9799 8.15572 10.5552 8.81446 10.0809C9.28066 9.74526 9.69446 9.41293 10.099 9.08805C10.2624 8.95684 10.4242 8.82685 10.5874 8.69834C11.0768 8.31303 11.6882 7.84609 12.2987 7.63677C12.668 7.50402 13.0222 7.52677 13.303 7.60006C13.812 7.73291 14.2336 8.07155 14.5212 8.33338C15.1364 8.89338 15.8462 9.78331 16.5419 10.6605C16.5883 10.7189 16.6348 10.7776 16.6815 10.8365C17.3675 11.7021 18.0876 12.6105 18.8365 13.4294ZM9.86011 12.4C8.98313 12.9944 7.94377 13.5747 6.75159 13.9224C6.69716 14.677 6.59949 15.4106 6.48207 16.0955C6.3631 16.7895 6.22026 17.4526 6.07193 18.0607C7.47009 16.9113 8.45345 15.4271 9.18999 13.9235C9.44276 13.4075 9.66337 12.8955 9.86011 12.4Z" fill="#26272B"/>
</svg>
