<svg width="24" height="24" viewBox="0 0 24 24" fill="none" xmlns="http://www.w3.org/2000/svg">
<g clip-path="url(#clip0_20070_3263)">
<path fill-rule="evenodd" clip-rule="evenodd" d="M8.90091 0.938231C8.82901 0.89368 8.75148 0.855799 8.66885 0.825724C8.02013 0.589609 7.30283 0.924093 7.06671 1.57281L3.14906 12.3365C3.01474 12.4006 2.8642 12.4782 2.70748 12.5694C2.23914 12.8419 1.434 13.3938 1.10395 14.3006C0.866379 14.9533 0.788204 15.6758 1.0513 16.3546C1.32488 17.0605 1.88712 17.5121 2.51263 17.7398C3.13813 17.9675 3.85917 17.9829 4.52247 17.618C5.16033 17.2671 5.56484 16.6634 5.80242 16.0107C6.00296 15.4597 5.98491 14.8964 5.89868 14.4248C8.09022 15.0067 10.2159 14.9627 11.9926 14.3747C13.268 13.9526 14.3915 13.2355 15.1903 12.2541C15.8499 12.2803 16.1365 12.4435 16.3046 12.5909C16.3658 12.6445 16.4253 12.7081 16.4851 12.7856C15.4608 13.2544 14.3535 13.8872 13.4651 14.8314C12.4347 15.9265 11.7638 17.3655 11.7009 19.2504H11.0009C10.3106 19.2504 9.75093 19.8101 9.75093 20.5004C9.75093 20.5666 9.75606 20.6315 9.76596 20.6949C5.50002 20.5124 3.70909 19.9377 3.46409 19.8398C2.82309 19.5834 2.09565 19.8953 1.83932 20.5362C1.58298 21.1772 1.89481 21.9047 2.53581 22.161C3.2442 22.4443 6.08943 23.2504 12.5 23.2504C18.9103 23.2504 21.7561 22.4444 22.4644 22.1609C23.1053 21.9044 23.417 21.1769 23.1605 20.536C22.9944 20.1209 22.6308 19.844 22.2211 19.7699C22.296 19.4308 22.2267 19.0726 22.0245 18.7838C20.7999 17.0343 20.2993 15.5835 19.8431 14.2616L19.8422 14.2587C19.8102 14.1662 19.7785 14.0743 19.7468 13.983C20.0054 13.7965 20.2402 13.581 20.4297 13.3301C20.6569 13.0295 20.8328 12.6589 20.8799 12.2264C20.9272 11.7913 20.8345 11.3805 20.6595 11.0181C20.3319 10.3395 19.6981 9.78817 18.9737 9.3198C18.2969 8.88225 17.421 8.44171 16.3409 7.99297C16.1415 6.79116 15.551 5.64366 14.7232 4.6495C13.3811 3.0376 11.3358 1.70882 8.90091 0.938231ZM8.98226 3.6194L5.98805 11.8459C7.98373 12.4912 9.81946 12.4605 11.2072 12.0013C12.6169 11.5348 13.4963 10.6623 13.8027 9.64121C14.0953 8.66564 13.8151 7.46592 12.802 6.24913C11.9504 5.22632 10.6381 4.27792 8.98226 3.6194ZM14.23 20.729C14.2522 20.6093 14.2571 20.4858 14.2434 20.3623C14.0306 18.448 14.5563 17.3199 15.2858 16.5445C15.8636 15.9305 16.625 15.4762 17.4755 15.0828C17.8155 16.0697 18.2635 17.3222 19.0306 18.7043L18.697 18.7877C18.0272 18.955 17.6199 19.6336 17.7872 20.3034C17.8053 20.3758 17.8294 20.4451 17.8588 20.511C16.8777 20.6106 15.6775 20.692 14.23 20.729ZM7.99993 8.75039C7.99996 7.36971 9.11923 6.25042 10.4999 6.25039C11.8806 6.25036 13 7.36965 12.9999 8.75039C12.9999 10.1311 11.8806 11.2504 10.4999 11.2504C9.11919 11.2504 7.9999 10.1311 7.99993 8.75039Z" fill="#26272B"/>
</g>
<defs>
<clipPath id="clip0_20070_3263">
<rect width="24" height="24" fill="white"/>
</clipPath>
</defs>
</svg>
