<svg width="24" height="24" viewBox="0 0 24 24" fill="none" xmlns="http://www.w3.org/2000/svg">
<path fill-rule="evenodd" clip-rule="evenodd" d="M9.80038 4C9.80041 2.61931 10.9197 1.50003 12.3004 1.5C13.6811 1.49997 14.8004 2.61927 14.8004 4C14.8003 5.38069 13.6811 6.49997 12.3004 6.5C10.9196 6.50003 9.80035 5.38073 9.80038 4ZM21.0937 3.60346C21.7605 3.78214 22.1562 4.46756 21.9776 5.13439C21.5449 6.7491 20.427 7.90846 19.0361 8.70564C17.876 9.37054 16.481 9.813 14.9941 10.0927C15.0855 10.5117 15.1697 11.0561 15.1601 11.629C15.16 11.6346 15.1599 11.6402 15.1598 11.6458C15.2061 11.7484 15.2587 11.8614 15.318 11.9848C15.5997 12.5704 15.9894 13.3015 16.461 14.1097C17.406 15.7293 18.6516 17.6097 19.9653 19.2055C20.1907 19.4794 20.2855 19.8306 20.2385 20.1709C21.0221 20.0175 21.4282 19.8824 21.5356 19.8394C22.1765 19.5829 22.9041 19.8946 23.1606 20.5355C23.4171 21.1764 23.1054 21.904 22.4645 22.1605C21.7562 22.4439 18.9104 23.2499 12.5 23.2499C6.08952 23.2499 3.2443 22.4439 2.5359 22.1606C1.8949 21.9042 1.58307 21.1768 1.83941 20.5358C2.09575 19.8948 2.82319 19.583 3.46419 19.8393C3.56276 19.8787 3.91161 19.9953 4.57125 20.1325C4.50294 19.9477 4.47744 19.7441 4.50521 19.5352C4.59621 18.8509 5.22475 18.3699 5.90908 18.4609L6.54326 18.5452C6.46543 17.7439 6.45022 17.0443 6.50261 16.4347C6.58908 15.4288 6.86949 14.5588 7.46638 13.8945C8.06459 13.2288 8.83582 12.9319 9.56198 12.7775C9.87566 12.7108 10.21 12.6654 10.5512 12.6315C10.55 12.4824 10.5509 12.3356 10.5518 12.1909C10.552 12.1493 10.5523 12.108 10.5525 12.0667C10.5547 11.6161 10.5542 11.1177 10.5089 10.501C7.87815 10.531 5.14715 10.2503 2.74988 9.78804C2.07201 9.65733 1.62846 9.00184 1.75917 8.32397C1.88988 7.6461 2.54537 7.20255 3.22324 7.33326C6.57344 7.97928 10.5495 8.23246 13.7965 7.75828C15.4219 7.52092 16.7894 7.11182 17.793 6.53662C18.7811 5.97032 19.3483 5.28745 19.5627 4.48734C19.7414 3.82051 20.4268 3.42478 21.0937 3.60346ZM13.7898 14.4669C13.2931 14.8013 12.681 14.9932 11.9776 15.0354C11.1548 15.0848 10.5611 15.121 10.0819 15.2229C9.62552 15.3199 9.4326 15.4468 9.32589 15.5655C9.21784 15.6858 9.05256 15.9609 8.99343 16.6488C8.93363 17.3445 8.99265 18.3478 9.2333 19.7949C9.28358 20.0973 9.22065 20.4043 9.06202 20.6596C10.0535 20.7154 11.1948 20.7499 12.5 20.7499C13.7795 20.7499 14.9014 20.7167 15.8791 20.6629C15.7586 20.4708 15.689 20.2435 15.689 20C15.689 19.4537 16.0393 18.9893 16.5276 18.8192C15.6928 17.6472 14.9315 16.449 14.3017 15.3697C14.1206 15.0594 13.9495 14.7573 13.7898 14.4669Z" fill="#26272B"/>
</svg>
