<svg width="24" height="24" viewBox="0 0 24 24" fill="none" xmlns="http://www.w3.org/2000/svg">
<path fill-rule="evenodd" clip-rule="evenodd" d="M15.2503 8C15.2503 6.61931 16.3696 5.50003 17.7503 5.5C19.131 5.49997 20.2503 6.61927 20.2503 8C20.2503 9.38069 19.131 10.5 17.7503 10.5C16.3696 10.5 15.2503 9.38073 15.2503 8ZM14.8863 10.6182C14.8856 10.6175 14.8849 10.6168 14.8842 10.6161C13.1699 8.90177 10.9322 7.94215 8.90934 7.47015C6.90805 7.00318 4.94689 6.97482 3.69702 7.2874C3.02729 7.45489 2.62015 8.13359 2.78764 8.80332C2.95514 9.47305 3.63384 9.8802 4.30357 9.7127C5.0537 9.5251 6.59254 9.49671 8.34126 9.90475C9.5764 10.193 10.8295 10.6793 11.9134 11.4032C11.4297 11.9077 10.7798 12.5265 10.0596 13.1466C8.9559 14.097 7.79994 14.9527 6.94128 15.382C6.84321 15.431 6.7544 15.4912 6.67562 15.5603C5.45658 15.8439 4.24774 15.898 2.53116 15.0928C1.90615 14.7996 1.16181 15.0686 0.868622 15.6936C0.575436 16.3186 0.84443 17.063 1.46944 17.3562C3.92315 18.5072 5.78313 18.3636 7.48223 17.9371C7.97266 17.814 8.41343 17.6829 8.83214 17.5583C9.88175 17.2461 10.7928 16.9751 12.0003 16.9751C13.2123 16.9751 14.1941 17.2661 15.3177 17.5992L15.3178 17.5992C15.4265 17.6315 15.5365 17.6641 15.6482 17.6969C16.3106 17.8913 17.0052 17.512 17.1997 16.8496C17.3941 16.1872 17.0148 15.4925 16.3524 15.2981C16.2412 15.2655 16.1276 15.2315 16.0116 15.1969C15.5703 15.0651 15.0935 14.9228 14.5776 14.7996C14.8496 14.5209 15.1182 14.2286 15.3443 13.9497C16.5893 14.5431 17.8721 14.7868 18.9529 14.8712C19.8402 14.9406 20.625 14.9057 21.1989 14.8545C21.4869 14.8288 21.7232 14.7989 21.8923 14.7757C21.9461 14.7683 22.0003 14.7605 22.0403 14.7548L22.0842 14.7486L22.101 14.7463C22.7435 14.6951 23.2494 14.1578 23.2503 13.5019C23.2512 12.8115 22.6923 12.2512 22.0019 12.2503C21.9144 12.2501 21.8358 12.2599 21.822 12.2616L21.8203 12.2618C21.7914 12.2652 21.7611 12.2694 21.7368 12.2728L21.6735 12.2818L21.6734 12.2818C21.6381 12.2869 21.601 12.2922 21.5521 12.2989C21.4086 12.3186 21.2137 12.3433 20.9767 12.3644C20.5006 12.4069 19.8604 12.4345 19.1477 12.3788C17.7037 12.266 16.0929 11.8235 14.8863 10.6182ZM22.1175 14.7441L22.1286 14.7428C22.1288 14.7428 22.1274 14.7429 22.1241 14.7433C22.1224 14.7435 22.1202 14.7437 22.1175 14.7441Z" fill="#26272B"/>
</svg>
