<svg width="24" height="24" viewBox="0 0 24 24" fill="none" xmlns="http://www.w3.org/2000/svg">
<path fill-rule="evenodd" clip-rule="evenodd" d="M14.4991 0.75C15.1894 0.75 15.7491 1.30964 15.7491 2C15.7491 3.75369 14.9986 5.70892 13.2185 7.42779C13.4139 7.70445 13.5752 7.9999 13.7072 8.28744C14.2785 7.51707 14.9123 6.79793 15.5591 6.29268C16.144 5.83572 17.131 5.24996 18.1974 5.63201C18.8037 5.84923 19.2097 6.30959 19.4668 6.80823C19.7176 7.29454 19.8651 7.88394 19.9479 8.53456C20.1139 9.83755 20.0544 11.6778 19.7388 14.1573C19.6517 14.8421 19.0259 15.3266 18.341 15.2395C17.6562 15.1523 17.1717 14.5265 17.2588 13.8416C17.5652 11.4345 17.5941 9.84053 17.468 8.85042C17.4239 8.50408 17.3649 8.26702 17.3107 8.1117C17.2532 8.1478 17.1827 8.1967 17.0981 8.26283C16.6889 8.58248 16.1931 9.12521 15.671 9.83663C15.1696 10.52 14.6875 11.2986 14.2736 12.0685C14.2663 12.0827 14.2587 12.0968 14.2509 12.1108C13.8591 12.8437 13.53 13.5671 13.3059 14.1912C13.3498 16.0167 13.1474 18.2053 12.5875 20.7504H12.9994C13.6898 20.7504 14.2494 21.3101 14.2494 22.0004C14.2494 22.6908 13.6898 23.2504 12.9994 23.2504H10.9994C10.6118 23.2504 10.2461 23.0706 10.0094 22.7636C9.77277 22.4566 9.69192 22.0572 9.79057 21.6823C10.6197 18.5316 10.8683 15.9988 10.8013 14.0715C10.8002 14.0537 10.7996 14.0359 10.7993 14.018C10.7661 13.1434 10.6675 12.395 10.529 11.7714C10.304 10.7592 9.99025 10.1493 9.74782 9.85093C9.73003 9.82903 9.71363 9.80976 9.69862 9.79283C9.58518 9.87063 9.43791 9.99451 9.26944 10.1836C8.9844 10.5036 8.69467 10.9491 8.46142 11.4932C7.99484 12.5815 7.79177 13.9728 8.20155 15.4071C8.39121 16.0709 8.00684 16.7627 7.34305 16.9524C6.67926 17.142 5.9874 16.7577 5.79774 16.0939C5.20753 14.0281 5.50497 12.0446 6.16366 10.5081C6.49305 9.73977 6.92215 9.06021 7.40266 8.52077C7.84542 8.02371 8.39046 7.58071 9.00446 7.35005C12.3667 5.63264 13.2491 3.42618 13.2491 2C13.2491 1.30964 13.8087 0.75 14.4991 0.75ZM9.57502 9.68052C9.57497 9.6792 9.58272 9.68261 9.59839 9.69468C9.58291 9.68788 9.57507 9.68184 9.57502 9.68052ZM5.74906 3.99997C5.74909 2.61928 6.86837 1.5 8.24906 1.49997C9.62979 1.49995 10.7491 2.61924 10.7491 3.99997C10.749 5.38066 9.62976 6.49995 8.24906 6.49997C6.86833 6.5 5.74903 5.3807 5.74906 3.99997Z" fill="#26272B"/>
</svg>
