<svg width="24" height="24" viewBox="0 0 24 24" fill="none" xmlns="http://www.w3.org/2000/svg">
<path fill-rule="evenodd" clip-rule="evenodd" d="M14.4991 0.75C15.1894 0.75 15.7491 1.30964 15.7491 2C15.7491 3.74045 15.0099 5.6794 13.2587 7.38882C13.5477 7.74171 13.7911 8.13202 13.9854 8.50926C14.0176 8.57182 14.0492 8.63541 14.08 8.69995C14.117 8.65773 14.1543 8.61552 14.192 8.57334C15.6214 6.97374 17.5572 5.45352 20.4005 3.90263C21.0066 3.57205 21.7659 3.79537 22.0964 4.40143C22.427 5.0075 22.2037 5.76679 21.5976 6.09737C18.9409 7.54648 17.2517 8.90126 16.0561 10.2392C14.8623 11.5751 14.1111 12.9484 13.384 14.5238C13.3624 14.5707 13.3382 14.6157 13.3117 14.6585C13.3133 16.3866 13.1005 18.4189 12.5875 20.7504H12.9994C13.6898 20.7504 14.2494 21.3101 14.2494 22.0004C14.2494 22.6908 13.6898 23.2504 12.9994 23.2504H10.9994C10.6118 23.2504 10.2461 23.0706 10.0094 22.7636C9.77277 22.4566 9.69192 22.0572 9.79057 21.6823C11.0058 17.0644 10.974 13.7738 10.529 11.7714C10.304 10.7592 9.99025 10.1493 9.74782 9.85093C9.73003 9.82903 9.71363 9.80976 9.69862 9.79283C9.58518 9.87063 9.43791 9.99451 9.26944 10.1836C8.9844 10.5036 8.69467 10.9491 8.46142 11.4932C7.99484 12.5815 7.79177 13.9728 8.20155 15.4071C8.39121 16.0709 8.00684 16.7627 7.34305 16.9524C6.67926 17.142 5.9874 16.7577 5.79774 16.0939C5.20753 14.0281 5.50497 12.0446 6.16366 10.5081C6.49305 9.73977 6.92215 9.06021 7.40266 8.52077C7.84542 8.02371 8.39046 7.58071 9.00446 7.35005C12.3667 5.63264 13.2491 3.42618 13.2491 2C13.2491 1.30964 13.8087 0.75 14.4991 0.75ZM9.57502 9.68052C9.57497 9.6792 9.58272 9.68261 9.59839 9.69468C9.58291 9.68788 9.57507 9.68184 9.57502 9.68052ZM5.74906 3.99997C5.74909 2.61928 6.86837 1.5 8.24906 1.49997C9.62979 1.49995 10.7491 2.61924 10.7491 3.99997C10.749 5.38066 9.62976 6.49995 8.24906 6.49997C6.86833 6.5 5.74903 5.3807 5.74906 3.99997Z" fill="#26272B"/>
</svg>
