<svg width="24" height="24" viewBox="0 0 24 24" fill="none" xmlns="http://www.w3.org/2000/svg">
<path fill-rule="evenodd" clip-rule="evenodd" d="M10.25 3.5C10.25 2.11931 11.3693 1.00003 12.75 1C14.1307 0.999971 15.25 2.11927 15.25 3.5C15.25 4.88069 14.1307 5.99997 12.75 6C11.3693 6.00003 10.25 4.88073 10.25 3.5ZM18.059 4.88199C18.6765 5.19073 18.9268 5.94157 18.618 6.55904C17.9076 7.9799 16.4204 8.89143 14.9842 9.32231C14.1728 9.56573 13.2715 9.68825 12.3933 9.62635C12.3729 9.75434 12.347 9.88135 12.3163 10.0066C12.2024 10.4724 12.014 10.9606 11.7565 11.4653C12.5194 11.7984 13.1929 12.1247 13.7279 12.5018C14.364 12.9502 14.8625 13.5099 15.1233 14.2922C15.3659 15.0201 15.3581 15.8152 15.2658 16.6459C15.2234 17.0275 15.1588 17.4481 15.0778 17.9097L15.7549 17.7743C16.4318 17.6389 17.0903 18.0779 17.2257 18.7549C17.3611 19.4318 16.9221 20.0904 16.2451 20.2257L16.1238 20.25H20.0022L18.4464 11.6929L18.2055 11.733C17.5245 11.8465 16.8805 11.3865 16.767 10.7055C16.6535 10.0246 17.1135 9.38053 17.7945 9.26703L20.7945 8.76703C21.4755 8.65354 22.1195 9.11356 22.233 9.79453C22.3465 10.4755 21.8865 11.1195 21.2055 11.233L20.9126 11.2818L22.7298 21.2764C22.7961 21.6411 22.6972 22.0164 22.4597 22.301C22.2222 22.5855 21.8707 22.75 21.5 22.75H2.5C1.80964 22.75 1.25 22.1904 1.25 21.5C1.25 20.8097 1.80964 20.25 2.5 20.25H3.98205L2.61606 18.884C2.35397 18.6219 2.22171 18.2571 2.255 17.8879C2.28828 17.5187 2.48369 17.1834 2.78843 16.9724C5.30517 15.2301 7.0599 13.619 8.20499 12.2573C7.69087 11.7464 7.37505 11.1202 7.375 10.3751C7.37496 9.67686 7.65915 9.04134 7.92807 8.53694C7.98697 8.42647 8.05161 8.31115 8.12024 8.19243C7.99671 8.17344 7.86914 8.15732 7.73805 8.14451C6.40233 8.01399 4.89008 8.24248 3.69345 9.04036C3.11907 9.42334 2.34297 9.26818 1.95999 8.6938C1.57701 8.11942 1.73217 7.34332 2.30655 6.96033C4.10992 5.7579 6.24384 5.48659 7.98119 5.65636C8.85651 5.7419 9.67831 5.94321 10.3588 6.23005C10.6999 6.37382 11.0642 6.56365 11.3874 6.81138C11.4454 6.83038 11.5028 6.85386 11.559 6.88199C12.1838 7.1944 13.2079 7.24513 14.2658 6.92774C15.3296 6.60862 16.0924 6.02015 16.382 5.44101C16.6907 4.82353 17.4415 4.57325 18.059 4.88199ZM10.3526 13.5817C9.22197 14.9856 7.60116 16.5353 5.42462 18.1571L5.88383 18.6163C6.32948 19.0619 6.36828 19.7604 6.00024 20.25H12.5C12.2883 19.9678 12.204 19.6062 12.2743 19.2549C12.527 17.9913 12.7023 17.0789 12.7811 16.3698C12.8606 15.6536 12.8215 15.2924 12.7516 15.0828C12.6999 14.9277 12.6046 14.7686 12.2875 14.5451C11.9304 14.2934 11.3857 14.0253 10.5075 13.649C10.4554 13.6266 10.4037 13.6042 10.3526 13.5817Z" fill="#26272B"/>
</svg>
