<svg width="24" height="24" viewBox="0 0 24 24" fill="none" xmlns="http://www.w3.org/2000/svg">
<path fill-rule="evenodd" clip-rule="evenodd" d="M13.5193 0.250173C14.2096 0.261547 14.7599 0.830336 14.7486 1.5206L14.7347 2.35988C15.4425 2.88783 16.2176 3.57014 16.9141 4.32303C17.7852 5.26467 18.6414 6.43191 19.0056 7.63891C19.1924 8.2581 19.2694 8.95306 19.0881 9.65179C18.9013 10.3718 18.4685 10.9851 17.8282 11.4584C16.991 12.0771 15.7984 12.4595 14.2493 12.6353V13.9115C15.1131 13.9973 15.8992 14.1153 16.5799 14.2604C17.3262 14.4195 18.0088 14.6242 18.5402 14.8897C18.8049 15.022 19.0876 15.1964 19.3246 15.4323C19.563 15.6694 19.8251 16.0418 19.8676 16.5474C19.9254 17.2359 19.5521 17.7402 19.232 18.0318C18.9116 18.3235 18.4984 18.5468 18.0678 18.7286C17.3809 19.0186 16.4449 19.2866 15.2493 19.5339V20.4999C15.2493 21.1903 14.6897 21.7499 13.9993 21.7499C13.309 21.7499 12.7493 21.1903 12.7493 20.4999V18.4999C12.7493 17.8934 13.1848 17.3744 13.7821 17.2689C14.7972 17.0898 15.5901 16.9086 16.1928 16.7348C16.149 16.725 16.1043 16.7152 16.0586 16.7054C14.9965 16.479 13.5587 16.3169 11.8972 16.2665C11.7711 17.1993 11.6239 18.0767 11.4779 18.8553C11.2862 19.878 11.0943 20.7412 10.95 21.3505C10.8779 21.6553 10.8174 21.8971 10.7747 22.0639C10.7533 22.1474 10.7364 22.2122 10.7245 22.2568L10.7108 22.3085L10.707 22.3226L10.7058 22.3267L10.7055 22.328C10.7054 22.3282 10.7053 22.3288 9.49932 21.9999L10.7055 22.328C10.5572 22.8719 10.063 23.2499 9.49932 23.2499H7.49932C6.80897 23.2499 6.24932 22.6903 6.24932 21.9999C6.24932 21.3096 6.80897 20.7499 7.49932 20.7499H8.52312C8.65942 20.173 8.84005 19.3582 9.02073 18.3946C9.21676 17.3491 9.41045 16.1409 9.54879 14.8791C9.54984 14.8681 9.55104 14.8572 9.55237 14.8463C9.63149 14.1191 9.6921 13.3745 9.72407 12.6332C8.1752 12.4569 6.97607 12.0776 6.12204 11.4739C5.47225 11.0145 5.01419 10.4181 4.79411 9.70789C4.57858 9.01235 4.62305 8.31151 4.79198 7.67796C5.12019 6.44701 5.97047 5.26541 6.87343 4.31222C7.6028 3.54228 8.44102 2.8433 9.24918 2.30506L9.24887 1.50049C9.24861 0.81013 9.80803 0.25027 10.4984 0.250004C11.1887 0.249737 11.7486 0.809165 11.7489 1.49952L11.7495 2.99951C11.7496 3.44824 11.5093 3.86263 11.1197 4.08527C10.3587 4.52014 9.4542 5.22309 8.68837 6.03152C7.90394 6.85959 7.37931 7.67799 7.20758 8.32204C7.12654 8.626 7.13979 8.83141 7.18209 8.9679C7.21983 9.08971 7.30867 9.25112 7.56513 9.43241C8.14359 9.84132 9.43899 10.25 11.9998 10.25C14.5683 10.25 15.814 9.83836 16.3422 9.4479C16.5687 9.2805 16.6391 9.13603 16.6682 9.02399C16.7028 8.8907 16.7082 8.6794 16.6122 8.3611C16.4106 7.6931 15.8557 6.86033 15.0789 6.02072C14.3212 5.20161 13.4552 4.48598 12.7847 4.04273C12.4285 3.80727 12.2172 3.40631 12.2242 2.9794L12.2489 1.47941C12.2603 0.789147 12.8291 0.238799 13.5193 0.250173ZM9.49932 7.24993C9.49932 5.86921 10.6186 4.74993 11.9993 4.74993C13.38 4.74993 14.4993 5.86921 14.4993 7.24993C14.4993 8.63064 13.38 9.74993 11.9993 9.74993C10.6186 9.74993 9.49932 8.63064 9.49932 7.24993Z" fill="#26272B"/>
</svg>
