<svg width="24" height="24" viewBox="0 0 24 24" fill="none" xmlns="http://www.w3.org/2000/svg">
<path fill-rule="evenodd" clip-rule="evenodd" d="M14.0617 6.17548C15.0651 3.09404 17.3422 1.25 20.0004 1.25C20.6908 1.25 21.2504 1.80964 21.2504 2.5C21.2504 3.19036 20.6908 3.75 20.0004 3.75C18.6587 3.75 17.1857 4.65596 16.4388 6.94953C15.6828 9.27129 15.7278 12.9616 17.6679 18.055C17.9136 18.7002 17.5899 19.4224 16.9447 19.6681C16.2996 19.9139 15.5774 19.5901 15.3317 18.945C14.3482 16.363 13.7876 14.0312 13.5787 11.9669C13.2896 11.8742 13.1343 11.9034 13.0536 11.9252C12.8618 11.9772 12.7027 12.0913 12.2976 12.3859C12.2894 12.3919 12.2809 12.3981 12.2722 12.4044C12.1318 12.5067 11.9328 12.6517 11.6832 12.7824L15.3049 20.75H16.5C17.1904 20.75 17.75 21.3096 17.75 22C17.75 22.6904 17.1904 23.25 16.5 23.25H14.5C14.0098 23.25 13.5649 22.9635 13.362 22.5173L8.97677 12.8697C7.93769 14.5617 6.91984 17.3999 6.23744 22.1767C6.14947 22.7925 5.62209 23.2499 5.00004 23.2499L3.00004 23.25C2.30968 23.25 1.75002 22.6904 1.75 22C1.74998 21.3096 2.30961 20.75 2.99996 20.75L3.92615 20.7499C4.9624 14.3694 6.69485 11.0006 8.76555 9.28699C10.5423 7.81659 12.4324 7.71324 13.68 7.73227C13.775 7.18178 13.9031 6.66264 14.0617 6.17548ZM16.75 10.25C16.75 8.86929 17.8693 7.75 19.25 7.75C20.6307 7.75 21.75 8.86929 21.75 10.25C21.75 11.6307 20.6307 12.75 19.25 12.75C17.8693 12.75 16.75 11.6307 16.75 10.25Z" fill="#26272B"/>
</svg>
