<svg width="24" height="24" viewBox="0 0 24 24" fill="none" xmlns="http://www.w3.org/2000/svg">
<path fill-rule="evenodd" clip-rule="evenodd" d="M12.5 1.25C11.1193 1.25003 10.0001 2.36931 10 3.75C10 5.13073 11.1193 6.25003 12.5 6.25C13.8807 6.24997 15 5.13069 15 3.75C15.0001 2.36927 13.8808 1.24997 12.5 1.25ZM5.25 6C4.69772 5.58579 3.91421 5.69772 3.5 6.25C3.08579 6.80228 3.19772 7.58579 3.75 8C4.80696 8.79272 5.85997 9.46342 7.37985 9.76739C8.49089 9.9896 9.78992 10.004 11.4564 9.81509C11.8124 10.8481 12.2204 11.9077 12.6811 12.9704C12.0273 13.2737 11.5083 13.7959 11.1117 14.3209C10.5989 15 10.1742 15.838 9.83623 16.7C9.33291 17.9837 8.97452 19.4442 8.82619 20.75H8.0004C7.31004 20.75 6.7504 21.3096 6.7504 22C6.7504 22.6904 7.31004 23.25 8.0004 23.25H10.0003C10.6906 23.25 11.2503 22.6904 11.2503 22C11.2503 20.8055 11.5862 19.0855 12.1637 17.6125C12.4506 16.8807 12.7758 16.2657 13.1067 15.8276C13.3987 15.441 13.622 15.2875 13.7441 15.2337C14.7586 17.2311 15.9638 19.1805 17.3641 20.9236C16.9965 21.1413 16.75 21.5418 16.75 22C16.75 22.6904 17.3096 23.25 18 23.25H20C20.5056 23.25 20.9614 22.9454 21.1549 22.4784C21.3483 22.0113 21.2414 21.4736 20.8839 21.1161C18.9044 19.1366 17.2436 16.6254 15.9146 13.986C16.1997 13.6411 16.4147 13.2225 16.531 12.7188C16.7598 11.7278 16.5452 10.6089 16.062 9.41567C18.8695 9.62036 20.6346 10.9023 21.6161 11.8839C22.1043 12.372 22.8957 12.372 23.3839 11.8839C23.872 11.3957 23.872 10.6043 23.3839 10.1161C21.6638 8.39605 18.2759 6.18677 12.7945 7.10034C10.3451 7.50857 8.89772 7.52146 7.87015 7.31594C6.89003 7.11992 6.19304 6.70728 5.25 6ZM4 4.5C5.65685 4.5 7 3.82843 7 3C7 2.17157 5.65685 1.5 4 1.5C2.34315 1.5 1 2.17157 1 3C1 3.82843 2.34315 4.5 4 4.5Z" fill="#26272B"/>
</svg>
