<svg width="24" height="24" viewBox="0 0 24 24" fill="none" xmlns="http://www.w3.org/2000/svg">
<path fill-rule="evenodd" clip-rule="evenodd" d="M10.7503 4C10.7503 2.61931 11.8696 1.50003 13.2503 1.5C14.631 1.49997 15.7503 2.61927 15.7503 4C15.7503 5.38069 14.631 6.49997 13.2503 6.5C11.8696 6.50003 10.7503 5.38073 10.7503 4ZM9.46536 10.1644C7.79175 10.9435 6.21236 12.2735 5.63525 13.5239C5.34596 14.1507 4.6033 14.4243 3.97649 14.135C3.34967 13.8457 3.07605 13.1031 3.36535 12.4763C4.28825 10.4766 6.45886 8.80642 8.41024 7.89797C9.40185 7.43633 10.4618 7.11084 11.4142 7.07497C12.3275 7.04058 13.5396 7.28345 14.1183 8.44083C14.1595 8.52323 14.1953 8.60709 14.2262 8.69187C14.2751 8.75993 14.4116 8.91808 14.7513 9.128C15.185 9.39612 15.7848 9.64391 16.4521 9.82467C17.1165 10.0046 17.7894 10.1023 18.3512 10.1055C18.9634 10.109 19.2478 9.9994 19.3069 9.95999C19.8813 9.57705 20.6574 9.73226 21.0404 10.3067C21.4233 10.8811 21.2681 11.6572 20.6937 12.0401C20.0028 12.5007 19.0997 12.6098 18.3369 12.6055C17.5237 12.6008 16.6341 12.4641 15.7985 12.2377C15.2196 12.0809 14.6382 11.8734 14.1054 11.618C14.0939 11.6588 14.0821 11.6997 14.0701 11.7407C13.9301 12.2181 13.7489 12.7236 13.5352 13.2448C15.0537 14.6167 16.4325 16.8043 16.7026 20.25H17.5003C18.1907 20.25 18.7503 20.8097 18.7503 21.5C18.7503 22.1904 18.1907 22.75 17.5003 22.75H15.5003C14.8099 22.75 14.2503 22.1904 14.2503 21.5C14.2503 18.5563 13.3713 16.7614 12.3911 15.6401C11.4958 17.3008 10.3655 19.0279 9.19475 20.4606C9.52974 20.6848 9.7503 21.0667 9.7503 21.5C9.7503 22.1904 9.19066 22.75 8.5003 22.75H6.5003C5.98003 22.75 5.51416 22.4278 5.33064 21.941C5.14713 21.4541 5.28435 20.9045 5.67516 20.5611C7.1686 19.2487 8.95925 16.7675 10.2594 14.3251C10.3239 14.2039 10.3869 14.0835 10.4483 13.9638C10.1185 13.6608 9.76719 13.2527 9.56987 12.6867C9.32965 11.9977 9.38091 11.2656 9.61912 10.4983C9.66687 10.3444 9.72319 10.1857 9.7881 10.0217C9.68248 10.0659 9.57481 10.1134 9.46536 10.1644Z" fill="#26272B"/>
</svg>
