<svg width="24" height="24" viewBox="0 0 24 24" fill="none" xmlns="http://www.w3.org/2000/svg">
<path fill-rule="evenodd" clip-rule="evenodd" d="M0.88224 4.94126C1.19098 4.32378 1.94182 4.0735 2.55929 4.38224C6.50329 6.35424 9.21329 7.27495 11.8586 7.50497C14.5142 7.7359 17.2186 7.28221 21.1971 6.2876C21.5287 6.20469 21.8799 6.26121 22.1687 6.44401C22.4576 6.62681 22.659 6.91993 22.726 7.25513L23.226 9.75513C23.3614 10.4321 22.9224 11.0906 22.2454 11.226C21.5685 11.3614 20.9099 10.9224 20.7745 10.2454L20.5301 9.02295C18.8158 9.4274 17.2756 9.73174 15.8169 9.90384C15.9189 11.4722 16.0164 13.4587 16.0927 15.1629C16.1396 16.2123 16.1788 17.1597 16.2061 17.8448C16.2198 18.1874 16.2306 18.4645 16.2379 18.656L16.2492 18.9527L16.2492 18.954C16.2492 18.954 16.2492 18.9541 15.0001 19.0003L16.2492 18.954C16.2617 19.2933 16.1357 19.6232 15.9001 19.8677C15.6645 20.1122 15.3396 20.2503 15.0001 20.2503H13.0003C12.3099 20.2503 11.7503 19.6906 11.7503 19.0003C11.7503 18.3099 12.3099 17.7503 13.0003 17.7503H13.7003C13.6737 17.0884 13.6376 16.2232 13.5952 15.2746C13.5558 14.3954 13.5111 13.448 13.4634 12.5261C13.3314 12.5314 13.1933 12.5356 13.0518 12.5379C12.6347 12.5446 12.1597 12.5356 11.7195 12.4845C11.3374 12.4401 10.7616 12.3438 10.3067 12.0405C9.49204 11.4971 9.27148 10.6832 9.22327 10.1041C9.2088 9.93027 9.20818 9.76422 9.21284 9.61806C8.94667 9.55876 8.67895 9.4934 8.40903 9.42189C8.11563 10.4764 7.14832 11.2503 6.00027 11.2503C4.61956 11.2503 3.50027 10.131 3.50027 8.75027C3.50027 8.37795 3.58167 8.02464 3.72763 7.70715C2.99941 7.38029 2.24003 7.0177 1.44126 6.61831C0.823784 6.30957 0.573503 5.55873 0.88224 4.94126Z" fill="#26272B"/>
</svg>
