<svg width="24" height="24" viewBox="0 0 24 24" fill="none" xmlns="http://www.w3.org/2000/svg">
<path fill-rule="evenodd" clip-rule="evenodd" d="M15.847 0.27673C16.5228 0.418068 16.956 1.08044 16.8146 1.75617C16.6138 2.71631 16.4215 3.59474 16.2433 4.40885C15.8573 6.17245 15.5373 7.63429 15.3396 8.97145C15.2315 9.70238 15.1641 10.3743 15.1451 11.0104C15.145 11.0261 15.1446 11.0418 15.1438 11.0575C15.1176 12.0629 15.2137 12.9797 15.4634 13.8998C15.5195 14.1066 15.5838 14.3153 15.6571 14.5268C15.6727 14.5648 15.6864 14.6036 15.6983 14.6432C16.3807 16.5372 17.7853 18.6678 20.4371 21.6732C20.7622 22.0417 20.8412 22.5665 20.6391 23.0144C20.437 23.4623 19.9912 23.7503 19.4998 23.7503H17.5C16.8096 23.7503 16.25 23.1906 16.25 22.5003C16.25 22.0173 16.5238 21.5984 16.9247 21.3902C15.3709 19.4568 14.29 17.7731 13.6028 16.1455C12.9825 16.0699 12.429 16.0129 11.9345 15.976C11.9171 15.9751 11.8997 15.9738 11.8825 15.9722C11.2094 15.9235 10.6467 15.9126 10.174 15.943C9.2197 16.0043 8.84636 16.2218 8.66028 16.4195C8.45325 16.6395 8.23809 17.0866 8.15199 18.127C8.06701 19.1539 8.12168 20.5342 8.24723 22.4175C8.27024 22.7627 8.14916 23.102 7.91281 23.3547C7.67645 23.6073 7.34596 23.7507 7 23.7507H5C4.30964 23.7507 3.75 23.191 3.75 22.5007C3.75 21.8103 4.30964 21.2507 5 21.2507H5.6719C5.60405 19.9633 5.58344 18.852 5.66051 17.9208C5.76191 16.6955 6.04675 15.5487 6.83972 14.7062C7.65364 13.8413 8.7803 13.5274 10.0135 13.4481C10.1961 13.4364 10.3858 13.4295 10.5825 13.4272C10.5773 13.3674 10.5723 13.307 10.5677 13.2462C10.5348 12.8138 10.5143 12.3207 10.5434 11.88C10.5579 11.6611 10.5869 11.4157 10.6485 11.1797C10.7022 10.9741 10.82 10.6144 11.1165 10.3174C11.4834 9.94987 11.933 9.8018 12.2507 9.73511C12.4147 9.70069 12.5777 9.68094 12.732 9.6707C12.763 9.36726 12.8013 9.06017 12.8457 8.74845C12.814 8.74965 12.7821 8.75025 12.75 8.75025C11.3693 8.75025 10.25 7.63096 10.25 6.25025C10.25 4.86954 11.3693 3.75025 12.75 3.75025C13.117 3.75025 13.4655 3.82933 13.7794 3.97137C13.794 3.90479 13.8086 3.83791 13.8233 3.77072C13.9979 2.97293 14.1819 2.1323 14.3676 1.24434C14.5089 0.568604 15.1713 0.135392 15.847 0.27673Z" fill="#26272B"/>
</svg>
