<svg width="24" height="24" viewBox="0 0 24 24" fill="none" xmlns="http://www.w3.org/2000/svg">
<path fill-rule="evenodd" clip-rule="evenodd" d="M9.49986 4.25C9.49986 2.86929 10.6191 1.75 11.9999 1.75C13.3806 1.75 14.4999 2.86929 14.4999 4.25C14.4999 5.63071 13.3806 6.75 11.9999 6.75C10.6191 6.75 9.49986 5.63071 9.49986 4.25ZM22.2125 7.69673C22.38 8.36646 21.9729 9.04516 21.3031 9.21265C19.3182 9.70906 17.3397 10.082 14.7214 10.2819C14.7606 12.4093 15.8386 14.6959 17.107 16.626C17.7897 17.6649 18.4899 18.5443 19.0201 19.164C19.2844 19.4731 19.5047 19.7155 19.657 19.8787C19.7331 19.9603 19.7921 20.0219 19.8309 20.062C19.8503 20.0821 19.8647 20.0968 19.8736 20.1058L19.8829 20.1152L19.8837 20.1161C19.8839 20.1162 19.884 20.1164 19.8841 20.1165C20.2413 20.474 20.3481 21.0114 20.1547 21.4784C19.9612 21.9454 19.5054 22.25 18.9999 22.25H16.9999C16.3095 22.25 15.7499 21.6904 15.7499 21C15.7499 20.5291 16.0103 20.119 16.395 19.9058C15.9633 19.3583 15.4878 18.7144 15.0177 17.999C14.3997 17.0584 13.7626 15.9524 13.2528 14.7496C12.9397 14.7491 12.6453 14.7477 12.368 14.7464C11.2729 14.7413 10.4431 14.7375 9.76543 14.7926C8.87237 14.8652 8.56309 15.0258 8.41532 15.1637C8.26772 15.3015 8.05465 15.6302 7.91787 16.6236C7.78296 17.6035 7.74986 18.9877 7.74986 21C7.74986 21.3315 7.61815 21.6495 7.38371 21.8839C7.14927 22.1183 6.83131 22.25 6.49977 22.25L4.49938 22.2499C3.80902 22.2498 3.24942 21.6901 3.24946 20.9998C3.24951 20.3094 3.8092 19.7498 4.49955 19.7499L5.25524 19.7499C5.26923 18.3467 5.31492 17.2 5.44124 16.2826C5.60136 15.1197 5.91957 14.0734 6.70952 13.3361C7.49931 12.5989 8.53387 12.3845 9.56281 12.3008C9.74225 12.2862 9.93124 12.2751 10.1293 12.2668C10.0785 11.8118 10.0409 11.3326 10.0133 10.9231C10.0021 10.7554 9.99222 10.5948 9.98371 10.4463C7.997 10.449 5.68886 10.3863 2.93765 10.2488C2.24815 10.2143 1.71713 9.62746 1.75159 8.93796C1.78604 8.24847 2.37291 7.71745 3.06241 7.7519C12.9938 8.24814 16.8595 7.74696 20.6966 6.78735C21.3663 6.61986 22.045 7.027 22.2125 7.69673Z" fill="#26272B"/>
</svg>
